<mxfile host="app.diagrams.net" modified="2020-08-26T10:45:24.701Z" agent="5.0 (Windows NT 10.0; Win64; x64) AppleWebKit/537.36 (KHTML, like Gecko) Chrome/84.0.4147.105 Safari/537.36" etag="8u4WsRfC6cPmFev5jpZ9" version="13.6.5" type="github">
  <diagram id="Pxfde9AXKMtGS_6uogA0" name="Page-1">
    <mxGraphModel dx="868" dy="401" grid="1" gridSize="10" guides="1" tooltips="1" connect="1" arrows="1" fold="1" page="1" pageScale="1" pageWidth="827" pageHeight="1169" math="0" shadow="0">
      <root>
        <mxCell id="0" />
        <mxCell id="1" parent="0" />
        <mxCell id="5p6Mm7zYd53Zv74XhdVd-1" value="" style="shape=image;verticalLabelPosition=bottom;labelBackgroundColor=#ffffff;verticalAlign=top;aspect=fixed;imageAspect=0;image=data:image/jpeg,/9j/4AAQSkZJRgABAQAAAQABAAD/2wBDAAMCAgICAgMCAgIDAwMDBAYEBAQEBAgGBgUGCQgKCgkICQkKDA8MCgsOCwkJDRENDg8QEBEQCgwSExIQEw8QEBD/2wBDAQMDAwQDBAgEBAgQCwkLEBAQEBAQEBAQEBAQEBAQEBAQEBAQEBAQEBAQEBAQEBAQEBAQEBAQEBAQEBAQEBAQEBD/wAARCAIpBFoDASIAAhEBAxEB/8QAHQABAAEFAQEBAAAAAAAAAAAAAAIBAwUGBwQICf/EAGkQAAEDAwEEBAcLBQoJCAcGBwEAAgMEBREGBxIhMRMiQVEIFCMyM2GRFUJSVHGBkpOx0dIWJDRDcxc1U2JydpShssEJGFZXgpaztNMlNjdEY3Wi1CY4VVh0leNFR4OEo7XCJyhkZvBG/8QAHAEBAAIDAQEBAAAAAAAAAAAAAAECAwQFBgcI/8QAOBEAAgECBAMECQMFAQADAAAAAAECAxEEEiExBUFRBhNhcRQiMoGRobHB0RXh8AcjM0JS8SWCwv/aAAwDAQACEQMRAD8A/Ubpbt8Vg+sP3J0t2+KwfWH7lZsGp9N6qpH1+mNQW2700bzG6ahqmTsa8c2lzCQD6lk0B4ulu3xWD6w/cnS3b4rB9YfuXtUJJGRN3pHBoyBn1oDy9LdvisH1h+5Olu3xWD6w/cvaiA8XS3b4rB9YfuTpbt8Vg+sP3L2ogPF0t2+KwfWH7k6W7fFYPrD9y9qIDxdLdvisH1h+5Olu3xWD6w/cvaiA8XS3b4rB9YfuTpbt8Vg+sP3L2qLpGMc1rnYLzho70B5Olu3xWD6w/cqGS7E/otP9YfuXuRCGrni6W7fFYPrD9ydLdvisH1h+5e1EJPF0t2+KwfWH7k6W7fFYPrD9y9qIDxdLdvisH1h+5Olu3xWD6w/cvaiA8XS3b4rB9YfuTpbt8Vg+sP3L1ySNjALjjJDR8pOApIDxdLdvisH1h+5Olu3xWD6w/cvaiA8XS3b4rB9YfuTpbt8Vg+sP3L2ogPF0t2+KwfWH7k6W7fFYPrD9y9qIDxdLdvisH1h+5Olu3xWD6w/cvaoveyNpe92GjmUB5Olu3xWD6w/cnS3b4rB9YfuXsBBGQqoDxdLdvisH1h+5Olu3xWD6w/cvZkcsqqA8XS3b4rB9YfuTpbt8Vg+sP3L2qLJGSFwY7JYd13qP/wDpQHk6W7fFYPrD9ydLdvisH1h+5e1RDmk4BGR60B5Olu3xWD6w/cnS3b4rB9YfuXtRAeLpbt8Vg+sP3J0t2+KwfWH7l7OXEoCDyKA8fS3b4rB9YfuTpbt8Vg+sP3L2ogPF0t2+KwfWH7k6W7fFYPrD9y9YkY57ow4FzQCR3ZUlCVgeLpbt8Vg+sP3J0t2+KwfWH7l6hLG6R0TZGl7AC5oPEA8shTS1geLpbt8Vg+sP3J0t2+KwfWH7l7UUg8XS3b4rB9YfuTpbt8Vg+sP3L2qxFW0c08lNDVQyTQ8JI2vBcz5R2ICz0t2+KwfWH7k6W7fFYPrD9y9qpkDmgPH0t2+KwfWH7k6W7fFYPrD9y9mR3hVQHi6W7fFYPrD9ydLdvisH1h+5e1RZIyQuDHA7h3XeooDydLdvisH1h+5Olu3xWD6w/cvaiA8XS3b4rB9YfuTpbt8Vg+sP3L2ogPF0t2+KwfWH7k6W7fFYPrD9y9qIDxdLdvisH1h+5Olu3xWD6w/cvaiA8XS3b4rB9YfuTpbt8Vg+sP3L2ogPF0t2+KwfWH7k6W7fFYPrD9y9qjJIyJhfI4NaOZKA8nS3b4rB9YfuTpbt8Vg+sP3L2DjxVUB4ulu3xWD6w/cnS3b4rB9YfuXtRAeLpbt8Vg+sP3J0t2+KwfWH7l7UQHi6W7fFYPrD9ydLdvisH1h+5e1EB4ulu3xWD6w/cnS3b4rB9YfuXtRAeLpbt8Vg+sP3J0t2+KwfWH7l7UQHi6W7fFYPrD9ydLdvisH1h+5e1EB4ulu3xWD6w/cnS3b4rB9YfuXtRAeLpbt8Vg+sP3J0t2+KwfWH7l7UQHi6W7fFYPrD9ydLdvisH1h+5e1EB4ulu3xWD6w/cnS3b4rB9YfuXtRAeLpbt8Vg+sP3J0t2+KwfWH7l7UQHi6W7fFYPrD9ydLdvisH1h+5e1EB4ulu3xWD6w/cnS3b4rB9YfuXtRAeLpbt8Vg+sP3J0t2+KwfWH7l7UQHi6W7fFYPrD9ydLdvisH1h+5e1EB4ulu3xWD6w/cnS3b4rB9YfuXtRAeLpbt8Vg+sP3J0t2+KwfWH7l7UQHi6W7fFYPrD9ydLdvisH1h+5e1EB4ulu3xWD6w/cnS3b4rB9YfuXtRAeLpbt8Vg+sP3J0t2+KwfWH7l7UQHi6W7fFYPrD9ydLdvisH1h+5e1EB4ulu3xWD6w/cnS3b4rB9YfuXtRAeLpbt8Vg+sP3J0t2+KwfWH7l7UQHi6W7fFYPrD9ydLdvisH1h+5e1EB4ulu3xWD6w/cnS3b4rB9YfuXtRAeLpbt8Vg+sP3J0t2+KwfWH7l7UQHi6W7fFYPrD9ydLdvisH1h+5e1EB4ulu3xWD6w/cnS3b4rB9YfuXtRAeLpbt8Vg+sP3J0t2+KwfWH7l7UQHi6W7fFYPrD9ydLdvisH1h+5e1EB4ulu3xWD6w/cnS3b4rB9YfuXtRAeLpbt8Vg+sP3J0t2+KwfWH7l7UQHi6W7fFYPrD9ydLdvisH1h+5e1EByzYXW3avdq6qvctLJVvvR33UsRjjPkmYw0kke1bRcdqGjbTcZLVX3J0VXE7cdEYnZz2Y4ccrT/B8uNvutLqq4Wyup6ullvJ3JoJBIx2ImcnDgV0Wv0tYLndqa911shlrKThFKRxHy9+OzKAyVPMypgjqIw4NkaHN3hg4PqVm4+gb+0b9q9S8tx9A39o37UB6l47rWzW6glq6egmrZWDqQRY33nuGV7FTCA5xbdomo6/RbbvNaKemu9ZdPcunp8lzInukDGuf34zk47lSfW2rbZLPpOt9z6nUBnhip6mOFzKcslBIeWFxPVwQRnjheqHQV3p9MyUEVVTC4092N2pDvO6MuEge1jzjIBxgkA4z2ryzaI1fc5p9V1zrbTahFRFLT0sVRI+lbHGCAx0pYHcckk7nDPIoC3cteaqtVvqrbXz2yK50VZFTz3A07/FWRPBIlLAd4csYz2rM6Q1tWaijoPG4IKOR1KySsDzjMrvNYwE9o62OwOC9GntPXmFt2u2oqa3vuN0IcaaKR0sEYa3DWbzmguGeZ3R8i1i97L79XSW2aF1vnnwX1sss0jDBO54cZYQ1vWwOqAccAEB1InAJ7lqTdqmi31wtjbk/wAbMnRdD0Lt7f7sYW1wsMcTI3PLi1oaXHtwOaxbdK2Ft+dqUW6L3Rc3cM2OOO/Hf60BlgcgEdvFeep/SKb+WfsXpXmqv0il/ln7EB6VzHbzru/aOsFqt2mJIqe56lucdpgrJBvNpN9pLpN3tIAOPWunLWtoGgbFtG07Lp6+ska0uEtPURO3ZaaZvmyMd2EFAfNlRqLUOyaO4a5su0LVuoBYbjFR3e33+Z0kFbDI9jC6HPonhz8gDsHdwX1uOAwvnfUng4bS77anMuW2B13noZWVtupp7cyGCSpYQWuqSCelGG44j1rruzTU2o9VaXirtXaVqrBeIJH0tZSzDqOlYcGSI++jceLT9vNAbYuEbW9XXvUu0iPZFbNQ3LTttorYy83WvtgPjszXPLWQxEcW8skjjxXd1z7aVsobrSuodT6c1BPprVNsBjprrTxiQuiPOKRhID29uCeCA59s71DetC7TrPoD8q75qawarhq5qSW+Fzq2imp2b7gXu4uY4cBnt5L6CXzrdtlu1fQN7pdr9PqifaBfra18NZQS0rYOlonec2laCd2Qf+LljsP0Dbqt1fQ01eaaem8ZhZMYZ27skW80HceOxwzgjvCArW+jj/bR/wBoL0Lz1vo4/wBtH/aC9CA1DaRtT0lspoKG7ayq5KWirqk0rZms3gx/RueMgd+5j5SFynTXhO6w2gVtRVbO9jF1u1ip3AGulqBAXgDrbrSOJ54Ge5dH2x7GtN7a7BSad1NWV1NBR1YrI30b2teXhjm4OQeGHFZXZtoCg2ZaTpdHWq41dZRURd0D6rdMjWk53ctAzxzz48UBktMakodUWqO5UcU0Dj1Zqadm5LBJ2se3sIWXXmht9LBWT10UYbNUholcPfbucfavSgPDc7l4gxrYqd9RPIcRxM5uPrPYPWsA/XT7bVCn1DZ5aBj/ADZN7faVtQiYJHShvWcACfUsXqDTdLqOBlNWzzMjYd7EZAyfnCA9tsuNPdqKOvpN4wy5LCRjIzzVbl+hS/IPtChabZBZ7dDbaZ73RwN3Wl544UrkD4nL8g+0ID0R+Y35ArdVTmpp5IBPJF0jd3fjOHN9YKuM8xvyBSQHFLrWW91dNHWNuVS+F7o+kkqgSQPlC33Z8WVdA64x1le5gcacQzz9I1m7jiFoF3sN9mudW+Oy1zmumeWuFO8gjPMcF0HZvR1dDp98NbSzU8hqnu3JWFpxgccFAbYvLRelq/25/shepeWi9LV/tz/ZCA9S5jqO5R2Omp2+4dHJNUVFS6R9RD5TImJaQefLC6ctZ1do46pmppPHRTina4eZvZygMforWdx1BXTU1dHTRRxRb4Lcg8wO0+tbsuaW3TUFoprg0G41E80JhYz3PlbhwcCCHAEcxzyuloDG6ijfNZK2OOMvc6B4DQMk8OS0zUmprLZp4JtPUdMytp5CJYzBuHdLe3GF0VaDqfQU9bc6m/srC8OcyQwNiLi4DdBHD1DuQGe0ZqGo1DavHaxsLJTK5gbGeweorYFrlLDbDc7ebZbZ6fcc8yE0kkTQOjI4lzQOeFsaA8sH6dUfyWf3r1Lywfp1R/JZ/evUgNH1dqC3+6bbeLkaCSAHpagA5cD+r4dhXo01qqgfWRWalq3VUL2b0TuJMP8AEcTzA7D3L16u0bS6jpw+LdirI/RykcD6nepRs+jo7LZn0tNIzx6ZoEs2Of8AFHcEBsyqvPRwTU9NHFNJvva0AnvVi7Xy12OFk91qegZI7dadxzsn5gUBrmttcNszHW62OD61wwXDiIh3/KvHoDTNbHM3UlwL4pZWENjzxfn37vWsRSt0RBdpLpV6mFSXvL2RupJN0OPEZ4ccLaWa+0+1w39QQFg5gUsg4IDbFjdSVk9BYq2spX7ksMRcx2M4K9VBX0tzpY62ik6SGUbzHYIyPkKsX63y3Wz1duhe1j6iMsa52cA+vCAwdHbNWVNLDUnVu6ZWNfjxVhxkJpu817b1cLBdq11XLBI0RSdGGjd3QTnHyrwG4a/tpbQx2+jmbA0Rh7IpSHADvwo6Yor27U091utEY3VPWcWxuDQQ0DtHqQG+LyUPnVP7c/YF615KHzqn9ufsCA9a1ibaZoKnmlp5tUUTJYXujkaXHLXNOCDw7CtnXhdY7K9znvs9E5ziXEmnYSSe08EBqF0247NbVc7Pa5tR08kl6qvE4HR5LWyFpLd7hwBIx8pC3C8XiisVBJc7i97KeLz3NaXbo78BY64aF0jdK63XGt09QyVFqnNRSO6Bo6OQtLd7AHE4JxnkeKzkkccsbopWNex43XNcMgjuKA17T20DS+qaw0NjrnVMrW77sRkBo9ZWxrF2PTVk03FLFZrfHTNneZJN3m4n193qWUQFueop6WMzVM8cMY5vkcGgfOV5fd2yf+2aH+kM+9cy8InVNmsFn05R3yilqqauvtI+WNj2NDooXiWRpD3N3iWtIDRkuOBhbh+5Xs7P/wDyNv8AoH70BrWxCgvNK/Vst11XUXqP3akpqcyzvlEbY+ZaXOcBvb44NwOryWz3raZo/T1wktd3uLqeojxlroncc8iD2rNWWw2bTtGaCx26Cipy8yGOJuAXHmflK8930pYL9VUlbdrbFUTUT9+FzhxB7j3j1FAe+grYLjRxV1NvdFM0PZvN3Tg+oqNy/Q3/ACt/tBekAAYAwAvNcv0N/wArf7QQHpHJa7rzX2ltm9gfqbWNzFBbo5WQumLS4B7s4GB8hWxDiAVj77p6yamoTa9Q2qmuFG5weYKiMPYXDkcFAfI8nhQaRd4SkWpmbRqz8hG2nonxdJJ4t4z0bh6LlnexxxzX1NoLaDpTaZYG6n0bc219tdM+ATNaQC9nnDj3ZXD5fB2YfCVh1GzZ7bPyEFp6F48j0PjPRuHod7ezkjjur6BsOnLFpegFq07aaW3UYe6QQU0YYzedzOB2lAY/UGvtM6Wq20d8rnU0kjd5mYyQ4eorK2i7UV8t8Vzt73Pp5gSxzmlu8O/BVi/aZsepoI6a90EdSyJ4kZvcC0j1hZGKKOGNsUTGsYxoa1rRgADsCAmiIgCIiAIiIAiIgCIiAIiIAiIgCIiAIiIAiIgCIiAIiIAiIgCIiAIiIAiIgCIiAIiIAiIgCIiAIiIAiIgCIiAIiIAiIgCIiAIiIAiIgCIiAIiIAiIgItYxgwxoaPUMKSxfulcc48Rg+vP4VLx25HnQQfXn8KWuQ2ZJW5YmTNDHjIyD7F4fHLj8Rg+vP4U8dufxGD68/hU2IzGSRY3x65/EYPrz+FV8euXxGD68/hSxOYyKoeSx/jty+IwfXn8Kp49c/iMH15/ClmLmRHJVWN8eufxGD68/hVfHrl8Rg+vP4UsMyMiix3j1y+IwfXn8Kp49c/iMH15/ClhcySg+Fkj2PcDmM5bxXg8eufxGD68/hTxy5fEYPrz+FRa4bsZJFjvHrl8Rg+vP4VbkutdF59HB9efwpYJ3Mqiw3u3V/E4Prj+FPdur+JwfXH8KEmZRYb3bq/icH1x/Cnu3V/E4Prj+FAZlFhTfKoc6SD68/hT3cqvikH15/CgMvJG2QAPGQHBw+UHIU1hvdyqP/VIPrz+FPdyq+KQfXn8KAzKLC+7lV8Ug+vP4UN9qhzpKf68/hQGaRYb3cq/ikH15/Cnu5Vn/AKpB9efwoDMosN7t1fxOD68/hT3cq/icH15/CgMyoSxtmYY3+aefFYj3cqhzpIOP/bn8Kr7t1Y/6pB9efwoDMAYGB2Kqw3u5Vn/qkH15/Cqe7lV8Ug+vP4UBmlRYb3cqvikH15/ChvlUOdJT8f8Atz+FAZpW4omRl7mjjI7ed8vL+5Yr3bq/ikH15/Cnu3V/E4Prz+FAZlFhvdurP/U4Prz+FPdur+JwfXn8KAzKLC+7lV8Ug+vP4VX3bq/icH15/CgMyiw3u5V/E4Prz+FPdyr+JwfXn8KAzKLDe7lX8Tg+vP4VT3cqhzpIPrz+FAZdsTGyOlA6zwATnuU1hvdur+JwfXn8KC+VZ5UkH15/CgMwqrDe7dX8Tg+vP4U93Kv4nB9efwoDMrz1dBRV7WsrqSGdrTlokYHAH51jvdyr+JwfXn8Ke7dX8Ug+vP4UBf8Ayb0//wCxaL6hv3J+Ten/AP2JQ/UN+5WPdyqH/VIPrz+FPdyqP/VIPrz+FAZWCngpYmwU0TY42DDWNGAB6griwvu5VfFIPrz+FV926v4nB9efwoDMYHcqrDe7lX8Tg+vP4U93Kv4nB9efwoDMq3FEyLfLR57i4/KsSL5VHlSQfXn8Kr7uVfxOD68/hQGZRYb3cq/ikH15/Cnu5V/E4Prz+FAZlFhvdyr+JwfXn8Ke7lX8Ug+vP4UBmUWF93an4pB9efwqvu3V/FIPrz+FAZdzGPxvsDscRkZwpLDe7lX8Ug+vP4U926s/9Ug+vP4UBmUWG926v4nB9efwp7uVfxOD68/hQGZUJYmTMMcgy044Z9axPu5VfFIPrz+FPdur+JwfXH8KAzA4DCqsN7t1fxOD68/hT3cq+fikH15/CgMyiwvu5VfFIPrz+FV926vl4nB9efwoDMosN7uVfxOD68/hT3cq/icH15/CgMyiwwvlWeVJB9efwp7t1fxOD68/hQGZRYb3cq/ikH15/Cnu3V/E4Prj+FAZlFhvdur+JwfXn8Ke7lX8Ug+vP4UBmUWF93Kr4pB9efwqvu3V/E4Prz+FAZlFhvdyr+JwfXn8Ke7lX8Tg+vP4UBmUWG926v4nB9efwp7uVfxOD68/hQGZRYb3bq/icH15/Cnu5V/E4Prz+FAZlFhvdyr+JwfXn8Ke7lX8Tg+vP4UBmUWG93Kv4nB9efwp7uVfxOD68/hQGZRYb3cq/icH15/Cnu5V/E4Prz+FAZlFhvdyr+JwfXn8Kp7uVR/6pB9efwoDNIsN7uVfxSD68/hVPdyq+KQfXn8KAzSLC+7lV8Ug+vP4U93Kr4pB9efwoDNIsL7uVXxSD68/hVfdur+JwfXn8KAzKLDe7lX8Tg+vP4U93Kv4nB9efwoDMosN7uVfxOD68/hT3cq/icH15/CgMyiw3u5V/E4Prz+FPdur+JwfXn8KAzKLDe7lX8Tg+vP4U93Kv4nB9efwoDMosN7uVfxOD68/hT3cq+XikH15/CgMyiw3u5VD/qkH15/Cnu5Vn/qkH15/CgMyiwvu5VnlSQfXn8KuR3W4SjMdFAcf9sfwoDLIsZ4/c/iVP9cfwp4/c/iVP9cfwoRcyaLGeP3P4lT/AFx/Cnj9z+JU/wBcfwoLoyaLGeP3P4lT/XH8KeP3P4lT/XH8KC6Mmixnj9z+JU/1x/Cnj9z+JU/1x/CgujJosZ4/c/iVP9cfwp4/c/iVP9cfwoLoyaLGeP3P4lT/AFx/Cnj9z+JU/wBcfwoLoyaLGeP3P4lT/XH8KeP3P4lT/XH8KC6Mmixnj9z+JU/1x/Cnj9z+JU/1x/CgujJosZ4/c/iVP9cfwp4/c/iVP9cfwoLoyaLGeP3P4lT/AFx/Cnj9z+JU/wBcfwoLokqoiuVCIiAIiIAiIgCIiAIiIAiIgCtNANwhz6/sV1WWfvjD8h+xAZQ4A7EAHPCi9nVySUbHwHWPtVC5MYPcqAjexwUGMPEZKpg9IBnsQFajAY08uuz+0FNwGOQVmqYSxvE+kZ/aCuPYS3mUBJrRjOAjQMngFFrXbo6xRjCM9Y80BXDS7GAoVPBjccOuFUNPSHioVTSWN4+/agLzgMckaBjkFF7Tuk72EY07vPmgJN5KmRv7uB7FRjDjn2qIYelJ3uxAKjg1hAx5Rg/rCuOAA5BWapp3GcT6Rn9oK49pLcZKAkGtxyCo0NOeAVGtOBlxRrSMjPDJQFQBvEYCt1J3WsLeHXAUmt654q3VtJYzifSNQF8gAZwEbgjkFGRhI4OKRtIHNASbyTLd7BwosaQDx7VHcPSkl3YgFRwawjh5Ro/rCuO4DOArNUDuM4/rGf2grj2HdxvFATABHIKjQD2D2KjWkNxlUY0gczzQFR52MD2KFRgBmOHXCqGnfPFQq2ktYM/rAgLzgMcgjQMcgoyNcW8CjGHHMoCTe/CoMb2OGVRrTg8TzURGelJ3kBWc7obg4y9oPyZU3YAyAFZqWuwzj+sb9qnIw7vNATG7gEgexGgY5BRazLRklGMOOfagGG72CAo1B3Ws3eGXgKob1+at1bTux4+GP70BfO6ByCDdPYPYoPYd08VVjDu80BJobjiAqAt3t3gotj4cyqBhEvPsQCc7oZu8MvaD7VcdugcgrNSD5Pj+sb9quPZw5lATw3uCoA054BREeWjiUYzAPE80BUBu9jAUKg7oZg4y8AqoYekPWUKppxHx5yD+9AXSBzPeqtDSOQUHsODxPtVWMO7zQEm8uSoCN/dwFRrDjzlBrHCY8eGEBWc7rWbvDMjQfarpOBwVipaQI8H9Y37VccwgEgoCYII4qgDSOQUQwkZzzVGx8OJKAqA0O5DChOd3c3eGXgfaqhnWI3lCpacR/tB9hQF87oHYjcEch7FF7Tu80Yw4zlASbyVAW7xHDKoxhxz7VERkSk7xQCc7oZjhl7R/WrpPDgrFS0+T4/rG/arjmYGcoCfMcVRobjkFTcJHNUZHwIyUAAGeQwozuDejwcZeAf60DBvlpJwo1LDiPj+sH2FAXjugZ4I3BHIKD2Hd4FGMwM5KAmwgjsyqZaXY4KLGHd5qLYyJT1uYQFZzu7mOAL2j+tXCAOwexWahp8nx/WN+1XHNwMgoCXV7ggAxkgKgYCOaoyPgQXHmgJDGeIGPkVuc7vR7pxl4B+TBVRHlxG8fardSw+SAJPlB9hQF8hoGeCANI5KD2HHNVaw4zkoCTCMKgI3iMqLGHd5qjYyJTxygKzkjo8Hm8AqbgAOAHsVipa4mLj78K65uBklAS6vcEAaeOAqbnDOVFjDu8T2lASw0nkFCdxaYwO14B9hVQw7+M/1q3UNOYhn9aPsKAvuwBkAI0AjOAoPb61VjOr5xQEmgEZICoC3f3eHsVGM6vMqLYyJSc9iATndMeOGXgFXCB3BWakOzF+0CuOZjiCgJgDuCoN0jsVNzI5lRZHkcSUBIY3sYChM4tMe6cZeB/UVUMO8Rk4UKhp8kM/rB9hQF5/JGYxlQkYd3mqsacZ3jxQEm8GrFxcJ5/wBof7lkmsIbzWNj/SKj9of7kIL2T3pk96IrlRk96ZPeiIBk96ZPeiIBk96ZPeiIBk96ZPeiIBk96ZPeiIBk96ZPeiIBk96ZPeiIBk96ZPeiIBk96ZPeiIAiIgCIiAIiIAiIgCIiAIiIAiIgCssGbjD8h+xXlYBxcYfn+xVZKMlKHbh4hG9LujlyCrI7qHqlRZKd1o6N3IdigsVZ0nHGOap1um59iqx2CTunn3IXeWHA8kBCpD9xv7Rn9oKZMmDwChVPwxnA+kZ/aCuud1T1T7EBQGTdHAKjTIc8BzUmu4eaeSo1/E9U8+5AR6wkJ4clGr3gxmMee1TD/KHqn2KFU7qN4e/agJyF247gqsL91vDsSV3UPBGOwxvVPJAUaZDnAHNAZOlPLGFWOTIOAeaoZMS4weSAhUl/Rs4D0jP7QVx5kwcAclbqn9RnA+kZ/aCuveQDhpQFG7+6MgclRpec8O1SY8kDLTyUWPPHqn2ICg3+k+ZRqN/cbw9+FMO8qeqeXcoVTyGNOD54QFx5eGnACNL90cBySR+GE7pRrsNHA8u5AGmTHIc1EF/Snh2KschIPVPNUL8SeaeSAjUl+4wY/WM/tBXH9IGnACt1T+qzgfSM/tBXXuw08D7EBRu+QM4VGmTHIc1JryW53SqMcSPNI+ZARy/pTwHJRqN7dZw9+FMO8qeqeXcoVL8NZ1ffhAXHl+6eQRpeGjh2JK7qHqn2I153W4aeSAowvxy7UBeZSOGFVj+Gd081HfPSngeSAjUb+6zl6Rv2qbzJuO4DkoVL+qzgfSN+1Tkcd0ndPLuQFRv4GMclQF+OQHFVa/qg7p5dypHJkHqnmexAU63SHlyUakyAR4x6QKe95QndPLuUKp2BHwPpAgJvL9w8FVheGjh2I92WkYPFVa7DRw7EBRheRy7VTr9IeXJSY7hyUQ/yhGCgIVBk3Y8Y9I37VNxk3TwCjUuAEfA+kb9qm9/UPVPsQAGTA4BUaZDngOakH8PNPLuVGuODwPNAUG/0p5clbqek8ny9IP71dDuuSrdSciPj78JYFx5eGO4BG7+6OXJHuw054qod1RwPJCbEY3Ox38UBk6U8uSNfgckD/KE4PJCCFTv4j5ekb9quOMm6eA5K3UP4R/tG/arjnZaQgAMmBwCowyY5KTXjHFRY88QWn2ICjQ/fOcclCoL8R8P1g+wq4H+UPVPLuUKl/CLgfSD7CgJydJuHkqt390cOxJXdQ8D7FVruqOqeXcgIx9J2hB0nSnOMKrHkjzTz7lQP8qRhAQqN/EfL0jftU3GTdPAKFQ7jEP8AtG/arkj8A9V3sQAGQgcAqN6THJS3+Hmn2KLHkjzSOPcgKDf6R3AclCoLx0X7QfYVMO8qTun2KNS7HRcD6QfYUBOQv3DwCq0v3RwSR3UPAqrXYb5p9iApGX47OaoDIZTwCrG87vFp59yoHjpSMHkgIVG/5Ll6QfapuMmDwChUuwYuB9I37VOR+WHqu9iArmTA4BUaZMdnNSDzjO6fYosc7HJ3PuQAFwkPAclbqC8mLh+sH2FTDvKE7p5dypUO4w8D6QfYUBKQybp4BVHSbo4diSv6hwCqh3VHA8kBGMvxy7UBk6QjAVY3Et80qm/iUjCAhUb/AJLl6QKcheWngFGodgxZHN4U5Hnd80+xAAZMcgjQ/AVQ84zun2KjX9XkUBEdJvlRqMgwg/wg+wrG6p1VZNE2Ks1Vqat8UtlBH0tTP0bn7je/daCT8wXhvuvtJWbRbto1yvUMWnKSm90Za7i5gg3Cd4BuSfUAMk8MZ4KLq1xa5sb2v7CjRIAvHZ77bNQ2ejvtomdNRV8LKinkMbmF8bhkHDgCOHeF6pquCmgkqamRsMUTC+R73BrWNAyXEngAB2qW7AqOlxyVRv8ASHh2Lmlo8I3ZRd7zTWWkvNxa2tn8Xo7nPZqyG1VcucBkNe+IUspJ4NDJDvHlldLbJmR2Gk44H1J4jwIVG/mLl6QKbzJu8goVDjmLqE9cKcjyBxaUFyoMmBwCiwyY5DiptJ3QcFeO43a32K21V2vNbBRUNFE+eoqJ3hkcUbRlz3OPAAAZJKN2B6cyb+OCjUb+9Dy9IPsKjSVlPXRRVlHIJYZ2Nkjkactc0jIcD3EKdQT5E4PpP7ij0C1JS7+4eSqN/dAGFGR43COPFTa7qgYPJARZv7pyFjo/0io/aH+5ZJjju43SsZFnxioP/aH+5SirL6IisQEREAREQBERAEREAREQBERAEREAREQBERAEREAREQBERAEREAREQBERAEREAVlvC4RZ7irytNAdXxAjIOfsUEmSc9m5549qNczdHXHLvVuSmp90nom8kZTU+4D0TeIVSxca9nE74596jvN6bzhy71FtNTkeibzVBT04lI6JvAZQFal7CxmHt9Izt9YVx7m7p6w9qsT08G43EQ9Iz+0FN1PThpIiagLjXt3R1h7Ua9vHrDn3q2IYN0ZiajYqfBIjHAoRcmHND/Ob7Vbqnt3G9YeeO1BBT73ohlQqYINxvkh54Qk9D3MLD1hy70Dm7vnD2q2+CnDSDG1VFPBujyTfYgKxOaM9ZvPvTfb0vFwxjvUI4IMHETeaoIYDMR0TeAQFap7dxnWHpGdvrCuve3dPWHtViogg3G+Sb6RnZ/GCm6npw04hagJtewAddvLvVWvZx67eferYp6YAeSaqMgpckCNmc4+dAXA9m+euPardU9m43rDzx2oKem3yOibnGVbqaen3GgRNxvhAeh72Fh6w9qq17N0dYe1W3U9PunyLeSCGnDQeiHsQE2Fgz1xz71TpG9KcvbjHeospoMHyTeaoIKcyFvQt5IClU9hbHh7fSM7fWrr3s3Th7farNRTU+6zyTfSN+1TdTwbp8i0/MgLjXs3R12+1GvZjz28+9QbTU+6MwtHzKjaemwcRN5oCQezfPXb7VCqewtZh7fPHaqClp9/PRBQqqWAMZiMeeEB6XvZunrt9qNewtHWHtUDS0+D5JqCnpwPRN9iAlG5oBy8c+9UD29Keu3GO9RZT0/HETeKeLU+/6FqApUvYejw4ekb2+tXXOaW+cPavPPTQbrCI246Rv2q46ng3T5JqAuBzd3G8PaqMc0A9ZvtUW08AA8k1UZTU+D5NvNATc9gdkvb7VaqnMc2PD2+kHapGnp8+iaVbnp4cRjom+kCA9BczGN9vtVN5mPPb7VF1NT4J6NvBU8Up8ejCAmHsAzvt9qbzd/PSNx8qttpafl0TSqing3/Qt4epAUqXMxHh49K3t9auvc3HnD2qxPTQbrCIm+kb9quOp4CCOjagJhzd3zh7VTeZy3x7VB0NLGwuexgaBzPALS9Z6kp4qRlo09V0z7jXPMWY3h5gi98/Azg45Z71kpUpVZWRjnVjBXZkb1r6xWerdQRCavrWjjT0rd8j+UeQWHdtEu04a6PRVYA14cQZ25xx7MLxWu10log6GkbjI8pIfOkPaXHmV6m8CV1o4KklZ6s0Xiqm6djJW/abZJpBBdqWqtMrjgCpZ1fpDgtsinhmjbLFMyRjxlrmuBBHyrntTFBKzcqImva7gWubkLF01He9PVBm0nPAIJc9JR1W8YQfhsIyWn1cisVTh8WrwdmTDHOLyyOsOcz4bfajSz4bfauXO/LWqIdVaqbTnjltJSta0fSyVOC4a6tb9+G40N0jb+rq4ix7h3B7OA9hWF8PnyZm9Ki2dKnc3yfWHpG9vrV3eb8Ie1ahbNeafuDX0946O0V1IGzTQ1bwxoYDxe156rmDtIPDtwtQsnhSbAdWbTYNkWi9b0mptRSxSTSssscldT0zGYyZZ4g6JnE44u5g5wtKcJU3aSNmMlNXR17fZ8Ie1Va9uPOHtVrxWDkYgpNpqfHCMKpYkHt3z1h7VbqnNxF1h6QdvqKqKaAPPkhxUKmngAj8kPSD7CgL7nsxneb7UD2ADL2+1QdTQY9E1BTQY9E1ATbIzHnt596oHN3yd5vtUG0tPx8i32IKeDfI6FvBAUqnNPRYcPSN7fWrr3NI85vtViengAj8k30jftVx9PAB6FqAub7MecPaqNezHnD2qApoOfRNRtPBj0TUBIObv+cPardU5p6Lrj0g7fUUFPT73oWqNRTQeTHRN9IPsKAvuezdPWHtVQ9mPPb7VbdTU4GTE1BT0+6PJNwgJtewDz2+1UD2b567farbaemIz0TUFPTmQjoW8AgFS5pMRDx6Rvb61de9pbwc32qxPTQDo/JN9I1TfTU4BPRNQFwPZgZe32o17Mee3n3qApqcjPRNVGU1MRwiagJh7N/O+32q3UuaTDhw9KO31FBTU2+R0LcqNRTQDosRN9IPsKAvuezHnN9qqHsx57farT6anDSehaqimpyATE1ATY9mMb7faqB7N89ZvtUG09Nj0TeaCCDfLehbwCApUubvRHeHnjtV1z2Eee32qxPTwDo/JN9I1XHU1OB6FqAnvs3fPHLvUQ9u75w9qoKWnxnomqni9OeUTUBzXwkuidsV1QJC3cNJh3HsLguE6nq5J9E6k2CuqnSM01Z7lqCduThtsfb3OpIz8IdLLJ88PqX1xcbLabtSS2652+CqpphuyQysDmPHrBXmfpHS8lRV1T7DQmeuohbqqQwjempQCBC48yzrO4esrDCm1Kb62+V/yTJ3yvmr/O34Pkq+a51tsws9jt1rutwlp9oulKO2WCAVLz4rdWtAPRDOGZjJPDGSAu87YNO3WDwfr1pmknrLpU0lljgqZXPL56yKMM6ckni5z42yZ795ZG/bKKfUet9L3yvqaEWLSGam22yOjw9lZjdbJ0m9wa1vJoaOPaugloILSAQRg57VZwUqeT+eH7kyneo5nIK7aDsZp9lNpqLmLXe7RNHSw0tpiijqJJJTuiNjYOe8D3gYwuQ3q+19ztmvNpd72jX+z6x03ql9tslpgvEkEDKeOWJsEDqEOEc4lbI7L3McetkEbvD6Rt2ybZnZtQu1Za9EWilu73ukNVHTgPDnc3DsB9YCu3PZls+vWpINX3XSFsqr1SlpirZIAZGlvmnPaRngTxWSbcpOXX5eRWKyxUVsj5Q1u7V9wsm1LaG7aLquhu+m71SMtMVNd5o6ah3mt6RvQB3RvBJPB7SB2L07Wa2+7NoNp+n7HtH1TRUTbLpy6traq8T1M9DPU3LoqiWJ8rnGNpY3ixuGc+rxX1tUaO0tVU9fS1FgoZIbpIJq2N0IIqHjk547StZ2pbJbLtL01cbG5lNQ1V0NCyorPFxI58FNVMnEThkZadxw9W8Sq01lk3yd/mRTjpBSeq3fU+f9S19XoCO/2jZ1tE1FebdU6QfdKyeovk9xkoalpG7NHM97nRb/AC3AQOOQAvFt31VHrO21WkKLWVbV0tXshud1qaeguUjRLK3c3JXmNwyTuuBzxIJB4Er6k0zs10Ho+21Vr07pO2UFPXjFXHDAA2cYwQ7PMY7OSsWbZLs0062Rtk0RZ6MSwy0z+ipmjehk8+M/xTjiOSThmlJ3um0/g38tSkYtOLT2+9vnofKV3rNV3C+aa2W6Yu8ztO27RtLcKV9Traqtbp6g7odJ41G7pJtzOCwvIHaFs+gotb6w2saO0xtA2j19bBbdHRXWVlkvM0VLW1TLhUsjke+MtMpDGBjs9V/vgcBd+uGxvZZdrZRWa5aEtFRQ27IpIXQDEAPMN7QD3clmabSOlrTU0dZbNPUFLNTU7aCF8ULWGOnBc4RDHJuSTjvKu23LN8TItNFsZVxjGN2QH51eD2YB3hy71adDABxhZ7FJsEG76JvsUAkx7McHt4+tY2L08/7Qr3R08GM9E3gvDF6ec/8AaFAXkRFcoEREAREQBERAEREAREQBERAEREAREQBERAEREAREQBERAEREAREQBERAEREAVpoxcIePYfsV1Wh++EGO4/YqslbmSe3qO6x5KjWkxtG8eQVXb247lyRu9uNxjkFBYi1pHHeOM96DPSn5FEukAOOJ48Fy/ZRtpl2g6z1loq66bNmuOk63xbddUCXxmIk7kowBgEAHHZvBYZ14U6kaUnrLb3G5h8BiMVRq4ijG8aaTl4JuydvNnUKgHoxg+/Z/aCm8Hcd8i4rdfCFlbr7VmjLVpV1ZS6Rt5r6u4CctaZRxEON3GT357+HBcoo/Dj2gVtmbqWLwer5NZCzpX18L5XwNjBw49J0W7w+XnwXOqccwVKWWUuvJvZ2ey6o9Dg+w/G8dHPSpK3q7yjH21eK1a1a1S3PsAAlgUIARv57XlcqufhJ7PbTsiotr1RVyG3XFrW0lM1mZ5pz+pa0ni7n6sDPJcysnhqXSnvdDT7RdjmodL2e5TNgp7lUQybhc49XzmNBHEciVnqcVwlOrGlKert5a7Xeyv4mvhex3GsZCpOlQfqNpptJtx9pJNpya5pXPqRo8u71tUanzGD+OFbbUNfCKqFwex8fSMcORaRkL5Sq/DP17W3m8WzS+wG9X2Gz3GehkqaAyzsLopHNBJZEcE4zj1qcZxKhgHFVm/W2sm9vI1eD9neIcdc/Qop5LZm5Rild2WsmlufWjxxyVU5wvnyq8JvVVo2MXTatqnZLcbNU26tipW2qte+CSVj5GM6QF7AcDeJ5ccc1sbfCItdbsEk222a2irZDTGSWgdNuFkzTh8Rdg8QQeOOIwe1QuJ4Z39baOZ+XUzVOy3FacVU7q8XU7q6aaz75bpte/Y6/GCG/KqN4zO+RcF2k+E1cdC6G0fqq26Ifd6nVu4I6CKd3SMc5pIa3dYS854YAysDozww7lPq+3ab2o7Jb5oqG8PEFFW1scgY+bsad9jeHrGVT9Ywaq9y5a6LZ21V1rtrc2afYrjdbDPFU6V4rNpmjmeRtStG+Z2s9kz6XqODW8f1jP7QVx3Jy+d9tHhQag2dbQ4dnumNl1Zqqpko4q9po5HukLXE8AxjHHhjmvdsb8J9+0bVdVoLWWhrjoy/R05q6elrw5pnhHMgPa12e3zcY7VaHFcLOt6OpetdrZ2uvHYxS7IcYjgVxF0l3bjn0lFyy/9Zb5reNjvOMjCgDjgOHyL5q1f4Y1ZDqeu03ss2VX3WzbTIYa2roYnuiY8djSxriRz4nHJbvsu8I/T207SF8vVHbJ6C86cjeblaKvqSxSNaSW57RkEZxkEcQFFHjGErScac9r9dbb26+4jE9j+NYTDLFVqNou3NNrN7OaKd4p3Vm0tzr4AE5OObAo1PmN/lhfPV38LP3K2KW/bC7Rol8drBS+ICrxuDewTv7vdx5Latc+EBa7Dsatu16x21t2pK+SmDacThhb0jsEFwB4tOQR3hTHiuEmptT9lJvyezKy7JcZpuClRfrzdNbWzreN+p2Bw6rvkVAMsC4jtd29612fw2Wq0xsju+qaa6UZqp5aNkjmU3LquLGOHInnjktN2X+F3rjaVfrPR0Ow27ts9yqvF5LvC6Wampxg5c54j3eHyjmo/VcMsR6K28/k/rYz0exfGMRgZcRpwj3Ud3ngrb6NOV76Oytd20PqFpwMetWwHGd3HsUmnJIBVG73Tn+SF0jyiI1DXbrOsfSM+0K49mRneKhUE7rP2jPtCm7pO8IWKhnDG8VRseM9c81UF+MoN5AUb5yhVeYz+WFNvnKFV5jP5YQF1zc++Kpu8OfYqvJDSVHecQMdyAMYcecVTc8rnePJVaXYxkKmHb+c9iAhUN6rOsfSN+1XHtO47rdit1BIbHy9I37VcfvFpxjkgKtbwHWPIKLG8HDePnFSaXboHDkoxh2CDjzsoCu51vOKt1LMiMZPpB2q4d5W6suDY/2gQFyRmGOOTyVQ3IHE8gjg5zSPmQZ3RjsGEAY3GeJ9qpunpCd48lUEg81EF3ScwgI1DTux9Y+kb9qw2r9UQ6boouijE9fWP6GkgzjffjiT3NA4lZmo3i2MtwfKN5fKuc6yiqDtDtxqN3ofEJDACDxf0nWwfhYx8y2cLSjWqqMtjBiKkqcLxPBLYJbw81Ora+S6yv4+LvcfFo/UI/NOO8gle2itFrtx3qC3U9OcbuYow3h3cF7DzyhI7F21ZaI5bb3CiefNSWE1Dqy16ZrrRQXGOdz73UOpad0bQWse1u8S8kjAx3Ao5KO5FnyM0WtcAXccHKi1rcnBzj1Lllo8IOx3uvoxHpXUFLYLjXG3UGo5ooPEaqo3t1rA0SmZm87gC+Noz2ry6b8IinvxpK92zLVVu0/cLrNaKW+1L6J1NLPHK+P0cdQ6doc6N+C6MDhxxkZqrSaZkcbq9jsCcRxCIThXZQ0LbTsv0ptY0PX6b1Xam1tO+IuA3ixwxxwHDBC4D4OH+DrZsY2q3XVGmtX3iXQ2prLDPR1FJdZqC4UE5eXCB4hcGzs3Xc3DhgcM5X1PqKsFJaZyGF8sw6CFjeJfI/g1oHbxK6Fp6hms9gt1qnc0vo6WKB7hyLmsAJHqyubxBJKN9zcwerZzgbF9c0AJ0/4QOs4GjlDWMpatnzmSIv8A/EjNNeEfbCfENpel7rE3kyvsz2SH/TjeB/4V1gl27nsUWEgLmG+cq/KHwj7YT47s+0td2N4mSjur4Xn5GPaftVubbLrm3OY3UWwrU8TA7LpqKWKojB+YgrrY4nKhVEgMIOOugOVt8JTQ7HdBdrRqa1SjzhVWiTdH+kMhZu3bedkNxe2GDXduZKRxinLonD5Q4BbzK1kse69rXg9jgCD8xWJrtF6RusZZctLWmo3hx6SjjJ9uMoC9Q6t0rcmtdbtSWuoDuXR1cbj7AVk2EOeXtIc1wBBByCud1fg+7Ha1zpRoWgp5XfraVz4X+1pCxh8HHSFM8vseptX2mTmPF71K5rfka8kIDqtQeDD3SN+1XH+auRz7JtpdtDX6f2+agOHANhudJT1EY7hlrWuPtU/cXwm7b6DXGh70xo8yptE9I8/K9sjwfl3UB1oclFvauUDVnhIW07ty2SaYubG+/tOpTvu/0J4YwPpKo216soG/+kWwHXlCAMulpm0VwaRn3raWokkPyFoPqQHVQOv8itVW95PBPpB9hXLW+E1svpZXR312prA5vBxvWlrlQMaf2k0DWEesEhZW27fNiepejZYNr2jbhI2UB0VPe6d8jTg8HMD94H1EZQHQn5IwqtZ1RxK12XWlmy0Q10Eu8MtLH5BHqPIrKW+7QV0RkiljOOwHiocktAe1jBu+cVBrXdKeseSRlxGcjCmARIT6lILdQ0+T6x9I37Vcew7p6xUKgu8nwHpG/apOLw3sQFQw4HWKNZw84oC/HMIwv7SEBQMHSE5OVCoafJdY+kH2FTBd0pGRyUKgu8lnHpB9hQE5GuDD1ipBuQOJVJC7cPBSaXbowEBFjOHM81ENd0rut2KTd/dyjc9I7PcgLdQ13k8u/WN+1XHsO6esVbnc7MQ4ekarj+k3exAGs6vnFUjYcZ3jzVW9Ju9ipH0mDy5oAGeUJyVYudW232+ese3eELHSEd+BnCvt3+kOcLG6sc1mm7i57gMU7xk+sIQ9j8tdq3+EZ8IrSO1PU2nrFW2YWy33CWnpoZaEEsjaeA3uZKhpX/CS+EfqFlwjqblo23e59FJVMdVUr2+MOb+rbh3Fx7F8p+EA98e2rWQD90+60/b61oAkqXDHSAg8OaFLs/UK77YduG0/WNojte1ar0pDWaTobvNBQwgxGaUdbAdkgZWUfp/wgnwmY+E/qDAGerCwLlFku7bTqbRxD2jxnZ5bgd488ELqsesoBYJZDMMtJAw71Bes4bw2GLwyqZT5/wAc41i8FjpUqcrRsjU9VV+32ywufH4Smp5S2Nz8YaBwXPhtI8IOpAJ8ILVODkdWYt+xZfW2rxUzQRtmBD2EHDueQubW+6h0jY3PIwe/1r0eG4Bg3G86Zwlx3iklm7xm+V2o9usVD40fCI1rvlucCvcF9a/4O/X+sdoWxW53DW+prhfbjRX+qo/Gq2Z0shjaG7oyezivjK53JptgBf7wr6f/AMFnU9Lsg1lT5z0GrahvyZijP964HaTh1DB0oSowtdnq+ynEMVjatSOJneyPtIcThQnafJDP6wfYVIZ7FGo3h0PL0g+wrx57Ym+PqnrFSDcNzvFRO+QQSFLrEcCMICMTer5x5rHRenqB/wBoVkIt/d7Oax0Pp6j9of7lKIZfREVioREQBERAEREAREQBERAEREAREQBERAEREAREQBERAEREAREQBERAEREAREQBWmfvjB8h+xXVbaQLlDxHJ32KGStzIPcN0gqrXdRuB2BH4weXJVZjcby5BVLFtnHeXybtbu9PsF8JSk2mzsbFadWWmWlq3BuA6piadwnsyeqPmX1nHjeK0DbLsS0ftusdLYNVy1UUdJUCoikpXhsgPIjJB4EFcri2FrYminhv8kWmr7ePyPT9keKYThfEf/kU3h6kZQqW3ytcvFOzOJ7IdP1I2C672j3SI+6OsH1lcXPHWEQDhGMnsxyXN9j+zbwndabG7ZQ6Q1/aLfpC5QyRR0skLOmbEZHB/W3d7Od4819nz6HsrNC/kFD0kNuNKKAFhAe2MjdyD38VHZrs9suy7RVu0PY6qonora1zYpKlwdId5xcckADmT2Lnx4BF4iLnJ5FBR0bV3e7v4M9S+3/o1DFVMNCMqlStGUFOCmowhGUY2vtJeql7z5e2r6Do9jdFsYsFxq3VenrLfofdGonHUc8kEucOQHnc19H6s13srtFBQVOr7xaHU1TVRNozIWSDpSOoQOw+tZrXGhNLbRdO1GmNWW6KuoKkDeY7mCDkEHsIK45pjwJtklgv1PfKytvd5FG8SwUtwq+kgY8Hqndx2LP6Li8LWmsNCLhNp3b2srWtzXQ0o8Z4TxvCU58ar1IVqTm/Uin3mduW91kd3ro1Y70+eOelMsLg5j4y5jh2gjgV8C7LbXt1ud/16/ZLr2yWGibqiuNTFXtjL3ydO7iN4Hgvv4sj3OgAa1gbugN4YHLgvm+9eA1s1uN3uF8bq3VNLLc62Wsljp6xrGB8jy8gAN5ZccKvGcDicXUpToK+W97SyvW3MdiOOcN4RDFUcfNRVRRyuVJVVpK+sW0tuZrW3mDX9D4J1zpdpmpLffL2240vSVVCGCMs8Zjw3DQB/UuS7QoLlsJ0leNK4mdpTaHZYK6ha3JZTVvRjpG9wznPD+5fUdJ4JOg6XZxdNmUmotQ1Nuu1VFVzTT1QfMx8b2uAaSMAZaOxbXtK2FaL2o6Co9n+onVLaSgjijp6mFzRPHuN3chxBHEc+C0cXwbFYiE6lNKNRxild305pvxXzO/wjttwrhU44Wq3Uw7rSnNKGRWai4yjFNpOMlt005nzxtDkji034PL5XtYwXSi3i44AA55K3bwzrvp+r2fWe2UlVSVV2nvVJ4lHE9r5C4SNyRjiOC3jXngzaJ2g6Q0/o26Xe7U9JptobSS00zWynAxlxIPH5MLD7P8AwPdluhNT0+qHV95vlXRdalZdKoSxwP8AhtGBxVpcOx0nUw6isk3H1r6qyinpbw0MFLtFwBTocRq1p97QlVkoKGk805SjeV9N9dGcY2oWjafdfCXslHs2vNNadQfktS5mqWNe0NDTvAggroOh9g+1Sgvl92m7V9X0151EyyVFBbo6OMNY0Fh63AAAnPYF2Ct2Sabl2qQ7XnVtY27Q0Tbc2EPb0HR554xnPHvW8bo3eXAhblDgkXKpUrN3bbWrsr7O3U5XEe3tVYWhhMBGCSpRhOTgs+95RU98rPnHwMNQaWpNmE9lqKqkpL3R3CcXOOZ7WSGTfPWdnmtMpayz6g8I7aXedHFk1sg0z4vcKiBvkpakA5yRzcBgfMuo7QfBC2X6/wBQS6mE12sVbVZdVOtVR0LZ3fCcMc1uGgdhmhNnGjq7Rul6KSGC6RubW1Tnb1RO5zcF7nHt7flWpDh+Nq0qeHqxio007NP2nZxWnLfU6GI7ScChWxPFcPOpKtibJ03FKMLyi5PNf1rW9VWVtL7Hx3fYo6jwOtM08jcskv7WkeoyheDa3De9jdqvWxKvE0mnrzc6W8adkPKJpf5SL1AE/wD+5X1nUeC/oWo2cW/Zg66XYW221gropelb0xeHbwBO7jGfUs3ti2HaO2yW620ep3VUD7XUNlpp6VwbKMY6uSDwOFrVOz+KlRlKFlUait90laS/B3MH/UXhdHG04Vs0sO6tWpJW1TbUqcl4q1mujaNipmj9zeDIBxaxzH/Zrj3gIgf4v1sAaP0uo7P4y71HaKeKxssQMnQMp/Fw4+du7u77VrWyTZZYdjujYNF6bqqypooJHytfVODpCXHJyWgBeleHm8bGv/qote9tfg+aR4rhlwfF4LXPUqwnHTS0c97v/wCyNwaQDx71Jp8qeHvQqN58u1SDgHknuC37WPMFuoed1nV/WM+0K45/8UqNRjdZj+EZ9oVx2OWUBEPODwRr/UqgDB4o0N5ZQFGnL+ShVeYz+WFNo63JRqvNZ/LCAuSeYfkUG8lJ5yCAqAYCAb+DjCb4LsYQAEqu6N5AWqrzYv2jftV1xwrVV+r7fKN+1XHoQVygdjsQ8uCq3ghJTOVarPNj/aBXjyVmsI3Y/wBoEBeJ4FRbkBVyCDxWoa62tbPtm/QQar1HBBXVeRR22AOqK6rd3Q00YdLJ/otIHbhAbdglxOeQWC1VrXSmiqV1x1VfqS3QhvVEz+u/1NYOs75gtBbetuW0oD8nbHDs9scvKuu7W1F0lZ3spmHchz2GR28O1iy+ldhWi9PXAX28mr1RfnYL7pepfGJd7vYwjcj+RrUB8WeHvq7bdqXS1Jta8H687SdOUlvqaW3OEFZLS09xdNK2OMxUzesXbzhlx7F9EeDRsW2sWLYpSM2/bS75f9a1z2XN81ZUdILQ7dwIGE8+r5+eZ+RfRFbSUtRFHDU08MrGSMc1sjA4BzSC0gHkQeSwO0eoqafRlzfSlwc5jGOLeYY57Q7/AMJKzUM2dZXbUpVtkdzRbJdbzV3OotlTBDUUtPlrblEd1srgeW6eXyrYM54qzRMiipYmxAbvRtxjHcry9DJp7HIvcLRto2n7ze73o6qtNMJGWu5TVFQ8nhGwxYDj38VvKieZWGpBVLeDT+ATsmup85WzZ5rG3a6t8ulNnNy0nVe6wqbzXUd0eLDWU+9mYto97ozJI3I3t3e3jnPBZzYn4PVm09YaG560o7xJe6W7XGvbR1V6qZ6KJ8lXM6KRlK55ha7o3tIIaCN495XcgOCqrQWVF3UbjlGc81RyqmQrGMxt3t01a6krKOqNPV2+bxindjLd/GMOB5hfLXhw7UvDE0bpQ7U9g+ro6GyWWNtLqSzxWyGeehl4nxlrntcXRPBHyL62IB59ix9BSUFZrWSz1NGyelu1pfFX08jN+OaLeIG8OXIkLWxdPvab02M+HeWZx/wXdsmo9M7ObdVeEVqnUtVe9QRx1wulwomC3tY5uWthfC3DW4Pvl9RWi82m+0jK+zXOlr6Z4BEtNKJG4PrHJUpNPWOltEVggtFI21wRiKOjMQMTGDk0NPDC57c/B60jHWvu+g7lddF3I5d01nqN2F7u98Dsxu9gXDOodS4BWqkhzGkjk5cndefCC0I7dvOm7dtDtkY9PZnsorkG+uCZwikOOeJW57Asxpjbts11fc49NR3mWzagLutZL5Tvt1fyOS2GcNdI3+OzeaewoDoQkaWgbqmJOA6p5KHVDcgjHflXGoC3G/q+aeZVWv656p5KUYIbxzzVOG+T6kBaqDno+H6xv2q49/UPUKjUYHR8f1jftVx5G4eIQFGuJx1SrMOSzeIJIe4f1q+35VCmGIyDw67vtKAgIoy8mRrXA9hHJantF0hpO/2kC9aXtNyAeG7tZRRzDGDww4Fbl1S85wvJdaSKsp2U8md10gzjnyKMHw7r7Z5sf0vT1l8qdL2nT1DS70tTU26HxMtbnnmHdOVt+y3ZpTXJ7JdO7Stc2pjmZjMF+mqowMjgBOXtx6sLYPCb2dPg2ZXquiYN2N0TiHNy1w6QZB7OS3m6aIj2TajqdZWFjxpOvmM11omMLjb5XHLqmFo49Efft975w4ZxxMLgKscXLEzqNp8uRZtWsemn2bbYrcwOsm3u51R7G3m1Usw+TMTGHHzq4YPCbtB6ty0Rf2jkPFZqNx+U77gum2muorrQU9xt9THUU1QwSRyxuBa5p5EEL1ldsqcik1/t5tjmG97FqStYHAk2m7iQ8+wPaEk2/wBVbm/+k+yLWlqHviKRs4H0DxXWZiBuAkcXt+1TOd0gE+pAcuo/CU2UzNHj11r7Xnmbhb5Yd35chbHaNruzG9FvuZruzTb3LNS1mfpYWz1dtt1eMV1DTVIwBiaJr/tC1u7bJ9md9GLroWyT/wD5Rjf7ICA2Gkulsr371BcqSpB5dDO1/wBhV6oBPR8DwkB/qK5pVeDZskmyKCyVdq7vc64TU+Pk3XLxybAIrYY/yY2qa3s53gGYuDakA4P8M12UB1qR3UPFSaTgY7Fyh2zvbda2n3E25x1eBge7Njjmz8vRPjVS/wAJ61N6lPs+1FjtdPVW3e9jJsIDqrCd1B6R3yLlMW0fbZbQRfPB+qq3d5mw3+inHzeMvgyq/wCMBRW8l2p9lW0mzH33/o1UXAN+ehE4+fkgOoVHOL9o37VdkfgeaVyl3hP7B96Jl12h0Nhfvjq3+OS0keoirbGR863iybQ9A6pjD9Ma3sN3a7iDQ3GGcEf6DigM81+GjqlUY/q+aeZUo5GPb1Htd8hyjODePDieaAiHjfPVKxOsWifS9xZ3wk+whZdpzIcHIwsJrl8kGkbvPGxzyyke7daMnhxP9SBn4JbfK00W3rWZ3Yyw3iUO3omvw3e44BC8W1iq2f0d9p6fZhdprjaXW+CSeWqpY43tqnMzKwFrRwDshebwi7jGdt2spD1d66yu63A8SuXVFyG65ok7DjipszHdH3Hru+SWWr2bVbXYbUbPaLj86twbS3+5FTSulJ5ub3jIXVKnwPtse3bZnsj19s3vOjoKaHRVJQzx3qpnjcXc8gRxu+1eKH/Bw+FB1mSal2Wsa8YLmVVa4/JxjC9pwXjeFwGFVKsm3c8hxbgFTiGJdaLXI4RdNXOrJo43SnLSM44LGQ3l0dU9zX+/J+bK1nwn9O7RfBq2ifueaplsNfXupY6s1FubK6LdeOAy/Bz8y7Z4OXgYbQPCI2YWnafTbXdP6eZdp5oW2+ppnOnHRv3c4yOeMhdddrMIv9Wacey+IStdGq1WqRJRCDf3juEcCvs3/BOVfS7NtpFO4HMWryfbSxLTI/8ABU67e1vSbdKEHHHFpcR/aX0x4HngsVvgt6f1NZLhrWPUUmork24ukZSmARkRNZjBcc+blef7Qcaw/FKUYUk00zs8E4PV4ZVlObVmj6DB7uxRqHZMJx+sH2FSYCOapUDjDgfrB9hXkz0qJvf1DwQPw3Ba5SeOqeCr2ISWo3nHBhWOh9PUftD/AHLKReaflKxkXp6j9o5SiGXkRFYqEREAREQBERAEREAREQBERAEREAREQBERAEREAREQBERAEREAREQBERAEREAVkAG4QhwBBDuB+RXlZb++MHz/AGKGSj3vpaYMcegj5fBRlLTbo/N4+XwQpyN6juJ5KrW5a057FUsWY6Wl4/m8fPuQUtMZP0ePl8FTjZwPHtVd3ynPkEBanpaYNZiCP0jfejvU30tPu+gZ9FRqGZYzBPpGfaFde07vnFARZS0+76Bn0VQU1Ng+Rj5n3oVxreqOJUWRgZ4nmUBbNNT9J6BnL4Ks18NNDSOmNOw9H18bvPAyvVu4k9WF5bt+98/8h32FUqNqDa6F6aTnFPqaBsX2r0+1y3Xiufp5ltNquc1u3N8P6TozjfzjhnuW9Xytttis9beaxkTYaKB873OAAw1pPP5l8+eBvVU8Fh1gyadjHflLWEBxxw3l7vDT2hU+ltj09op6zdqdRTNom9GcnojxeR68clw48TdPhCxlR+tlv7+R7bF9mvSO1f6LgoNQlOMVvorJvXyuzJeD94SNv21Xe72So0t7i1NCBNTNfJvGpgJI3xw78e1YnbP4TF62abSmbOtN7LZtTVL6COuDoJsP6znAjdx2bvP1r530vt42fWjajs7vWkLfdbbDa6ZtmvDqyNkTZon9XfBa453ck8ccl0DbdRbRrn4W9JTbLL9Q2i9v05C5lTWE9Hub8mRwaefyLlLi9ergoqnUvNTytxSbaaurJ6eHuPd1uxfDsLx1Sr4fJh50ZzjCpKSUZQdnmkru20tOUjpOyzwm5tda0g0BrnZrWaRuda3pKBtT1hPu8XDlw4BfQr6amLCTBH9FfFNjp9o+jPCL0XVbertbdSXC571Faqi31HVo3uIGXMLQTnOM8hnK+2HDLDx7F3OC4mrisO3WfrKTWqs/fbS54LtzwvA8OxVCpw+KVOpBS9WTlBu7TyuVpW01ut7kWUtNgYgj5dyoylpeP5uzn8FXGDgAqNaesN4+cuweIIeK0ok4U8fL4KhUUtN5PyEfnj3qvAEy88cFGoYC1m8TweCgD6WmII6CP6IRtLS7vCCP2BTczgePrVGjLRx5hAQZS0oH6PH9FBTUpPCnZ9EKbRwI9aoGce1AWqmmg3WeRj9Iz3o7wpupYBx6Fn0QlQw7rOJ9Iz7Qrpb3uKAtCmgx6Bn0QqtpqbHGCP6IU90JuhAWhS0pfxp4/ohQqaalDG+Qj88cmhXmt63NRqm9RnH34QFTS0uMGCM/6IUfE6T4vH9EK6WoAQgLbaSl45p4/ohBS0u9u+LR8vgq40ZyFQDrkepAWZ6SlDWEQR+kb70d6uOpKUN/R4voBUmb1WcT6Rv2q45nV5lAQFLSho/NovoBU8Xpfi0X0AqvMcURklmaxjRkuc7AHylcsue32xV9fPYdlFiuW0K707zFKbO0e51K8cxPXOxA0jtY1zpP4pQHU/FqQZzTxDAz5gXOtYbaNBadrW2O1NfqK9l4DLZZ4hPLnsD3DqsHylYZuzLaftElM21nWgtlskAd7g6bkfEz+RLUuAfJ690MW/6b0LpLQdvbb9JWCjtsZeN50LOvIe0uees4/KUBoHuDtq2lsLr9XwbP7LJnFJbN2e6SMPY6Zw3YiRz3RkdhW4aJ2P7O9nokn07p2AXCpwau51RNRW1R75Z5MyP+c8OzC3HBzzVTxQEG01Nz6FnPuUPFqcyEeLx8gfNCu7vrVA3rk7x4hAWamlpt1n5vH6RvvR3q3XWugrqSeinpozFNG5jwAM4IV+paQI+t+sb9qubvrVo6aohq6scpliuWjpG268xTTUDeFNXMZvDc7GyY5Ed6vm/2ToTUe6lMWAZzv/3c1018bZGlkgDmuGCCMg/MsV+SWmun8Z9w6LpPhdEF0qfEE166+Bz54P8A5ZpNpvNDeInS0Mu+1hwcjBHzFe7tXv1Voiarq4r9pmaKkuMDNx8ThiGpjHvHAcj3HsWrnUkNBMKLUVJNZaondDKwbsb/AORL5j/mOe8BbdKtCqrw+BryhOnpLXxMyijHJHKwSRSNe08nNOQVGeeCnYZJ5442N5ue4AD2rMV5XLh5Lw3O8UVobG6sdITM7ciZEwve93qA4rxt1FFc5vEtMUkt5qckZpx5Bh/jzHqD5Mk+pbbpTSNRban3bv8AMypuske5iP0VM34EeePyu7Vgr4iNCN3v0MkKTrPTY1aK63a4kQ2bTdbNI8hrXzs6KNue1xPHC2zSmjG2gzXa8mKqu9YAJpA3qRMHKOMHk0c89pWyz/q+/pG/arro945JXMr4ydZZVojfo4dU99SyKamI4wM+ipClpj+oZ9EKZjz2qu4O9ahsFkU1Pv8AoGfRCwOs9AaJ1vbmWfV+lrZeKOSUExVdMyQA4PEZHAjhgjlhbE0dYhQqR1oB/wBqPsKA5MdiWpNH5m2R7Qq63ws82zXvNxoMfBaZD0sY7AGvwO5RG1fVmjnin2sbLqmkhbwN3sn55SO7i5vns/rwuwFuTzVDHkFp4gjBHegNc0prXQmtqYVOmb3b67PHo43gSN+Vh6w9iz4pqXPoGexaJqjYZs61XUm5zWd1runNtytUppKhp/lMwDx7wVgG6c2+6CeTpvU9s13a4x1aC+ZpK4N7m1LAWOPcHMHrcgOsTU1N1CIWZ329nrU3U9MR+jxfQC5VT+ENpKjqqe0bTLXddntzfM1jW6ghEdHI7PKOtYXUz89g6Te9S6nFNBVUzailqI5oZGhzJI3BzXA8iCOBQE209MR+jx/RCNpqbHoI/ohTDezKoyMY59qAtimpt8+Qj+iFGempsMAgj4vHvQroj654q3UM4xAE+kH2FAc08JO11FVsV1NDabZLVVPiwe2Gnj3pH7rgSA0c+XJc62ibXtrhp5ujpRpW3XWL3TskohY+sko6eQCqimEodGyR8L2zMbjOAW8SvpQsxnisZdtNWXUELKa/W6G4QxytnjjnaHNY8Zw4dx44+RAa9sn0NY9JaSjpbbV1lwhrZX14mrY2Mf5XDt0NY0Na0Z4AAALchSUmSPFosD+KFcjYxkbY42BjWgBrRyA7lEN8o4Z7EBZnpaUGMdBGOuPejvU3UlIBkU8f0QlQPRcfft+1Tlb1Tx7EBEUlIR+jx/RCo2jpMfo8fP4IV0MBA4qjI+B6x5oC0KSk3/0eP6IUJ6Sl8kBTx4Mg96O4r0Bg3iMlW524MQB/WD7CgKvpaYMOKeP6IVWU1NujyEfL4IU5Aejd1ijW9UdYoC3HTU26fzePn8EKXi1KedPF9EKrGdXmVXtwgPDW222yNjbJQUzw6QAh0TTkexapfdhuxjU7y/UOyvSlxceJdU2mB7s9+S3IPrW6VTciLjylarjm47UByeTwX9kEfGzWy72Eji33GvlZQBvzQyNHzYVsbB7rbzjTu2zXNuaOIZLUQ1o+c1DHn+tdca3Iym760ByQ6E29W1w9yNrVjuLR2XewtLnD5YXMAPzLL6UO2uG8R0WtLPpGptMjXNmrKCSSOUcOGI3ZBB+VdDxxwphvDmgPx58IDYVqXUG2LUV4tei7hQ0s9dNJkUBfvHPA5Pf3rDaf8FipvMZdcqW9UpcWgtZag/jjjxPbnOPmX7OyU8EvpYY3/wApoKg2hom8qSEfJGFkzmJ0r8z8oa3wZtXU9sibYLzqtzqVgZFC6lfGwDuGDwC1yg8GLa5USxSXQXR7d7MrA2XeHF2cH6H9a/YUQxN82Jg+RoUg0N5fYp70x+j+J+R0XgRbRr7UeMMbTtLxwM9NJvj5174fAa8Iu1bklmuVxD4pGys8TLmhrmnIIG8F+saonek+jrqfANHsj/wgtLJTajh1uLlvwiBtuuFylgdTBvJ27E4NcT/GyvuHR1PqD8k7RHrVtNJe20kfj5h60fT46276lnlTnlUlLMZYwylvxan/AICP6AViopaYdFiCP0g96O4r0Ojyc5VqojIMPWPpP7iqlyrqWmP6iP6IUhS027+jx/RCq5mBzJUg3ICAsxUtNu5FPHz+CF4ov0io/aHA7uSyLAQPnWOi/SKj9o5SiGXkRFYqEREAREQBERAEREAREQBERAEREAREQBERAEREAREQBERAEREAREQBERAEREAVlv74wfP9ivKy398YPn+xQyUZJ4O448ORRgfut5ckkd1CMHlhGu6rTunl3KpYjEHAHHejQ4yE+pI38CMHmqtPlDwPmhAQqC/cbw/WM+0K44ybp4BQqHkNb1c9dn2hXHPG6eBQEW9LjkFRvScflKkH8AMEH5FQPPEFh4FABvb3HuVqtY2WmMTs4ed047iFdDsuIweShUnyY/lBQ1dWZKbTuj5nungFbM7pcqy6San1KyStnfUPayeMNDnHJA6vJbbp3wUdC6el0s73UvFdDpN80tHBVStcx8kjiS54xxIJOMYXbwCOByqrm0eD4Ci81OkkenxHbTtBioKFbFzkldLbS6t06aGi7TdkumNqekp9JXyKWmgnkjlE9JutljcxwcC0kHuXO9ovgf6I2mXigvmoNR6gbWUFuhtgfDMxvSsjBw9/V845OSOC78MEcCqEEc1kr8PwuIv3kE72v7tvhc0cB2k4vwtRWDxEoZb2s9s1lK3mkr+RwbZl4I2zTZXqWHV9vnudzuNMQKZ9fKHCAngS0ADjg9uV3h4dun5O9WZ2NawFo4l7e31hXpDhpGDyWxh8LRwdNU6EVGPRGrxLjGP41WVfiFV1JpWu+nQqA4AcexUaXne+VVDsAAgjh2qjHEl2BkArO3Y54G90nDjw7VSozuNzjzgglaHccAn1pUO6jf5QTlceBMcvmVGcWA+oKueHEY4KMZ6g+RLgNGCUPAqozk8E5HOD7EBbqz1Gfy2farh4hWqtw3GftGfaFd3+Qx2ZQFcYCo3JKr8xRvDsQEOsX44KFQHbrOHvwrgcN/koVL+qwge/CAm/fDXYHYqta7dyUe/DHfIjH5GO1AUha4ZyeGVX35+Ra9q7aJonZ9bvdXWmpaCz07n9HGaqYNdLIeTI2edI89jWgk9gWhO2gbXdobi3ZfoZ2n7S/gL/AKqhfA+RnwoKHhMf/wAXovnQPQ6XqO/WbTlv9079daW30sTw50tRKGNHHszz+QLm0m2u+6zkkodjWjKi9s3iz3ZuAdS25nrBI3pO/hjKozY9oy2zw6m2o6nl1Vc2SMcam9TtjpYjn9XBkRtx68lbNLtb2cUMbaO1XZlcyNu6yO00slU1uOwdA1wGFSU4x3Zlp0KtX2ItmtRbDblrGYVu2zWVVqmM4cLLBmltLD3OhYfLD9qXD1LqNttlvstuhtVpoKeipKdgjihp4xHHG0cg1o4ABaNJteMnVtWh75UjskmEVOw/M94ePorxza/2h1LPzfT1loAe2StfUO+doY0f1rC8VSXM248KxU3Zxt5nT2E73FRqgS1gAPpAuSy3faLWNd0+rKalJ+J0Ibj5N9zl4Z7bdq4AXTV96qu8iURZ+gAqPGR5I2YcEq7Tkl8ztEtRTwennjj/AJbwPtWPq9T6do2l1VfKGIDvmauRHSdmlAbVCsqcdtRUyP8A71dh0vpynaGxWamAHe0n7VR4x8kZ1wSC9qb9yOhy7S9Dw8DqWjf6oyXH+oLHybY9ExuIbWVcpHDydI9wK1eK3W6EYioqZn8mFo/uV5rOj4RYaPUMKjxk2Zo8Iw65szFVtgscu4KO03ach7T1afGcH1qD9rxHCDRF7l7jhgH9ZWL8p8NMP+EPYqPFVXszKuFYTnF/EyJ2sXd4Ji0JWju6Sdo+xW3bU9VZxHoduP49YB/cvFu55pgetR6RVfMv+nYSP+h7DtN1uTlmjKED+NX8f7K8tZrzWdwhNPV6GtM0RPFktdkH/wAKjut7yq4A7U9Iq3vmHoGF/wCDXqjppmO3NlWnoHl2cw1xj+Xg1oU6R0lM9sj9k+np3sPVfNWdI4d3FzTx9az2M8ThMLJ6fibZVN2K/pWCdm6auX4No2raVgii0NQxsaMBsdaMAfRVxu1LU4cXSaGPH4FUD/cvJjHIqgb38VT0mq+Zb9PwnKBkHbVrplgl0LcDuuBO5Kwq83bE0canRl6hHfutd9hWJ3R2pj1/1qPSKnUq+GYSX+vzZnG7Z9Nj9KoLrT/yqVx+xeqHa9oeYYNzmi9clM9uP6lrQyOTiqOijk9JGx/ytBVo4qpHfUpLhOGlsmvebpT7RtDzuwzU9DvHsc8tP9YWSF+slYIn0t3o5QJAerM3uPrXMZLXa5QWyWykeD3wt+5eOTSmnJSS60QDPMtBaf6irrGS5pGJ8FpcpP5HbGTskG9EWvHe1wP2KueHJcOOlbe1u7S1lzpccugrZGgf1r2QU+o6JoZb9bXeFo5B5ZJ/ablZFjFzRry4K/8AWfyOzKg8/wD0VyODUW0yj6sV9tlYwdlVRkOP+k1wx7F7odpGuKN+7X6RoKtnIvpa8h5+Rr2Af+JWWNpve5gnwfEx1Vn7zoV2oaK503iFxooKqmncGSRTRh7HtJ4gg8CuZ1fg9WGySvr9k2oLroCqJL+gtMv/ACe9x4neo35hGTzLWhx71lTteoGbnutpXUFDuvBLhSipHA/9gXn+pZej2r7Pa6RsA1VRUs8nmw1jjTSH5GShrv6lnhWpz2Zq1MDiKftQZpo1bt40F1dZaPotY25nnXGwEw1Ab2udTvJzw49UrZ9H7a9nesn+K0F9ZR14OHUNwYaaoae4tfjPzZW4U9XTVDGy007JWO4hzHbwPyYWv6s2c6H1zEYtUabo614JLJzHuzMPe2RuHA/OshqtOOjRtAPW+wqksfSbuDgtIcuQ/uVbStFuZJsp2mTPpGEn3I1K11XBj4LJW4kZ3ZO9juKzWmNpGuH3yn0vtB2V3WzVlQXCK5W6RtwtUuB/CsxJF/8AixsHcShB0Zzcg8eabp3cZVc45pnKC5FrXN98PYm47eLt4cfUpogLckbpN3rAbrg5UlD9w4IV1QldusJwgKYkxwIVGGTtAUukGM7p9iiyQ44tPPuQBu/0h4BQqN/yXf0g+wqYf5Q8D7FCoccxdU+kHZ6igJvMm448FVvSbo4hJHHcPAqrH5aDukICke+RzHNUG/vnuVY3cPNPNUDzvkbpQEKjfJiz/CBXHZzxVupccxdU+kCuOOUB46+9Wu0eLtuVfBSmrnbTwCV+70srjhrG95J7F7A7IJXHPCGDDWbN9/HDW1s5/tQubP1rthmtW0bah+6dIym0Tq2ooKCwsoYegno45ImuindjfL3dI7cLSMENyCmndubei3+Ni7g7XPqrIBXju17tlipm195uVPQ0rpWQ9LPIGNL3uDWNBPMlxAA9a1jRe1Kxa1uD7RQ2jU1LVwQNlmdcNN3CjpskDhHUzQthl5+8e7K5X4Zmg7ZfdFW3V9xuFxe+yXuxijomVBZStldc4A6ZzB57907oycAdnFWhC81BmOEozV+R36vvlntRphcrnTUprZm09MJZA0zSu81jc8ye4LAaq2r7OdEXKKzas1jbrZXTRCdlPPJiR0ZcWh2ADwyCM+pce8ILQtol11sy17WVtwmr6fVFspaSB9QfFqdrngOLY+Rc7vOT3LG690xtAo9q20fa3pzUOzy5UNjs1IyWz19J45XRsp4nzvikfvNFIZA4lpIdkEOIwoS2ctE27+FvyTJermj4H0wK+jFF7omqjbS9H03SudhgZjO8SeQwtfsm07Z9qS33C62LV1urqS1Amtlhl3hCAMku7cevktM13Uy7S/B5rayiqYLEbvaGzh1bO2CGIEAmN8nmtafNzywVzLRV3vtXt50RbY9kf5G26TSFfDdKd9RRzCrYx9P0EjRSySMdBkyhj3lr3dbLRhQtZSj0/ci9op9f2O42PbRst1Pd4LBp3XNprrjU5MdLHKekkA5lrSOOFt1yudvs9vnut1rYKOjpYzLPPM8MZGwDJLieAC4dsk09ZtZbUNUbWprNQwQ2ivl05YGx0jIzFHEd2eUYHEvdyPweC93heaHtutNhurH3muuLKW02S4VgpKacxR1ErYCYzLji4MIyG5wSeOcBVm8qXjb5kxSlJ22OzCuo/EhcfGY/Fej6Xpi4bm5jO9nuxxWGuOv9F2jTkerrlqa3wWabHRVrph0UmTgbpHncjy7l897Y9cXGh2baR2fe5OrG2e72JlRebpZtOXC5BtMyEfm4fSQyCN8hwMuwAOK9Wwo6H1dsH2bSw2elqb3a6Csbp60agbNbm1EjHBshEU0e/IxrSwdII3gb3rV6qyOSjydvgVi82VPmrn0baLza79b4LtZq+Cso6lgkimheHMe09oKwD9pegJdVM0THq62OvjJMGhEw6TO6Tu92cdmcrQfBfkq6fTOotO3mnbSXm2X+rFypIDmkppJHbwZTO99CB5pIae9oWp6t07pbUes7Vsj2Saai8YsuoYdQan1CyMubbHhzpugM54vqZs46MHqRnLsAtBh5VO3IJtxzH0Ndb3Z7O6ljutypqR9dM2npmyyBpmlPJjR2k9y1+6bWtmti1B+Sd31nbKa8b0bDROl8qHSY3AQBwJyMZ718lbWNpf5R7aNJ3zVli13b4rBrWloLLb36PunQOia8CSq6YQGKVz/ehriQ3syt1r7dr7Z/fto23GnuWz3Udhl1JFUS22OjNRcGxMbDTmI1RcBDOzgeiLDgjGQXcIjJOCm9m39rfG5Z218D6tjILN4HgeIWMi9PUftD/cvTaqwXCgp6wROjE8bZA13NocM4PrXlhx08/wC0P9yvsyl1JKSL6IikBERAEREAREQBERAEREAREQBERAEREAREQBERAEREAREQBERAEREAREQBERAFZb++MB+X7FeVpoBr4gRkHI/qUMlGRfJGWnrt9qqHMx5w9qtmkpgM9C1V8WgwPJNVSxWNzOsd5vPvRrm9IesPN71COng4+SbzVRTw9KfJjzUAqHs3G9Zvnt7fWFNxYeTx7VaqKaEtb5Nvnt7PWFc8WgH6tqA5P4V98uenfBx2hXqx3Wrt1fR2Kplp6ujndFPC8MOHMe0hzXDsIOVyawV1m/LLTsmxas2oz10VYZLt+UN1uNRQmgDCX77auV7d7O7ulo3s54rv+2HZvDtU2Z6i2ei4Ntvu/QS0XjfQ9J0Je3G9u5Gcd2VuD6eJ8LoHNJY5paQSeIIwkWtHzRElmjZeJyim28sqdGab1f8Ak8Wt1DqCGxCHp+MPSVHQ9JnHHHPC5nsr2y7T7Hpt131Zph1y0n+WF1tkt5qbmX1kbPdOojic2Ig5haA1g63ADgOC2am8GrVtPPZ7M/aVBJpXT2ootQ0FCLVipe5k3SdBNN0mHs54IaCDjmq2jwb9YW+lGkLltNp67RUmoam/TW/3JMdWXS1clSIBP0hAiDpBnqEnB4jOESvBvm728tP3EW/ZfK3/AOr/AGMJsw2rOoYLG/U9fcrk6vvd+3KuS5SbsEMEMsgDmZxI3dZhodwbkEcl0PZVtP2mbQDatQXfZnT2nSeoaIXC2VrbkJamOF4D4fGIt0bhfG5pwCcE4WKs/gz261yWaOqvraiktVbdap8QptwzNrIXx9HneO7uh+c8c45LLbL9lW0XQsVm07ddpVJc9LabpW0Nuo4bT0NVLBG0MhFTOZHCQtY1oJaxmSM+pIWSSfRfTUtUu5Sktm3+xhtpOpb1Q7X4bXRXurp6Q6Hu9WYIp3NYZ2SRBkm6DjeaCcHmMrgGzK82++bL9nl12fXra7X7Ra63Weplnr7zc5qCaZ0Ubqp8rJ5XQujOXnze0Ywvq3VOyaHUmu49ZNujafo7BW2MwdDvZ8Ycx3SZz73c5dueazezXRjNn+znS+gPHTWjTdmo7T4yW7nT9BC2Pf3cndzu5xk4yr03GEPHT6y/KKV3ntFeP2LOvzrSTSEsOiqu2017e2NrJ6tpfFC4ubvv3R526N4gduAFyjYnSa62heDdSW697RboLx7sXenuF6aSauoggudTG4McCOjJYxrRu+aBgY4LvUtDE+F0cbWtc5rmgluQM+rtXLaHYXX2HZR+57pzXNTbLhS3auvFFdYIN3cknrpqkRyR73XjAm3HN3hndzkK7lF0rcyIuV7Mwvg7agiqdRa20vZ7lfp7HZqqnZb49Q1k1RXAlrulfvTOdIYS4DdJJ7V49vNidYoLtr68bTdQwXieaGm0harXdJ6SNk+GgRmCN4ZVOc7eLjI1wDeHDC3HSWy3Wdqul21xqLWdrumsLpTwUQqobS6Cjhp4nZDRD0rnOccnLi/uwFrGrdi21K67VanaXadoGlhG1jILNRXjT0lV7lsAAeY3NnYN953iXbueQHJa8od44q9i18mZ8v59zXdtlNqfT2jhtG1Rq3WLb822ww2a3aeqJoIKWvDC58s7InBkzS4DPShzQARjBUfCN213um2et0zorVFupNROs9JeLpcqWtawUkD3R46E5BJlJduke9BPat71Pss2oXC6V1ZYNqtJQ0F/oGUt4o6m0uqmMcGlrpKPyo6EuBOQ7fHLuXl1j4KuyXUez5uio9MUUc9PaqOz091mi6WobBThrWbxBG8Q1uPnSSclK+l2ThpZJxvr1udM0fVPr9K2u4Cs8ZfUUMD+kdKHh7iwZO9njk81xjZbVbW5tsO07TmtddQz1UlsttVa6akjIo7R0zZWhsTHHrkbjXOcfOd6sBdbsGlBpOmtVns89LFZbdb20raRlK7eMo3QJN8OO6zG9kEcyDngsMzZhX0+tdX68tF/jp6/UtppbdTB1NvCikhbIBL53XGX53eHLmss1FTlOO2pWDtDu+en11OS1E1Zsw2m2y1aR1rqPUt1ht9fX6xjrrrPV0kUDad7oniKR7mU73TdGGtjDeGRyXk0BJqDTdo2R7WKjW2orlc9okdNJfaWtuU1RRv8cg8YaIYHuMdOIidwFjRkAZyeK3bZLsM2kbP+mt2otb6VvdtubpX3mWPT8sNwuDngjefO6oeOBPLdwAOGFPRHg+6h03c9PUWpNdwXjSOiWyDTttZbjDURDzYhUTb7hMI48NbhjeWSoT9nrdfDmiZq8Xbx+PJm3bdGbQJtn1wi2b3+hslx3HGS41EXSupYg0kuiZyMnDhngDx44WoaXpL3tA8HHZ9dLxri9UlPJp6guF9qKOaRtwuANMxzgJ2OEjXOdklzTvHvXTqqx11105V2W6VlLNU1bJIzPT07o2BrsgdUuOSBz4+xaSdjOo7Xsz0VpDR2vHWq8aJo6Wlp659KZKer6KFsThPAHjea7dyAHDB7VVpZZRvu197/AGL3WX4nFafXV4uWzanpJtW6lt2jo9ZG3V9dLVzNvFFZ8dQTzZM0e8/AMm9vBpJzwXTfB017b7zqrW+g9P6jr75YNMvopbdWV1RJUyltRGXOYJ5SZJWBzTgvJPHGeClU7C75Rabu13ue0mkp9W3S5w3etuniAZbZHRcGwPpXP60BblrgX5Oea8WzSo0ls9N4rG1Z1hqO/VInr6mxUHQ0OGANjihJPRRsY0eaZCclxyska1OnSn3m/IpTw9etOKpQb+h3xzw0l5KtzuZ0bXucAA9uSSAF85ax8J65U90dpvSVnhr7uw7pt1qabnVRZ5dMWFsFN8ssgHyrU5dBba9p07K3aZryp09a5CXG02io3qh7SOUswAaPW1oOOxxWhLFw5K51ocIrP2ml8zv2vtvWy3Z6HQXvUsVRXHDWW+3jxmpeTyAYzOPnXKK/bLts2jvMOi9IVGjbI8lvj1Yxslwlbyy1jupFnsJDlltGbL9C6CiaNNadgiqR51ZN5WokPe6R+XLbBvO85YamNb0idCjwijDWp6zNC0xoSssVy/KKGhoJL+9u7JfLu99yuBHaGSPOIh/FaA31Lbaigv8Ac2j3b1peKnPNkE3irMd3kt04+UrIgAHiFLAWv3k5bs6FPD0qfsQSMJS6O01TT+NCy00lQP10zelkP+m7J/rWXYxrBhrQPkGFc4YOFHAVGZ7vYIiKpAREUgIiIBgIiIAiIgCIiAYCYHciIAiIgCIiAIiIAiIgCIiAIiIAmB3IiAK3PTU1Uwx1EDJGu4EOaCD8oVxECbWxhWaO07BKZqGhNvmdzkoJXUzyfWYyCvbANX20AWvW1eWNORDWNbOz53Eb5+kvb8ice1WTa2ZWUYz9tJ+499l1nroV9NR3S22yshleGPnp3uic0d+4c59q6SOWPWuZWc4uVPx9+F03v+VdDCzlJPM7nm+K0qdKpHu42uW6yrpqCmkq6yeOGCJpc+R7sNaB2kriuvPC02e6IlMUduu9444ElFSl8ZOM+dywsx4U1TLSbAtZzwyOa9lslIc04I4L879mmvKq3V5Zqe+XeSzCI5paUtc6R3ABg3uDRzyV7js92ejxWhPEyu8rtlWlz5n2m7Ufo2Ihhl6uZXzPZH2zZ/Dd0Hc7NLqKbTV3pLXA4skqJg0dYcwG8yV1XZrtp2ebWKZ0+jL9FVyRtDpYHdWVgPe1fmdDree2XCuFDpm3e5dVI6RlHWZmYwerjwJ711vwOb5b7h4QlCLTYKezNNmq2zRU0jiyV2+wgkE9mV2OKdj6eEwtTEKLjlV1rf3M43CO3MsZi6eGzKWZ2ejXvXI/Q8c8qkhAackBSGQPWoTNa9uHtDvUvnR9QuVa9mPOHtVInt3Tl45ntUGwQY4xBI4IMcYm80BLfZ0vnN5d6hUubmHrD0g7fUUFPT9IQIm8lCpp4R0Pkm+kH2FAX3vbjzh7VLfbjzh7VafBBu+iHsVRTwYz0QQFY3twesOfeqtezePWHtUI6eAt9E3mgp4N8+SagKVLm5i6w9IO1SL2H37fardTBBmIdE30g7FcNNTjj0TUYMPqDSem9Vutz79QsqnWmtjuFHmRzeiqIzlj+qRnB7DwXJNE+C/o6kv+o9VazozV1121TU3xsNPcp2UdQ0lpgdU0zXiKaRm7wc9riMNxyC7maanx6Jqo2mpz+qbwSLy7DM9iTOibhoLQ0DAGeAWE1rpTT2t7K3T+pKUVVC+rp6gx9IWeUhkEsZy0g8HsafmWa8Wpv4JqtVFPB5LEbfSD7CpvZ3ItpYxmodH6a1Sba6+UTKk2irirqM9K5vRTxnLHcCM4PYeC1nV+w7ZnrbUDtS3211Pjs8ccVaKS5VFLDXsjOWNqoontZUgcgJA7hw5cFv8A4tT/AME1UNNTkeiaoJd2rGDqdI6crY6inrqcz0lXRe50tE+d7qUwfBEOdwHs3gM44ZWF2fbH9nmzKesrNK0NSKqtjjp5KmuuE9bMynjz0dOySZ7nMhbk7sbSGjJwFunilN/BNVBS0/8ABNTwBg7JpDTWlLKbBp+k8Topp5JXNZM7e35CS92+TvAknnlXbnpKw3nSNXoe7smrLTXUclBUMnqXvklhe0tcHSE75JBIznKys9PTgRjom+eFedTw49G1Q0uZWKtseKC12ums0en4oGtoY6cUrYt48Ig3d3c8+S1K67F9m140raNHVFomhoLC4vtclJXTU1VROOcmKoic2VmQ4g4dxHArehTwY9G1BBT8xG1TL1ndkpJbGpab2Z6N0ja6Ozadgq6Smo6k1pLa+bpKmcnLn1EhdvTknmZC7PblahZ/Bo2X6auvupYavVtA6a6OussEGrrk2mkqnuL3vdCJtx287mCMEcMYXXOgp/4NvsVuangzH5Nvn/3FSm73CSWhitQ6U07qiW2TXuibUvs9bHcKM9I5vRzsOWv4HjjuPBapdNg2y+9aqdq+4WqpdVTVUddUUsdynjoKmpZ5k01I14glkGAQ5zCctac5AXRDT0/bE1PFaf8AgmqNti19LCExMYGNc0AcAMrGxfpFR+0d/csgyCnxno2rHw/pFR3dIVK3KWsrF9ERWICIiAIiIAiIgCIiAIiIAiIgCIiAIiIAiIgCIiAIiIAiIgCIiAIiIAiIgCIiAK0z9Ph+f7FdVpn6fD8/2KGSjISAlpVWN6gO8eSODt3IRm/uDiOSqWKRtPW6x5o1o6Q8T5qRh/HBHNBvdKeA80ICNQ07rcH37P7QU3MIaesVCo391v8ALZ/aCm/f3TyQBrcDOSchVVG74aOSZJKAqRlfGf8AhA9q/hObMrW2TYZftP01I+gdUzU7aYz3dvRk9LK0OyxsQbu8SM5zxX0ztM2kUugaClp6SjddtQ3iXxSzWeFwE1bUEcBx81jfOe89VrQSTwWI0VsqFppbjftoM1LqHVWpMMu1S6MmBkJGPFIGu82Bo6o5F3M8TgAcy/wfNNtFqfBytWsdqeqLve79qyolu0klxndI+GN5wxjQ49VvDOBw4r6Y3M9pC8tBbKC00EFstdHDSUtLGI4YImBrI2DkAByC9LS8gcRyQEWM59YquD0mM8EZ0nHiOap1xL2FARnBYxpB4l7R7SApvZ1MZVup3txg4ekZ9oVx/SbvDCAoyPDcNPBRfEJDuuJx8qm3pN3jhU4jnzRO2xDSasyjYmtbu8SB3nKjUtxEG585wHFTyVCpDnMaGjk4FTdsJJbFwxjcLSTgjB44SNu6MD7cqp3z3I3I4lRcZU3fmSPBRPHPPj3Fcn2k+EbpHQVzn07RUs1+vdPgS2+jmibIwkZAIe5ufmyVzG2eHJSTxXCpu+zmuo47ZL0VTAyrZJUg9pEYHId5IHrXSo8IxteHeQpuxzK3GcDQn3UqiufUkcLIwGtLsZzxOV5rxWUdvtdVWVtfFRwsicXTyvDWx8DxyeC57pLbHR7YdD1t82OT0dRdIS2LoLpvRNp5HdsoaCcAZPDnjmsd+4g28xy3/bPrGo1XURMfM6kyaS1U+ASd2Frslo73uK0K1KdGbhUVpLc38NVp14RqUneL2OR3DaDZr7cZaDSFoum0S7RuJ8ZqZHeIU7s8Dvu6gx/FCyEezDWOsmtdtQ1nJHQO/wDsCwudS0oHwZZWnpJfWN4NI7F6Gbc/B909ELPbtp+i4+jO6yht9zp3vGDjhFE4uPsXog206cuJ3dPaY1zezng6g0hc5Ij/APjGARf+JcWMbvY9sq0Yq0pJI2/TmmdPaTtzLRpqz0lsooshkFNEGMHrwO31rKubnBznC0mLVu025Aix+D7rF4Jw2avqLfRx/O2SoEn/AIF7GWnwlLkT4toPRlpjPJ9bqCWWVvyxxQFp+msioTfIx+nYWGmY2gNwVVq1au2YeEfUUVRUybRtJ0To4XvZT0Vkllkc8NJa0SPlA4nh5q1vSm0vXTtL2Z2qti20Bl7Nupjc2xWU7grOib0wbg+b0m9j1YVHhqi5EQ4jh5u17HTlE81pH7pV8/zM7RP/AJK771E7Sr5n/oZ2if8AyV33qO5n0M3plD/pG8otG/dKvv8AmY2if/JXferFdtZuNroKq53DY9tChpaOF9RPK6zODWRsaXOcePYASq9zNch6ZQ/6R0BF4bJeKPUFlor9by/xWvgZUQ77cO3XDIyOwrm9btwm8XkoLLpkV2oKm/VVjtlvfVdEycwNa580khb1IwHjOGuOSMA9lYwcpZVuZZVYws3z/FzqyLmMe1PV9ogezWug4qCpp7lR0lRLRVr6iiFPUPDTPHM6NheWZJc3dBHBeeTbtDFcta25+nnB2mJooqB7qgBtzDnMY5zTjqBr3Fvb5pTJJuyI76K3OrIrNHLNPSQzzxCKSSNr3MDt4NJGcZ7VeVbNaMyJ3VwiIhIREQBERAEREAREQBERAEREAREQBERAEREAREQBERAEREB6bR++VP8AywunrmNpGLlT/wAsLpy6WE9lnneM+3ExWq7DY9Tadr7BqOnjmtldC6GpZIcNcw8DlfI2p/AT05DXyVOj9oDKSGdx8XpqoB+D8EOC+yqukp66nfS1UYfFIMOae0LkW0+/UNuuMWzPZ1YoLzra5x+MRwvcfF7TATg1lU4eY3Pms855GAMAkd/h3Gcbwpt4Wdr8uR43i3AOH8biljYZmufM+O9qngpVFkoItPXLX/SXi8HoLdQ2Vu/WSyHkR8Bve48lp/8Ag/vBL1/QeFJqrUO1G8VtXBssqfEqYmpkLKivljDgQSes1kb8HsyfUv0H2a7CNN6FpjW3OeW+akqxv114qSeke48S2P8Ag2DsaOzmug26w2u0yyz2+kjhknOZXNGDIe93efWsvFOPY7jDTxM9lbTQxcG7N8P4DBwwkN3fXV/E9/zLBau1G/TFBHcG2uevaZN18cBG+1uOYB5rOla5rr97Iz2iULg1m4wbW56bCwjUrRjJaMt2HaJpTUGIaS5NgqTzp6kdHID8h5rY2EY+X71xuvtNtujd24UUUxHJxGHD5HDiFGgk1hppzfyav5lpm5Jo7iDKw+prx1m/1/ItSONtpNHYr8FTV6Mvc/ydlIPSn5FGoacxZP6wfYVoVs2u0MMgh1na5rFKcNFQ89LRuP7ZvBn+mGreRVU9ZDT1NLPHNDI4OZJG4Oa4EHBBHAhbkKsJq6Zxa2Fq4d2qRseh7MjGUDTu8ypE55KmH44ELIYSMTcjmeaBnlD1jlIg8DsQdJ0hzjCAt1DOMXWPpArr24a7rFW6jfzFnHpArj+k3Ty4oBucMbxwFSNnDO8eal5THMclGPpMEZHNAVDOsesVaqG+i4n0g+wq6Ok3zyVqo3t6EcPSD7CgLrmkN5qu5keceSi/f3exSG+RkYQEY2kjO8eaNZh54pGH7vMc0aH754hAW6lgLouPvwrj2ndd1lbqA/MX8sK68P3DkhAV3OHnHkoxsy3zipdfHAjkox9Ju4yEBUM6xG8eCt1DeMQyfSf3FTHSb55K3U7+9Dkj0n9xQFx7SB5ykGHA6xUJN8BTHSY7OSAoxuW+ceaxsQxPUftCsiwPxwI5rHREmeoz/CFSiGXkRFYqEREAREQBERAEREAREQBERAEREAREQBERAEREAREQBERAEREAREQBERAEREAVlhPujDw4cfsV5W2jFfDnkc/YoZKMg53VPBGPG4MA8lV+6W4VWEbg+RVLFuN/Pqnmqh3lTwPmqsfvvlRpHSn+SEBCofhreqfPb9oVx7xungVGcgNbxHnt+0KbiC04IQEQ8bmcHktZ15r6x7O9Py3+9OfI4vbBR0sQzLV1DuDIox2kn2DJWdu13tdhtVVerzXQ0dDRQvnqJ5nhjI42jLnOJ4AABck2b2mu2uX6n2260tc9HQw7w0jZ6lu66npTyrZmHlNMOs1p4sYWg4JIAGV2Z7Pbqy/1W1baCGz6tu0HRxRZ3o7VSEgimiB5dheebiOPJdKqneTbw9+FcbwlOfgqFUOo0j4YQFwv4HqnkjX8uqeSk7GDxRvIfIEBBjyM9Uniq7w6Tl2KsZHHj2qnDpOfYgIVJGI/2jftUnydXzSo1OMR/tG/aFdfnd5ICIf1fNUSe0q4B1cLyXC6W+0UktwulbBS00IzJLNIGNb8pPBQ2lqyUnJ2ReDskhoJwM8litR6ssOloBNe6+KDfPUZnL3/AMlo4laRdtpN7v0jqXRlC6ko+LTdKyMtz64ojhzvU52B3ZXO9Uaj0Zs6liuOrLjWXe/XNzhR0+6amurZB7yCFvEAd4AaO0hac8Wk7Q1OxhuEyladd2XTmdd0/r27amv0dNR2PxO07jyZ6l2JpMNO7usHIZxzXHtZ/wCEK8HrZpr67bNtplfd9M3a0zdE7xyhd0czObZGFvNh7Cq6Ut22jaPeWSXG4xbPLNMxwZS0hbU3V7C08XyHycRPwRvkd61rWv8Ag89B7QtuOmdf6pqZbjp7T1Bmenral89Zcq4SZaZnu4dGBjqg+rgs9BuUfWepqcRpU6NZRpKysfP220XDVe02p2uacs1ZctMagfHW2ysNM/oqiINA4jGRxB4FahUX7XMt3kvlJW3Klq52NjLKKN0LQxow1gawDAAX6k1Wm69sLbVanWymtUMbY6emNGCIQOG60DhjC8bNGVFOemgorD02fP8AEMFfRcF22pYehGjVw6k4qyd+nuPkfE/6fV8VipV8PinGMpOTVtr9DhngMWPXdJaNVai1tR1cJvFRTupX1TcPkaxrgTx49oX03XwxVFDUwTMa+OSF7HscMhzS0ggjuwrdrhuEFN0dxkgfIOXQs3Ggd2Ffqf0eUY/Vu+xeO4pjnxLFTxLjbNyXlY99wfh64VhKeEUs2Xm+d3c+aKzwd9htbO6qfso0zDUbxPjFPboopgSex7QHD2q5FsX07bwfye1JrKyn3raHU1ayJv8A+F0m5/UugOGM/KVReXU3HmfRXQpyXso0iPSe0+09aybe9VBo5Q11PSVTPnc+Iv8A/Evcy7+Ehbmt8X1zpO6sbwxV2eSOR3+kx4b/AFLaUWT0iXUwPh+He8TVq7ah4RVNQVNM/Z7puudJC9jKijuzo3teQQHBjmnkePNa5pXZvrePStlZqrbHrl98bbqYXN0V1IYavom9MW8OW/vY9S6YiSxE3zK0+G4enyv5mj/udXv/ADwa9/8AmrlQ7OL0eJ2wa9/+auW8oq9/PqZvQ6H/ACjRxs5vQ4fuwa9/+auXnuGyy5XSgqbZXbW9dy01ZBJTzRm6uIfG9pa5p+UEhdARHWm+Y9Dof8o8FjtFJYLLQ2Gg3/FrfTspod85dutGBk9pXKZdkGraFx1JY7hQ+7tt1FX3eghle4U9TT1DGNdDIR5rupkHjj512VFWMnBuS3at9H9jJKlGaSey/FvucL07sMuNRR63rL1prTOnKjVtK2mFvszfJNkbny8kgA3nuJznGeCysGxq6up9FTV9TSPrbY6SW+StOOmdJI6dzWY5jpZHc+wBdfRQptWS5DuYlBgDA5diqiKrMoREQBERAEREAREQBERAEREAREQBERAEREAREQBERAEREAREQHrtP750/wDLC6b2LldPM6mqGVDAC6M5GeSzo1rdCcdDT/RP3rcw9aNNWZx+JYOriZJ01sR2s7QqjQ1mp6SxUnj+pb7OLfZaIcekqHe/d3MYOs49wUtk+zSm2c2ao8ernXbUl4mNbfbxK3ytdVH7I2DDGN5NaB61yfZ9qq5a62m3/arWxQyUtqdJp+xRkHdYxh8vO3jze7gD8HIXWfy4uf8AAU/sP3rZ9JgcyPCsTJXSXxN34ZzlVyFo35bXP+Ag9h+9Py2un8DT/RP3qPS6Zb9JxXRfE3la3rr964/2ixX5bXT+Bp/on714rrqGtu9OKepZE1rTvdUFUqYiE4NIz4bhuIpVozmtEYjip8VBTXOPRXIuaHgtc0EHgQRkLDs0/Na5vG9KXSezT9JvujhJNPKf40R6uT2uAB9azSK0XbVEWurPY99r2q1ltd4tra0mnYDuivpQXwu9bm82roFBdKG6Uray3VUVTA8ZbJG7eBC5e7dcCx7Q5p5gjIKxUdoq7TVm5aTuUtrqid50YO9Ty+p0fL5xgrZjipR0epysRwmlV9ak8r6cjtzSQFQPO+Rurn9j2rQ00sds1zSttM7zux1gJdRyn9p+rJ7n49RK6BG9knXjeHNcMgg5BC34VI1FeJwa+GqYaWWorFuodkxcD6QKbpct80qNQQTFx/WBXHOaRjeCuYAHjd5Hl3KMcnV808yphzcecFRhAGMhAUEnWPVPJW53ZMXVPpP7irgI6U8RyUKgjeh/af3FASkd1ScKQdwHA8lSTAbzUwRgcexAW43dXkeaB46Q8OxSiI3efaVQbvSHkgLdQ/jFwPnhTlkG4ctKpPjMePhhTl8woCgkG75ruSpE/q+aVcHm/Moxeb86AiJPKHqlRneMxcP1n9xVxpAcQrdSRmHj+sH2FATe4bpJaqiT+IVR5GD8imCMc0BbjeN3gDzWNh9PUftCspERu/OVjIv0io/auUohl5ERWKhERAEREAREQBERAEREAREQBERAEREAREQBERAEREAREQBERAEREAREQBERABzVo4NwhaW5DgQfYrqtZzXwY9f2KGStz3GjpMfo0f0QjaOl3R+bR/RCm4YbnJRrTgYPBVLFtlJSHOKaLgfghR8UpelP5vH5vwQrrWk5we1UwRKePvUBZqKSl3Gfm8fnt97/ABgrnitN/As9iVDTuM4+/b/aC59to1hdLDZKTSulHZ1Rquf3NtgAyYQRmWoI+CxmTnvIQGt3mnh25bQHaSiiDtC6SqY57s9mDHd69p3mUpPvooyA545OIDTwJC7JHS0/H83iHH4AWC2faItmzzSlFpa1AGOmZvSye+mmdxkkce0udkrYBECSQ48SgIimpt/jTxfQChVU1P0bcQRjrjk0K61h3t3ePBQqWEMb1j54QEnUtKWn83j+iFUUlLj9Hj+iFV0Zx5xUmtIbjJQFmKlpTvfm8fP4IVRS0u/+jR/RCnEwgHrHmm6ek5oCzUUtNusxTx+kaPNHepmjpfi0X0AvNe7hQWigdcbnXRUtNA5r5JpnhjGNB5klcxvWsr9rhzqaxvqbNYjzqnN3Kmsb/EaeMbD3nrHuCxVK0aS1NrDYKpjHaO3U2HVe0C02iY2jTlshu93IOI2YEUPrkf2fJzWlustRd65t41ZVNuFWxxdDDu7tNTepkfLP8Y5PrXvt1roLVB4tQQMij5ntLj3k8yV6QADzXNq1ZVnqenwmDpYRWhq+pqW0nWkmh7CyejovG7tcp2W+0UecdPVyHDAf4o5uPY0Erx7PNnEWlOmv2oq43zV1zAdcbvMMuz/Awg+jhbya0d2TkklY3WDI6rbjoWnrgHQUtBcaumB5eM7gZn5eje9dJAOclY5OxmXrSu+Rl9KktvkT3H3p449S6IMYXKaeonpJhPTyljmgjgvYb/eOyuf7AtmjXVJanNx3D54urni7aHSsjvVVzQ3+8dlc/wBgT3fu4H6c/wBgWb0yHQ0v0ar/ANI6UeStVJ/N5cfwbvsXOvygvHPx5/sCty6kuQbuy3PdDxwDiBkK3pUWtEV/SKqd3JHkJJcc9hKooGeEENMrN53r5o+WJnnva3PLJwue0luejUlsTRU3m8OI4oXBo3nHAHEk9ipZk3TKoqbwIznhjKo2SNwLmyNcBzIOUsFqSRU32fCHtVGyMeXBj2uLTggHOClmCSIiEhERAEREAREQBERAEREsAiIAcb2DjklgEREAREIIOCCCgCImOXr5IAiIj0ARCCDgjCIAiIgCIiAIiIAiIgCIiALx3mrkoLRX10IzJTUs0zP5TWEj+sL2KE0Mc8T4Jm70cjSx7e9pGCPYpjuQ9jQdg1LDQ7JtPRwjPSU7pXHtc5z3Ek+viugrmeweaWj0rV6JrCTXaTr5rbMDzczeLo5Pkc08PkXTAOxTLcrTfqoIiKpcfOiIpTaAREUAIiIChGe1MKqJcixblghnY6KeJsjHDDmvGQR3ELwWxl70a50+kyypoSd51pqnZjHHiYXHjGf4vm+pZNUx61aMnF3RWUIzjlkro27TetNO6tYyOmjFNXRSATUc7A2VhHPA7R6wtmNPAD6GP6IXG7nZKW5PZVB8lLWwnegq4Duyxn1HtHqKzmn9pFbapYrPr9zIt8iOmu7eFPM7OAyX+CefX1T2HPBb9HEqWk9zg4zhTpp1KGq6czpAggP6hn0QpCkpv4Fn0QkZbK0PY4EOGQQeaubpxglbl7nFLIpaUvPkWcP4oUZ6amzEOgj9J8EdxV1rMSE7xUJ2ZdF1j6T+4oA+lpQ0+Qj+iFJtNT7o8hH9EKT4xuHiVUN6o6x5IC3HS0wb6CP6IURTU/SHyMfAfBCusZ1fOKoGDpCQexAWainpsxeQj88e9CnJS0oafIR8P4oSob1o+PvwrkjBuEoCApKXA/N484+CFRlJTAY8Xj5/BCuhnAcVRrOHNAWhS0vSH83j+iFGopaUmLyEfpPgjuKvBg6V3EqE8Y3ouJ9J/cUBV9LTbpxBH9EKopabA8gzl8EKT2dQ8SqhnAdYoC3HTU4bwhj5/BC8EX6RPgcpD/csnG3DefasZF+kVH7VylEMvIiKxUIiIAiIgCIiAIiIAiIgCIiAIiIAiIgCIiAIiIAiIgCIiAIiIAiIgCIiAIiIArTP0+H5/sV1Wmfp8Pz/AGKGSjIyB24Ubvlo4jkkjjuHqlVYcMGQeXcqliEe/wBbBHNUIeJeY81Sidz4HmqFx6TOOxARmJ6Nu98Nv2hcj2dtO0LarqnalVgSUFink0tYAeLR0LvzuZvrdNmPP/ZLoutr03T2k7ne5Gkihpn1Hd5oz/ctX8HiyGx7EdE01Qd6rqLJS19a8cpKupjE9Q/170ssjvnQHRByVGb+DxHNV7cqjTjI3TzQEW74lOcclGpLyxvLzwph3lThruXcoVLiGM6p88IC44ybp4BBvEZBwqueQ3O6VTfwOR4+pAUaHd6xGp9VWvSlEay4y5kd1YYGHMkz+xrR2rzav1nQaRomyyRPqq2pPR0dHF6SeTuHcBzLjwA5rmlJb7lXV8mo9U1Tau7TcGNb6KkZ/BxD1druZWtXxHdaLVnT4fw54r16ukfqXKz3Z1hVsuer9wQRP6WktjTmKAjk5/w3+s8uxZFMYRcyTzO7PTRjGEVGCskERFCdi2xzjbRb7jSUVo2iWOlfU3DRtZ7oGnZ51RSlpZURDvJic/A+Fhb1ZbzbNQ2mjv1lrGVdBcIWVFNOw5bJG4ZBC9cjWvaWPaC1wwQRkELjc9XUbAL46WWB79m94qS7fjBd7gVT3ZdvAcqd7iTnkxxwcAhW3MTbhK62Z2bOUVuCeCpgjqaeVksMzQ+N7Dlr2kZBBHMK5lVMt7hERAantTsLtRaHuluF7uFsa6ne6SShl6OSRgBJZvc2hw4EtwRngQVxe/6J0NrLYjsqst+0dZLxd7/ZLTbaWrrqOOaang8VjfM6N7wSDgDl8JfSckUU0ToZo2vY8Yc1wyCO0LwtsNkjjt8cdppWttLBHQNEYxTMDQ0BnweqAPkCzU55YuL5tP4X+pjlC79zOD7RtIbN6jUdm0Fo222mLWVv8TMd2lkYJbHRxOGHsc47zScYaxvnE8eC6Ltjs2ktU6Xlt95t9gudW1kz7bSXepEdKZw3G8c9XeZzGeII4YWZuey7Z3e70dR3fRtsqrqS0msfGelO75uSDxx2ZXsvehtHakoTa75pyiraQzOqDFNHkdKebs5yCVSc1JJPfmYo0pKTeluRwKqpH3/Z1sr1PLqK8ObQajtNMaQzFkEsnj0bC93vpABkN3iRgg4zgro+26G0XiTStl1B4rUabrbz0F3iqJB0DmiPLI5QeBaT2O4cl0N2nrE6jpbebPSmlonxy00G4NyJ8ZBY5o7CCAR8is3LSWmLzQVlsutjpKqkuEnTVcMrN5s0mAN4+vACmclJKMeUr/TT5GRU2oW52t9TjOi7lcKXweNQGw1DpDQtuLLQHyne8XYXCPd7d0chjgBhadaG2CxX256E2ddC2zaitthEsVE4dEKmRhfNP1eHSvaxpkPnEnLuK+m6XTen6BkEdDZ6WCOlgNLCxjMNZEebAOWDgLx2XQei9OsbHY9MW+ia2d1SBDCG4lcMF3y4UpxVTM9tPeY3TnlST1/c5Pc7RV6Y213Csorzca6qn0TWSU8Usvk6YRzRBjImNwB8uMntKwXg2xxWXU9FQyW/T7rhqTS1Ne62rs7HslbM4jpGVx3iJZy9zjvuAdzHJfRTrZbHXFt2NBCa1sLqcVBaN8REglme4kA49S8Nk0fpXTVTW1mn9PUNunuL+lq5KeINdM7vcVaFTRZuSt83+fkXnRU3fbW/0/BlwABgInJFgZmCIiAIiIAiIgC5PqraJedBa01VRXesbLbpbFHdLGx4A3KgOMLosji7ekLDjsyusLR9oWyLTG0q8aavd+mrIp9L1hq6dtPIGsnyPRyjHWZkA47wrRtfUx1VJx9Xc4VdNoWv6LWc2mNT7SdX2+oprHRVkMNks1NUtlqJg5zhK58Ti0cgOS6BaLrtP2iX2PScurKvR1Tp+x0NXc3UdNBJNVVtQwuDXdK1zQwBoyGgHJPFdQtujrdbNZXXW1NUVAq7tTwU0sRd5JrIgQ3dHfxOVgtZbKodUX1mp7Rq29aYuxpzR1NVa3Rg1UGchj2va4cMnDhxGVMbJK/j9Xb7FJ02nJx30+iv9yzW67fYdMy2rUOorUNWNt008cVO4kSuY04e0Yx2Akd65Rse2m3Ss0hTayue0nXGoK2n0068Vlrr7PTU1FLKIRI4MlZE13PIb1uIK7jRbO9M0Gl26VhpN+JtK+lFVK1r6kBwO87pCCckklatpzYrcLDYGaRn2sapudhitjrTHb6ttPuNg6Po24c1gdlreXFWjJRjLqxJTaWnuNZpfCL1HT0cw1Ds+ipa+roqSss9PDXdIKrxiRsbGSOx5N289uefBY6ybaNrFFfbjpm66PpLlqC4ahq6CgohWCOnpIYaaGQDpA3L2kyO6x4roN32JaUusB8br6+F8dritcM7HtDoBG9r45mkjhIHNBzy9S1K5eD0+a82W4WPaJc46uO4VlyuV1kqIzXPnmhjjDo27u5jEfEEADsVmoOV47fu/tYwU3Ws41HrbT4L73sXZfCGvVxt1JUaS0NHX1cVtmut3hmrOjFNDE/ce2M46797kOHBeVnhA3yvqYItE6YffZr9VyG3x11U2nZFC2khqG5LW5AIlxg5IPatjuXg56aqKC30No1FerN4rRyW+qlo5W79fTPdvPjlLmnzncctwVlrTsS0lY7zRXm2zVUJt0kslPTtkHRsD4IoNzlnAZCzHrynqONpfIyqNS76W0+xqehNq2tNc7S7FTMtNNRaeuOmZbhUQmo3pY6lk7WEjhxAPV58QSVjayp2k3/WG0y4WrardLPS6Nkjkt9tjpqZ9I8Npulc2UvjMmHEEHDhgHgug6Y2P2TSV9tN8tN6uIdaaCa3CF7mGOeKSTpOvwzkOwRjHJYq87CYbrqHUF5pdomorbR6pfG67WylMIgqA1gYW5LC9oc0YOCsc3FqNuV/q/sRKFSSV/f8PyaRcfC0pbZXUVE+yUlR0FLRT3f84c2cGo5eLRhp6TABJyQtlu23V5obnR0FllbdKCe60tUyOUA07aSNrxMC4EEPD2buRjOe5ZW7+D9pG43mnutvuddaImQ08FVSUYi3KqOH0Yc5zS9mBkZaRnKyNRsX0lU6q1Tq41Nayq1bbW2yrjbIOihYGlpfG3HB7geJ7cBXm4TjtqWUaq0T0MDp/bDqG8kVdq0mLjYrYyOK717qoNqYZSzeeWxgYc1o5nh6l5dkHhC0+1TUrrG22UcMNVQe6lvnpKl0u9BvlobOC0COTADt0E8Cs5SbC7HQXFtRRapvcFtk6N1XaopmNp6uRjd0PkO7vZI5gEAr0bPtjNl2eXWS5UF+uNZEyDxSipJmwsio4N4uDGbjA53E4y8k4ACiTg5N8tf2MdONZQinurXOgIiLGzbCIigkIiIAiIgCIiAIiInYHLdoNNX7P9WRbXrPTvmtroW0epqWJu8+SlHmVDR2vj5+tuQul2u5269W6mu9orIquirImzQTxOyyRjhkEFXZI45Y3xSxtfHI0texwyHA8wQuPG3VPg/6hNyt9RJJs3vNQBVUrsuFgq5DgSM7qd7iAR7xxHYeF9zGlkfgdlwFFIpY542ywyNex4Dmuacgg8iCiqy4REUEhERAEREAREQBERAFbqKaCsp5aaqiZLFK0sex7chwPYQVcVWkAcUCdjx2PUV50DM2JxluGnBwMXF01EO9pPFzB3dnYusWu50l2oorjb6uOppp270ckZyCFzMtBGOGFirfU3TQVxfd9PxSVNrmdv19sac/LLCOx3e3txw489qjiHT9WWxzMdw6OJvUp6S+v7nahvb6jPv70WMek/uK8Vivtu1DQQ3a1VDZ6aobvMc08u8EdhHcvbO/jEcfrP7iukmmro8xKLi3GS1JPMm4cAKQ6TdHEclR7nbhwwlVD+A6jvYpIIs3y3sQb/SH5FWN53eLT7FEOPSuPcEBGo3t6L9oFckD9w8QrdQ7jFke/CuSO8meqfYgK9fHMclFplxwx7FLf4Z3T7FFj+r5jvYgKAydI7gOSjUGTMXL0g+wqQkPSHqO5dyjUPIMPVPpP7igLkm/uHgqjpMDzeSpI8hh6pVQ/qg7p5dyApHv45hYyHPT1Gf4Q/3LJxu4cQfYsZD6eo/aH+5SiGX0RFYqEREAREQBERAEREAREQBERAEREAREQBERAEREAREQBERAEREAREQBERAEREAVpn6fD8/2K6rIANfCDyOc+xQyUZNzmbuA4e1VDmlvnD2q06mp8eiaqtp4Az0YVSxWIgZ6w596qHDPnDl3q3HTw8fJjmqupqfOOjblAY7VVpp9QaerbHUEGOvidTvwex3A/atH8HjUDq3ZfZ9LXaVrL/o+nj09eIHHD21FK0Q9Jj4MgYJGnueF0aenhDW+TaPKM+0Ll21LZjfG3ePanspkipNW2+PcqKKR27TXqnHOCUcg/HmP7DwPDkB1ffYeTh7VUOb8Ie1aTsu2i6c2oWF90tlNLR19FKaS62uqaWVNvqm+dFKw8R3g8iOIW5dBB/BBATDmb/nD2qFS5m43rDzx2oKWnznogrdTTwhjQIxjfCA9D3N3T1h7VgdX6todI2h1wqGGed5EdNTRnrzSHk0ervK994r7VY7ZU3e5yxwUtJE6WWRx4NaBxXIaR9x1Hd5NW3yEwmQbtuon/wDVIOzeH8I7me7OOxa+Ird0rLdnS4dgvSp5p+yv5Yrb6C4VVbLqHUUoqLpVjiObKePmImZ5AdveVlFLI71Fcp76nqdErJaBERAEREBQjKs1lBSXKjnt1wpYqilqWOimikaHNkYRgtIPMEK+SBzOFVrh2cQpVyrSOQ2N0+w6/wBPpO6Vj5NFXmcQ2apmeXe5lS49Wle4/q3HgwnkeC678vBYjWGlbRrXTldpq9U4mpa2F0bu9h7HNPY4HBB7CFrOxTUF5v8AoZlNqSoNTd7FWVNlrak86h9NIY2zH1vYGPPrcVNrmOMsksnI31FQAjsVeXNVsZQiZHemQlgCtc2g6qn0RpGv1VBbDcPc8MkkgD90mMvAe4H+KDn5lsZGV5Lrbaa8WustFa3egraeSnk4Z6r2lp+1Gna6IepzLaLt1bo2klq7NYBd2U+nZtQzPM/RsjY0Do2E44F7nD5gT2Ly0u3W62Wasj2hWOzUjYbUbpA+y3QVweN8MEb8DqPLnNAWv23YDribZNrXSepbxaK2/wCooH26jnY6QU8VC0FtPG8lucgOO9gLoNx2IaHfoi66W07ZKCyT3WmjY+qpYzvCSMhzCcnJAc0cO7K2GoJX/nP9jCnUai+fP5fvYlo7XeubldKWh1loKO1U90hdPQVNJVGoDQBvbk4wOjcW8uzsW/DePaFz7RlLtlNzoYdaN09QWm2wuje221UtRLcX7u6x79+NgiA57oLuPaug7oVKlr6bF6Tk43luVwe0hFTdCbvyrHYylUQDHYmD3KAETB7kPDmhAREQkIiIAiIgKhUREAREQN3Oa7fLdQXfRtFarrRQ1lFV3q3Q1FNOwPjljdUMDmuaeBBHYVe20bG9kugb1s/vOh9mmmLBXt1A2nFVbbXDTy9EYXks3mNB3c9nJT21f83LV/3/AGz/AHli27wlT+caA/nKz/YvW9RS7uRwcdJrGQSfQy7j8nFQKk7l8ygtNs719BgdyYHciKoGB3JgdyIgGB3JgdyIgCIiAIiIAiIgCIiAIioSBzIQFUTIPIpgniAliLoLyXa126+2yrst2pmVNFXQvp6iF4y17HDBBXolligaXzSNjaBklxwAFzrUW2/TkdRLp/Z6Py01LgsjoLQ7p4qeTsNVUNzHTtHaHuDiPNBKyRWhWclHcnsOra6PTlz0lc6qSpqNK3WotDZ5Dl00LD5Nx/0Tj5l0Vafsv0bcdHadkF/qo6q+Xerlul0miB3DUSnLmsz71vABbflVluRT0irlUVMplVsXuVRUymUsLlUVMplLC5VFTKZSwuVRUymRnCWFyqIOIyBkcsoguEIyMFEQkxdLXXHQt1fqCzxPmt07t65ULe0dssY+EO3vXXaW6UN3o6K526pZNTVJEkbweBBaVzb5RleCw3R2hb6yOp3Dpq51Dd8O/wCoVLsgOHdG8kA9zvlW1hquR5XscviWB9Ij3sF6y+f7naC9mPOHtRr2485vtVkQ0zm7zY2EEZBHIqQpacfqmrpnmCbHs3fOHtVGvZvnrt9qiymgxjomqjaanDz5JqApO9m9F12+eO1XXvZu+e32rzz0tPmLyTfPCuupafHGFqAuB7MDrt9qoxzMec32qApafHomqjKWnxkRNQEw9u+es3Hyq3UObmHDh6QdvqKqKWn3z5JqhUU8IMOIm+kH2FAXZHMx5zfapNewAZe32q3LTw7vomqraeHA8k32ICUb24zvD2rGxDFRUftCvfHTw49G1Y+LPjFR+0OP6lKIZfREVioREQBERAEREAREQBERAEREAREQBERAEREAREQBERAEREAREQBERAEREAREQBW2t/5QhHqd9iuK20n3Qh+Q/YoZK3Mg5p3c7xRreoOseSOD908VVu9uDiOSqWIxtJz1jzQs8pzSPf44I5p1+lz6kBCpaQxmHH0jP7QUlGqDyxuP4Rn9oKe64DJIQHKNpmzC+xXxm1fZLNFRazo4gyqpZDu018pW8fFqjHvvgSc2n1ZB2rZltLsm06wC7W6CegrqZ5p7la6sbtTQVDTh8UjfUQcO5EcQtt3XcxxXKNpmzHUEN9btY2TSxUmsKKMMq6KR27TXymHHoJuwP+BJ2HgeHIDrPzK3UnLGjveAtT2X7T7JtQsb7nbWS0VfRSmlutqqm7lVb6pvnRSsPEeo8iOIU9p2pJbBp4w0PG43GQUlG0cw9w4u/wBFuSqTnki5MyUqcq01TjuzUNYXoa11G+zUry+z2SUGoGerU1Q4tb62sPH5cdynnPYvJZ7bDZ7dDQQc2DL3HiXvPEuJ9ZXsXHlN1G5M9nSpRoQVOGyCIiqZAiIgCIh4q0WDlOvX6sv216w6Fsm0W5aWoajT9bc5TQRUznzzR1EMbQTMx/ANkccBYe87ONptXKaTTHhY3amqmgtdHUUdsndvDn1WxArVdrFFPH4aex2qNyqnxzWm7NFNkCKMNDcnhxOcgnOeQWzO2e7Obxthu17NmpLbS6QoXVFbWRyOh6epqQXyPe7exhjBk5+Es2VqKk+ZqTSUmuenzMdZNkfhB1VSXVnhf1lwpWO3Zm0NloA8d43gw7pWc03sNumkqU6b0/4QusIN18lVJC5tufO98ry98j96EvcS5xOSq7H7NaptY3TWOi7ebLpGppmUlLA4lpucgdk1ZY7rMb2NJwXZJxjGcZtDp7BZdpml9YWFlC9s97fQXetpa509c6ocwBtMYh1RGAAXZOW5HV4os2aMbblE6ajKe9v5+xtTdluuekLB4RGtC9uCWint2QOw46BVm2V65BaZfCH1oHO4NzTW4F3DkPIcVjdCWeWw7ctbxy3mvuLqugoKiSSqk3ujz0nVY0ABrRgDAVzaZaZRtf2b6gfe690clfPTMohLu0zB0WS7dA6zj3kn1KqTbRs5INyXQ9P7mesHz+Jf4x+rzUNbvGHorZ0gHeW9BnCS7L9YUz42VHhGavhfK7djbJDbWl57gDBxPyLluhJrtQ7SrVqjUcNnqay9ajrrWGRulFyhLY3kOed7ddGGjjHucB1srO7dYrfcNT6mlv8AVNifZNOUdXYS2ctcyodUYfIwDm7e3W548DhUlLLlfXp5XMayyzK23j42N4qdmerKKN0lX4SWradjcbzpobYwNzyyTBwyrUmzXVkccVRN4SWrY45iBE98Vsa2QnlukwYd8y0+Gs0xfNP1usdpVtmvDa2rprfabY1znmumjj3WBrGkZJc8k56rd3eJAGVqNy0fPp6hpdK68ro5vc3R90vNrp3VJLKOrfVOkiiY4HruhDo4gcng3hwWSUdXHoY+8jlUktzs7tlGu3cf8YXWxz2+KW7/AIC8lRs41NSRiWs8JfVVOxzi1r5W2xgLhzAJhAJWy6ZpLtqXZPa6a4XOtt1xrrTG2eqgwJo5Czi5uQQCuO2C0aab4M1HS3m0wXiohu1ztdqdcHuke2Z9yqI2uLiclwaCcn4KtUjkbTezsZI5ZQjO2/4ub0dnupGxxyu8JvVAZMcROItYbIe5p6Hj8y9Euy7WdPEaiq8IvWUMTRlz5ILaxrflJgwFpettn2grFpGy7LbJp9t11ZLb3Q2qF872to8kdJWSOziKNrjneOSThrQXEA9Wv9gsU+irdpzWFbR3WVkUFOBXVRpo7jVMjwN8jj1yC4tAPPkcKklaGfkVTvLK1yua6NlmszD4wPCK1iYd3e6QQW3c3e/e6DGPWpu2Va4ia50nhDa0a1oy5zqa3AAd5Jg4LkF4tlZdPBs1Rbqq919BPpasrGTU9BO7xWR7OLIo5T1nwtyOPDOMEYXbNvM042fiJkojp6q4UcNc/pNzFO9+H5I4gE4Hzq045IZuf7JkwyTWa3X5Ox4IdmOtKmJtRS+ETrKaJ/FskcFte0j1EQYKpHsz1jM+WODwjdYSvgO7K1kNscYz3OAg6vzrH7H/ABezx7QbLpucG0226SR22Nsm/HE7ogXRsJJ4A49q5Rp+70WmhYrlp+Z7rrqbSVS69wxTl7p62SqMRe7J9I17pWjlwZjsWNtqWXwJiotXf1OyjZvqw1LKMeElqzp3jebFuWzfI7w3ockK9sQvV9qhrTTmptXz6hrNOaoqLdT1FU2GOp8VEEEjN9kTWjnI7B3eK0uv0Lpu56qsFg0dBJHqSyVdHX3m+ulcfFWRkPNNvE4c6QAtMYzgOJdhcp8HGruR2ivvcr5G368bQ9VUl34nemo4ehEIeD71nJpOOCvGGdXv1+2vkUk1HVcrf+eZ9sInzIsDNwIiIAiIgCIiAIiYJ4NGSUBz7bV/zctX/f8AbP8AeWLbvCV/SNAfzlZ/sHrlOs9o9o2kQ2ywaH09rK7TN1BRB1VBpG6GiHRVDTI7xvxfoN1uDl2/jguqeFD47S0Ojr3DYb3dKa16gZUVbbRaqi4TRxdE8b/RU7HyEZI5NW9RX9uR57Hyi8VCSZl3eb8ygOS17R20PTevH3GGxMu8FRansjq6a62arts8ReCW5iqo434IBwcYWxLSfQ78bNXQREUFgiIgCIiAIiIAiIgCIiAIiIAOY+VcU0fZ9oG0i6a0uku2TUNkgteqq20UdDQUdE6GGCFkRaAZIXPJJe4kkldr7vlXNNg/o9of8/7r/YgWRbGGavJJlZdkOtpW7rvCD1oB/Fo7cD7RTrDXXwdtTXhpbVeEjtLjGOHi9RTQkfOyILtGcdqpvBHKxLowPm//ABJ7VPIZLztv2h33J3ty91NPcIwfUyeJzR7Futp2GaksVHHbrNtz1VQ0sIxHDT262MYweoCnAC62So5CnvJIdzDoczOyfXm9vf4xGts4x+iW7H+wUTsp17n/ANYjW39Et3/AXTd7uUd71KM8mO5gc0/co17/AO8Rrb+iW7/gJ+5Rr3/3iNbf0S3f8BdL3vUm96kzS6juYHNP3KNe/wDvEa2/olu/4CfuUa9/94jW39Et3/AXS971JvepM0uo7mBzT9yjXv8A7xGtv6Jbv+An7lGvf/eI1t/RLd/wF0ve9Sb3qTNLqO5gc0/co17/AO8Rrb+iW7/gJ+5Rr3/3iNbf0S3f8BdL3vUm96kzS6juYHNBsp16Dn/GI1t/RLd/wFcGyrXbuLvCF1pn10du/wCAuj73qVVKlLqQ6MTi+o7Vr/Z1qHRVU3bJqO9Ut21JRWuroa+kohFLDK8NcMxxNcDg9hXaFzPbUc3DZ1/Pa1/7YLpiiTdiYRyzaXgERFjMoVispaetppaSrgbNDMwsexwyHA81fPJEJRk9mWo6iN0+iLxVOkrKJnSUczzxqKbs+VzeRXRQCW+ceS4lfIayA0+obSMXC0SdPFw89vv2H1EZC6/YrzSags1HeqB4NPWxNlZ6s8wfWDkfMujhZuccreqPM8Ww0aNTvYbS+p62tOeZVWs656xVWNdzVGh++VuHJIzs60XE+eFORuGE7xUJ9/ei5eeFOQPLSOHFAVDOGA4qjG8POPBVHSY7FFhlwOSABp6UjJUKhmTEMn0n9xUwX9KR6lCcvzFyz0n9xQE3sO4esVIM6o6xUZDIGniFIb+6OI5ICkbMN84rGxenn/aFZJm/u5yOaxsf6RP+0KlEMvIiKxUIiIAiIgCIiAIiIAiIgCIiAIiIAiIgCIiAIiIAiIgCIiAIiIAiIgCIiAIiIArUZPuhF8/2K6rTP0+IZ7D9ihkoyLpAGngeSo1/UHA8lJ2N3Bwjcbg4jkqliEb+fVPNV3/K8jwVYyOtx7VXI6TmEBaqZBuN4frGfaFN78tPVKpU43G8vSM+0K5IeocdyAg2QBo6pTfGScH2KTfNRAcs2k7M6v3Y/dX2Zg0OtbfEOkja4tgvUDeJpalo4OyM7r/OacYOMg6jZNodr2y3M6utYljpLO0240k4xLTVowahkjexzDhvzFdu1Re6fTenrjfqo4ioKaSd2O3daSvlG8WC97KqyLatZKY1FPVxCTWVBD50z3kufWMbyL2ucd7tLQOeFpYt3tBM7XB6dpSrtbaHZxkYypLx2m7UF7ttLdrXVMqaSribLDKw5a5pGQV7FoSVjvoIiKCwREQBERActvNst9b4TGmKusoaeeWh0hcpaZ8kYc6F5q6Zpc0nzTgkZHYSuhVFhskrbhC+z0bo7oT480wtIqct3fKfD4YHHsC0avOPCOsP8zbj/vlMukPHXJHarN3jZmKMVmbNNsmx/ZPphtS3TmzXTVrFYzo6gUdsii6Vuc4dutG8MjOCsodC6Idqc62OkbQdQuj6J118TZ42WYxjpcb2MetZ3B7kwe5LtassoRXI8Eliss01VPNaqSSWuibBUvdC0umjbnDHnHWaMnAKVFrsrmUs9ZQUhbawZKZ8kbcUoDcEsPvcNGOHYF78HuWD13kaG1IRkYs1d/u70UuRM3ZORoH5bbHBqOq1XQ6DrrhdKqM0s94o9OGR1TEOBb0wGXs/qULjrTY/c22p132XXedun8Otj59LOcKANGAYsjyeAOzkAvoPYoxrNkej2RgNb7j03BowPMC3bdPa7IXQjhIpLVnnHxaqnZJHzpNonZLtJ0xQtrNI6fv1jc81VLFU0EUsTJHZ3nta5uGu4nPbzXo/cr2Zus9u08dAWA2uzzGot9GbfEYaSUnJfEzdwx2eOQsPsDaG7OYmgAAXKvAA5AeMPXRMBaEo5W0egpNVYqbW6ICOONojY0BoGA0DgB3LHN01ptlBFbI7DQNpKeoNVDAKdojjmLnPMjW4wHFznHPPLie1ZN3NRwe9RmsXSsrGr6q2V7M9c1sVx1ps/wBP32rgb0cVRcbfFUSRtznda54JAXrqtCaLr7TUWCv0raam2VbI46iklpGOhlbG0NYHNIwQ1oAGeQCzyKqvsTlTd2a/WWLQ2ndHT2eqs9poNM0dM4TUhp2NpY4QMkFmN3d9WFpdRtQ2aXJ1ZNVaL1DVC5QNgqXu03I8VMIB3WuJ85uDwB7CvT4S3/QLrjn+89Ry/kFfUbg7PB2B3YW5Soqqnc5WPxssI4wppHyvpTV+yKOos2lLLpOfT7IJiy1RVFjNFDHM8Fu7EcYa92SOGM5wtxodn+hbVVVtfbdHWamqblO2rrJo6KNr6idvmyPIGXOGTxPFZXwnxjR+lXO4ka801g45f8pQr1A5UV6fdS0e5l4fXeKptyS0NSn2RbK6zUo1lV7ONNz34TNqBcpLbE6p6Qcn9IW728O/K0/Yjp6xQ602samis1E27VGtaillrhA0TvhbSUpbGZMbxaCSQM44rrw5j5VzLYv+++1L+flX/udIsGbKjcnBZkzpiIio3cyhERQAiIgCIiAJnGD29iIiBjPBtqTbK/XuhHdUWi+Gup2fBp6pu+wD1Dcd7V2twGVwDR1T+TfhGRMcS2n1dYJIe4PqqZwe35cRCRdT2sai/JPZrqa/tkLJaW2z9A7/ALZ7dyP/AMbmrr0Hmpo8djKeTESj4/U4tsrqvd+o1Xrri5uor9UzwOPZTxno42/IMO9q31a1s1sn5PaDslqc3dkjpGPlH/aOG87+slbKuXVeabZ6vDw7ulGHgERFQzBERAEREAREQBERAEREAREQFW+cPlXMdhhwzaHj/L+6/wBiBdOHMfKuYbDOW0T+f10/2cClFJL1onTsnvREUFwiIgCIiAIqhpdwCoQQcEK2Ui6CI0OdyCKGrC6ewREUEhERAERUOcqYuxDOabaf3w2dfz2tf+2C6YuZbav3w2dfz2tX+2C6aFZvQqvbl7giIqFwiIgGA7geRXs2WXA2m8XbRUh8iCLlQceUchIkaPkeCfkcF41iq+qdZb5ZNSxncbR1baWoIOMwT9Qj6fRH2rJSn3c1I18VRWJoypP3eZ2xjiRlA8b5GCowvaWjBU243zjmuyeLWhaneN6Lh78Kb5Or5pVJ8Zi5eeFceRu8whJQP4DqlRZJkeaVcBGBxVGkd6AtiQGQ9U8lGodkw8P1g+wq4COkKhU4Bh/aD7CgJSP6hyFUSYaOqeSq/ACqCC0cexAQjky3zTzWOi9PP+0KycWN3n2rGR/pFR+0KlEMvIiKxUIiIAiIgCIiAIiIAiIgCIiAIiIAiIgCIiAIiIAiIgCIiAIiIAiIgCIiAIiIArLQ03CIOAIII4/IrytNGbhD8/2KGSj3OpaUtPkI/oo2lpd0Yp4/ohScw7nByk1nVxvFVLFtlLS8R0EfPuVBS03SH83j+ipsZjOHFA3ymcoCzU0tNuN8gzjIweb6wrhpKVoyKeP6KpUtO4zrH0jP7QV1wyCCSUBabSUpbnxeP6IVfFKT4vH9FXGA7vNULcnmgOf7YGwGx2+yxxsa663KnhdugdaNjukkb87GOHzrDSxxzNdFMxr2PBa5rhkOB5gjtWQ2m5l1VpukOS2FtTVY7iGbg/tleFcrEy/us9bwyKjhI+N3/PgcioXO2J6tZZqhzm6H1FVbtBK85Zaax59CT2RPPm54Bxx2rrmc9qxupdOWfVtjq9PX6kbU0NbGY5WHu7CD2EHiD2ELRdm2or3p27S7I9eVonutBGZrNcJOqbtbgcMcewzRjDJAO0B3DeWF6mzH+27PY6aiIqmUIiIAiIgOaXP/ANY2xfzNuP8AvtMulrmlz/8AWNsX8zbj/vtMulqWUhz8wiIoLhYLX5/9A9S44f8AI9d/u71nVgtf/wDMLUv/AHPXf7u9Stys/ZZ0LYpx2SaP/wC5qX+wFupWlbE/+iTR/wD3NS/7MLdSu2tjw73PmHYIT+51Fx/+0rh/vL10TJ71zvYH/wBHMX/eVw/3l66IuLU9pntMN/hj5BERVMwREUrchnNPCV/6Bdcf9z1H9gr6lwF8t+Er/wBAuuP+56j+yV9Sro4XZnneMf5I+Rxvwov+Z2lv596a/wD3KFehnmhefwo/+Z2lv596a/8A3KFX28gsWLfrI2+D/wCN+ZMcx8q5lsX/AH42pfz8q/8Ac6RdMHMLmexf9+NqX8+6r/c6Rar1R1pPWJ0xERULBERAEREAREQBEREDRNpFUdP33Q+uGybjbJqKmbUSHkymqD0E5+rkctt8KStfPo+yaMhcDJqa/wBJSSR9pgjJmefmMbPatd2u2A6m2bagszAd+ahkdGRzD2jII9eQsZX6sk2qa82X3BzGllHpAalqcEYjqaoMj6N2PfDcdw7OK36NS1J+Bwsbh8+Lh4/Y6ExjYmNjZ5rAGj5lVBx5otB7ncCIiEhERAEREAREQBERAEREAREQFRzHyrmGwzltE/n9dP8AZ066eOY+Vcw2Gcton8/rp/s6dTEpP2onTkRFBcIiIDyXK401ot9RdK55bT0sbpZCOJDQMlfJmt/Der5Z3xaDsELKdpLWz1eS5/r3RyX1leI3S2qrjbCyYmF+I3jLX8OR+VfDFVR+DtrirqGV1bW6HvLZHRVEXRGal6UEhxbjOBkduF7jsfhMDXdSpjaTmo221S80tT5/23xvEMMqdLAVo03K++jfk3oa9dvCj2z3OVzhqyakY73tNGxgHyEDKwUm3fa/I4vdtBvOT3VLgt6/xZbTc350rtj0ncmOwWiSrEbh6i0bxCifBB2ivJNPd9OTx9j2V/A+1q+m0cR2fpxtGEY+cfyj5LVw/aSpLM5yl5S/DNIh28bYIZBIzaDecjsdUuI9hWx2nwrts9re10+o210bOO5UQtOfnAB/rWUZ4IG0MPBrL9pukjAyXyV3D+pqkPBy0paGmXVu2zS9E1nnx09QJpPkDcg/1JWrdn6sbOEZeCj+EXw9HtLRlmjOUfFyX3Z1DZn4acV6u1LZdcWJlK6pe2JtTSZLd48Blp7F9TAhwDmnLXDI+RfE+ho9hNg1farJoimrNXX2pqo4oqmpjMdPGSfOAIycfIvtnAbwbyHAL5V2vwmCwuIg8FScItc+fkt0fYOxOMx+Lw9SOPrKpKL3XLzezCIi8ez24REQHMttP74bOv57Wr/bBdNHJcy20/p+zn+e1q/2wXTRyUvYxx9t+4IiKDIEREAWO1DROuNjr6Jg68tO/o+HJ4GWn5nAFZFMZ4d6WC3N50XUUt60ra7p0EbvGKZjs7o54wfsWabSUocSII/ohafsdJZomCjOfzOomp2g9ga8rc8HpefILs0Xmpps8XioKnXnFdWWZ6WmzH5CPzx70K4+lpd0/m8f0QqTNwYyc+eFORp3TxWQwERS0vxaL6AUWU1Lj9Hj5/BCvBnDmoxty3n2oC22lpTIfzaL6IVJ6WmzEOgj9J8EdxVwRkSZyqTtOYuP6z+4oA+kpd0/m8f0QjaWl3R+bx/RCnIzLT1ijWdUcUBbjpaXd9BHz+CF4YseMVGOyQj7FkYmkN59qxsP6RUftXf3KUQy+iIrFQiIgCIiAIiIAiIgCIiAIiIAiIgCIiAIiIAiIgCIiAIiIAiIgCIiAIiIAiIgCtx/p8Pz/YritMz4/Dj1/YoZKMi8O3SQVVm/uDiOSo9x3cYKqx2GDgeXcqlijA/jnHNQPSb6mx/A9U81Ev6+A0oCFTvbjOH6xn9oK6/f3eYVupf1GdU+kZ/aCuPcN3OCgDd8NCqA7tVWu6oOD7FRxKhjc5ftCixtBs8jnuOLTVkN7MmWJefOeK9m0ppi1hpyoIO7LDVU+fXgPx7GFeM81ysRK9V3PXcOVsJBLx+rC1DaXoKPXFpgfRTijvtol8ctFaBxhqAOR/iO81w7itvx2osSaRtyjc0/Zprp2tLPJHdKUUF+tchpbrQk9aGZvvgO1juYK3Bcz2l6du2n7tHte0Tb31d3tsQiudui4G6UIPWYP+1aMuYe0jHI5W9ab1DaNW2Kh1JYa1lXb7hC2eCZh4OaRyPcRxBB4gggpLXYiDd8rMkiIqlwiIgOZ3M//wBRtj9Wjbh/vtKumLmdz/8AWOsf8zbh/vtKumKWUh/t5hERQXCwWvv+Yepf+567/d3rOrF6qt1Td9LXq00YaZ663VVNEHHAL3xOa3J7BkhTHcrP2WbzsU/6JNIf9zUv9gLdSvnrZ54RGhtEaAs2mtX2PXNvuVjoY6OtZHoq71UTHxtw5zZ4KZ8T2nGQ5riMLPUfhb7Ibnb4LraaXXldS1cDKmllp9A3t7KiN7Q5jmP8V3S1wIIdndwQc44rsqcep4p0p39lmkbA/wDo5i/7yuH+8vXRFo+xez3SybP6OmvFDJR1M9TVVfQScHxslmc9ocOx2CMjsW8LkVNz2OG0oxT6BERUMwRERbkM5p4Sv/QLrj/ueo/sFfUy+a9uOnrrqzZFqzTljpTU19fa54aeIEAveWHAGe9bNVeGHsZtlPBPe4de2w1ErKdjKrZ/fWkzvBxEHCkLXP4Hg0nODgkcV0MLJJO55/i8JSqRsuR6vCj/AOZ+lf596a//AHKFX28gtG2pbVtObYabTWlND2XWElVTaps92qZblpK52unhpqWrjmlcZayCJhO6wgNBJJwMLewAAADlYcW05aG1wmMo03mQHNcz2L/vxtS/n3Vf7nSLpg5rmexf9+NqX8+6r/c6Ra72OpL2onTEVAc5VVUuEREAREQBVa0vcGNGS4gAd5KorlN+lQftWf2gpjuVk7RbMiNMXw/9S/8AEn5L334j/wCJdCb5o+RS+ZdL0SB5v9Xr9Ec5l0lepo3RSW8Oa8FrgXDBBXFvB02R7QNM3DWcmp7RLGKS5Os9qdI7z6CN75WOZ/FzOR/or6v49yfKpWGilYxviVWUlNpXRzoaXvgGPER9MKv5LXz4n/4guigA9ibo7lCwkOZk/WK/RHOvyWvvxP8A8QWOqIJaWZ9PM3dkjOHDuK6tgDkFzW/8L1WD/tP7gtfEUY0kmjf4fj6mKqOE+hj0RFqHXCIiAIiIAiIgCIiAIq4OCcHA5lU+dS1YWKjmPlXMNhnLaJ/P66f7OnXTxzC5hsM5bRP5/XT/AGdOkSk/aidOREUFwiIgKObvNLe8YX5n7ddOu0ttb1La2s3YzWGojA4dWQb32kr9MScL4h8NrTniG0C36gjjAZcqMNc4Dm9hxx+bC+gf07xfc8SlRe019NT5t/U7B9/wpV0tYST+Oh86Ne5vJzh8hUxVVQGBUyj5HkK0i+2uEJe1FfA+BRq1I+zJouPnqJBiSeVw7i8lQc5zvOe4/KVRVI4KY04x9lJCVScvak2dt8D7TovG16luD2b0drhfUk9zgMN/rX36vlLwGtPBtvvupHsGZXtp43Y7BxPH5V9W/Ovg3b3F+k8XlFPSCSP0X/TrBeicFhNrWbbCIi8Ue7CIiBHMttP6fs5/ntav9sF00clzLbT+n7Of57Wr/bBdNHJS9jHH237giIoMgREQBCiE4GcoNzPbHo9zTtfxJPuxW449nSLeGlxlPDhhaTsba78jRWOHCsrKioaQOYc88Vuwd5U9U8R3Ls0XemjxmMVsRPzIVG/5Ll6QKb9/dOcYwoTvyYstPpApyPyx2WkLIa5LymOBChH0mOGFPfGORVGOwzgCUBEGXfOcclGoL8xcP1n9xUg/yh6juQ7FGocQYuqfSD7CgLjy/cPBB0mBwHJJH9U9UqQPAcDyQEIt/d7Oax0Q8vP+0KyUbju+aeZWNi9PP+0KlEMvIiKxUIiIAiIgCIiAIiIAiIgCIiAIiIAiIgCIiAIiIAiIgCIiAIiIAiIgCIiAIiIArbOFfCT3FXFZaA64Qg8iHZChkoyTns3OD2+1GSM3R12+1QdS0+7noWo2lpy0eRaqliTHN49ZvPvTfj6TO832qLKeDreSbzTxan6T0LfYgKVL2bjMvb6Rnb/GCuPfHunrt9qs1NNBuM8k30jOz+MFcdS0+6fJNQE2yR7o67fahfHz6RvtUG01PujyTVXxan/gmowaBtihbHbbNfWOH/Jt0hLyDyZLmFx+QCQn5liFvesdM02pNN3Ky7rWGrppI2P+A4jg75jgrmenrm+8WSjuMrNyaWMCePtjlHCRh9YcHD5lzMVBqebqen4PUU8O4c0/r/GZFERap1B/WuQ1TP3EdaOudJG/8itW1hfWxg9S03GQ8ZGjk2OU8T3Pye0rry8l3s9s1Baqux3mlZUUVdE6GeNw5tPd3Ecwe9SmVkrnqa9sjQ+Nwc1wy0g5BHeqrl2za7XTReon7HNVyvlMUTqjT1xe7Pj1I3nESecsY5jtHHsK6ioaIhLMgiIhc5ncv/WPsf8AMy4f77Srpi5ncv8A1j7H/My4f77SrpillIf7eYREUFwiIiQMZqUD8nbpy/Q5uz+IVrWwof8A8jtnHL/mfZez/wDsYVs2pf8Am7dP/g5v7BWtbCv+g7Zx/M+y/wC4wq1nYo/8i8jdgMdpVURVdy4REQBEQnHzolcBcw2/fvJpP+eNs/szLqG4/wCCVzPb7FIbHpPDD/zxtn9mZXjFmKrrBnTX+e75Soq5JG8PdljuZ7FbII5jHyqHFrcygc1zPYuf+WNqWf8ALyr/ANzpF0wc1wXQG1bZ5ovVe1Cz6o1XRW+tfrepmbDK4hxY6jpMHl24KlJyWhiqyUHHMzvI5lVXOG+ELsYBONoNr+sP3KQ8IXYyT/0g2r6w/coyS6EqrDqjoqLnf+MJsZ/zg2r6Z+5P8YTYx/nDtQ//ABD9yZJdB3sOqOiKPSw9KIDKwSuaXNYXDecO8DmVzw+ELsXAP/8AMS0/TP3LV7RR6E8IzbtFDZdT3CWismkDJFcLRUvi8UrHVZDTnG65xZg7pB4BZKdGU5WMNfF06FPPdM7YD3q7TfpUH7Vn9oLRrjZ9tuy0ukvNpO0PTrD+m2mMR3Wmj7DJTE4nx2mIlx7GFZjQu0LSGvwKrSt6hrDTTsjqqfiyopZMjMc0LsSRPHa17Q4doSVGUJK5Wni6deDys7o3zR8imOSg3zGnvAUKyY09HPUAZMUTnj5hlddJtpI8fJ5U2yUtRDAwyTysjaO17gB/Wse7VGmmuIdqC3Ajs8aZ96/OPXfhF3nXWoK+2axpbtLTMq308YtteYABvbrWtbg7xWIvOmrZss1taq+7meCjutOXQ2+61z5KqkBz5eeNmeBxwbnPevY0uyNVRSrztJq6SV7niJ9tKMpN4eKcU7Nt2t7j9Qaato6xu9SVcMw743hw/qV9fmJTay1Lo+61esNA7bqWZkJE5t8sdRTmX+K2ORm6fmcv0Y2d6gqdVaGseo61rG1FyoIamUM80Pc0E49WVyeLcEqcLjGo5XjLTo0zs8H49T4tOVJRtKOvVNGxFc01AW+7lYAffj7Avft31df9B7I9Uat0syN12ttA+ak6SPfaJOwlvaPUtJr9j22itrp6x+2q2B0rs4GncD2dMvN4ilKpseuwGJhhqjlMy+R3quR3rAjYptoHLbVbT8unv/rJ+4rtq/z02v8A1e/+stT0Wodj9Ww5nsjvTI71gf3FdtX+em1/6vf/AFk/cV21f56bX/q9/wDWT0WoP1fDmeyO9MjvWB/cV21f56bX/q9/9ZP3FdtX+em1/wCr3/1k9FqD9Xw5nsjvTI71gf3FdtX+em1/6vf/AFk/cV21f56bX/q9/wDWT0WoP1fDmeyO9UzxWC/cV21f56bX/q9/9ZP3F9tQ/wDvotZx/wD48f8Aip6LUH6tQZr+2C66rt9Bpu26MvEFruF81LbbV4zNAJmNjmma1wLT3g471codoN007do9I7XLM3Tl5dwgrGuLrdXjOAYZT5pPwHcQs3F4P2v7re9O3LV21aluFHYbxS3jxWns3QmV8Dw9jd8yHAyBnguyam0pp3WVomsWqLPTXKhnHWhnjDgD2EdrSO8cVmjhvVtI0q3FHGtmpez0OdNwcEOBB5EFcx2Gcton8/rp/s6dbFedm+0TZAHVuhW1Ws9KxuMktmmlBulI3/8AtnuIbM0D3jiHdxPJad4N16odSWLW2obZ0/ilw11dZYungfDIMNha4OY8BzSHNc0ggcQVrTpum9Tq0MXDFWcdzrqIiwm4EREAXzh4benhW6Dt2oI2Evt9UWOIHJrx94X0euf7etOnU+yi/W6OIySsg6djWtySWceAXa7O4pYLidGq3ZXXzOF2mwfp/Ca9BLVxdvNan5qIquaWucxwILSQQRyVF+l73V0flJXTswiL1WmjkuVypaCGNz5KidkTWtGScuA5fOqTmqcXN7IvTg6s1CO7dj9AvBX08bBsitm+zdkrC6of3nK6+sNo60x2LS1rtMbN0U1LGzHLjgLMr8xcWxDxWMqVnzbZ+teEYX0LAUaH/MUgiIucdIJnjhFQ8wiIOZ7av3w2dfz2tX+2C6aOS5ltq/fDZ1/Pa1f7YLpo5KXsVXty9wREUFwiIgC8d5rfc601tcPOp6eSRo73BpwPnOAvYsTeqd12rbRpqI9a6V0fS+qCI9I8n1Zaxv8ApIt7BvKsz5HUNBW4WbR9oto3QYaVgPyniftWdDgX8SParMdJTMY1jYhhowMepTFNBvnyQ4LtwjlikeHqT7ypKfV3KVDm5i4j0g7VckczcPWb7VYqKaHeiIjHpArktPDuHybfYrFC7vNx549qjE5u75w596j4tDj0bVSKnh3fRt5oCYezfPWHtUKh7MxdZvpB2+oqgp4d8jomqNRTwZizG30n9xQF9z2bp67fajXswOu32qD6aDd9E1G00G6PJNQEo3M3fPbzPasbH6ef9oV74qeAN4RN4FY+I5nqP2h/uUohl9ERWKhERAEREAREQBERAEREAREQBERAEREAREQBERAEREAREQBERAEREAREQBERAFZb++EPyO+xXlaYM3CD5HfYoZKMhID0ZxlVYzqDrHkqSNeWHiqs3y1vLkqlikbDg9Y803fK8+xI9/B5c06/TchyQEKlh3Gdb9Yz+0Fcezqkbx5K3U7+4z9oz+0Fcd0m6cAIAI+qBvHkqMj59Y81Vpkx2ZVGdJxzjmgHRjfPWPJcfrbf+TWtbrZC0tpbm43SiPZl58swf6eXf6a7ADIXnktL2q2GouFkivVvj37hZpPGImtHGSP9Yz15bx+ZYMRTzw8UdHhmI7iulLaWhrqLz0FfTXOjhr6R29FO0OBzy7x8y9C5J6poKrVRVaiBqm0jQlNr2wihFU+33OimZWWq4RcJKSqYcseD3Z4OHJzSQeBXm2Y65qdX2uooL9RC3alskpo7zQ54MlHKWPtMUg67T3HHYt14epcz2oaZvNqulNtY0RAZbxZ4jHcaJjse6dBnLo8dsjOLm59YVjFlyvMdKRYrS+pLXq+w0eo7NN0lHWxiRhPNp7WkdhB4EepZVVsZd9jmdy/9Y+x/zMuH++0q6YuZ3P8A9Y+xfzMuH++0q6YrNFIPWXmERFUujN6bsVLeGz+MSysMRAG6Rxys3+Q1sx+k1P0h9y+bvCw2va02MbCbtq7QdxbQ3RtfRxNndGH7rHSAOAB7wvkPZR4e3hA6zvUmm79rJpNRC/cfHTsYWgYyc9/HgunhqMZwi2tWeX4jjK1HETUZNJH6c6n0PbW6buxE9SSKKY+cPgH1LUvB60hb63YBsxqpJZ2ul0ZZHEAjAPiMPqXzhc9UaprtKSyy7WdROkngcxwM8e71m448OXFcT0vtG2nabtFm0ZBtVvraay22jt0YglDWARQsjw3hkN6vD1L0VLsxiqu0VY8dLtzh1qpybP0m1Fp6ks9KyaCWVxc/dw4+pa+vnTwWNoes9T3zVti1Nqq4XmCidTSU/jkm85m8129j+pfRa8xxHDPB4h0Zbo+g8Dxr4hg44ht+t1CIi0TsBb1RabtklNA59OSZImuJz2kcVop5EAEnuC/PDw9dv21vQu359h0hr+8Wm3xWeiLKWnmLGB25xOO9buDipNtnG4xWnSUVB2TP1Ml0tpqHHS00bM8t5+M+0rk/hC2XTcNn0a2OKnLH60tYdmUYA3ZvWvhTYdtU1JtPtFBWa51VeKtpfPE3fr3tO8N3jnh61l9ulBaLhZaOlsl6r45qK5QV286uldlrA7IGTwPW4FejwfA6uNjnhomeCx3aqOAruhUu35n6UPsmlA7ec6lGTnjMB/etUvcUMF1qIacARtcN3ByMEA/3r8yzeZJLJWzm83d8zI3GMmvlyPk4r732Q18912VaOuFTO+eWexULpJXu3nPd0LQST2lavHuDz4TGKnJNy6He7J9oFxutUUb+quZt45rkWynbFBoi/bTrINnF9vT/AMuKqY1VBA18XWpKTq5ceDhjiPWuujmuabE3kXjapgkA68qv9zpF56nOVPVHq8dh44nLCTtqbh/jJUp/+5rV39Dj+9SHhI0uP+hvV39Dj+9ZneOM5KrvO+Efas3pcuhqrhNL/pmF/wAZGl/zN6u/ocf3p/jIUv8Ama1d/Q4/vWa3nfCPtTed8I+1PTJdB+kUurMKfCQpMf8AQ1q7+hx/eti2dbcrJrvVlRokaUvNhusdtF0bHXwBglp+k6MlpB7HDC85c4jG8VzrV2ldqMu0qh1noDU9qszHafkslbPVU5qJ4wagyh0LQd3ewfOccDHIrJTxTk7SRgxHClCF6bbZ3jW20jROz6h8f1bf6agafRxOdmaU9gZGOs4nlyXzZrehu237Utt1Fo/RTdDNp5YjBq6begvE8QdndjZGQTGc8pC4d7Vtem9lenbJWm+XaSp1FfJDvSXO6v6eYO7dwHqsGexoW8UQ/PIST+sb/aCTxWtoonD8KUYuVV6nTrdTy0tDT009W+qkiiax08gAdKQMFxxwyearWwOqaKop2nDpYnMBPYSCFeZ5g+RVK3k7PMjz8oqScXsflVtM2JbTNnurbi+6adrXUr6mSoirKaMvje0uJByORWoz0VTUukdWW2eSaQkl0lO4vz8pGV+rc79Y1VLNBU2O3F2XCMveHtcM8CW9nBY6O0VU8jvHdndo3uiJEg6M70gOMebwBHFfScJ/UOVKmo16CbWl0z5NxD+mCxFVzwuIcU3ezX4PzGseyzaHr2vitel9MXCpke4RiQxOZHH6ySOS/U3Zrp2s0noGwabuDmOqbdb4KaYs5F7WAHHzqVC68UcccdHpikp8kB4Y5rQB2ngtijLyxpkADiBvAdhXne0Xaapx7LFwUIx+J6vst2TpdnFKSqOc5Kz6e403bLoSr2m7MNRaEoLgyhqbzRPpoaiRu82N55Egcxlc6uV/8JihuFRSm46EcI34afEpxw+sXeVzbUp/5crf5bf7IXkMROVON4n0HhtCGIqONRbK5oh1V4SxHCu0J/Q5/wDiJ+VXhL/HtCf0Of8A4i2gceOFXA7lpelVOp2v0zDdDVvyq8Jf49oT+hz/APET8qvCX+PaE/oc/wDxFtOB3JgdyelVOo/TMN0NW/Krwl/j2hP6HP8A8RPyq8Jf49oT+hz/APEW04HcmB3J6VU6j9Mw3Q1b8qvCX+PaE/oc/wDxE/Krwl/j2hP6HP8A8RbTgdyYHcnpVTqP0zDdDVvyq8Jf47oT+hz/APET8q/CX+PaE/oc/wDxFtOB3KmPkT0qp1D4Xhuhpsu1fblpXUWlYdW/klVWy+36is0zaOnlZKwVEgZvtJeRwznkuxa+2m6Q2bWz3Q1Rc2wvl4U1JGN+oqX9jY4xxJJ+ZcY2s6S1bqq32GTRNwttHdLJfqG7xSV7XOixBM15Ba3iTgHA4K/prZtR2e5O1RqG61GptUTjy13rwC5ufeQx+bEwdgHHvKzxxPq3luaNXhearamrRLN3q9o22kOj1RJVaQ0hNytFHMWV1czs8YmbgxtPaxmPWVrvg7Wq2WK167slloIKKgodd3OGnp4GBjI2CODgAOXMn511lucjJ45XMNhn/wB438/7p/sqdYJzdTc6VDDQw1lBHT0RFgejNwIiKAFQta4EOaCDzB7VVAi0ZBzrVXg87I9Xzy1l00fSMqJeLpaYGFxPed3GT8q0io8DDZRPKZI57pCCc7jJW7o9oXfshRXYocf4nhYqFKtJLzOJiOzfCcXLNVoRb8jhFJ4GuyamfvyuudQPgyTDH9QW/aQ2KbMtDTMqtO6To4alg4VEgMko+RzskfMt5RVxPHeI4uOStWk15lsL2d4Xg5Z6FCKfkVIAAwqKp7FRcps7QREUAKh5hVVDzClEHM9tX74bOv57Wr/bBdNHJcy21fvhs6/ntav9sF00ckexVe3L3BERQXCIiAYzwV/ZvbnXzVNz1VID4tbW+5lEc8HPzvTPHz7rf9BYS/11RT08dDb2h9wuMgpqRmeJe7hnHcOZXVtJ6fp9L6fo7HTEFtLHhz88ZHni55+VxJW1habnPM9kc7iuJVGh3a3l9DKMGTkgqoYN9xyeKNBJJUW74lcByAXTPKkahnGI5PpApyMww9YqFRv5i5ekCm8SFp5cUBURgDGTyVI2dXg481Ib+M8OSjFv7vYgDW+VdxPJQnZxiy4+kH2FTbv9K7gOShUl4MXL0g+woC49nUOSVXc/jkKLy/cIOFIb+BxCAjEzq+ceZWOi9PP+0KyMW/jmOZWOi9PP+0KlEMvIiKxUIiIAiIgCIiAIiIAiIgCIiAIiIAiIgCIiAIiIAiIgCIiAIiIAiIgCIiAIiIArTci4Q/I77FdVtpHuhD8jvsUMlbmRc7DCcclRj+qOqeQVSWhp4j2oxw3RxHJVLEWOxnqnn3IHZm5e9VWOHHrDn3pw6XOexAQqXdRn7Rn9oKbpOB6p9ihU7u6ziPSM/tBXXHqnigItf1eDSqMeeI3TzVxvIKje35UBAP6/Iq3VgOY3tBeAQe1Xh55VqrHUZ+0CCxyC82Y6G1O6iiYW2W8yukpTybT1B4ui9QdzHryvZyOF0TU+nbbqqzVFlubCYp28HNOHxvHFr2nsIIBB9S5PbZ7jQ1tRpjUIAulBjEnJtXCfMmZ8vaOxwPqXKr0e6d+R6vh2M9Kp5Je0vmuplETPai1zoBASDkIiA5LXubsU1g++xMd+RmqKsNr42+Zaa1/ATgcmxPOA7uJB711neB5EY7DnmvJdbTb73bam0XWkjqaSsidDNFI3LXscMEELnGzi7XDQt9/cV1VWTVJgiM+mrnNk+O0Q/UPcec0XBp+E3dPeroomqehfuf8A6x9i/mZcP99pV0xc0uTT/jHWL+Zlw/32lXS1MtitPd3CIiotzKj5s/whkjI/BgvW8f8A7SocfWtX5z7Eq611e0O301lo6ls0dqqTMHv3+kmDcksAGQOXDiv1u8IDYjX7fdjN60FaIqd1dNU080Lppdxrdx28ePzL5g2Zf4NXaVoTUFLq2gqaegu9DvCCaOrY8NBGDwPArt4O3dRfQ8XxZv0qcbbnEDtI1D7gTU8tLVCKPrEmKQBoHPs5LVtN6iu99qpa3Ttsr7vGx+7I+jhdM1ru7I7V901ngleEnqGhrrXe9oltbS1zHwOjZTQjMTgQQ7Dc5wexWNkPgM7bNhTfEtmG1C1W6ikn6eeCWj32OcW43sEHJ9WQvYR7WYiKsoRPEvsvhm3ZvU0vwHKbU0erNWVd907c6CKqggMclXA6MOc3PLPNfYyuWuybQbJpOOl2i3613e5tqstqaGl6AGLHAOb3q2vD8VxDxmKlXnuz6d2fw8cLgY0YbIIiLlncHHjhflj/AIR28UVr8KSWSpooK5kNiommGUuDN4xnnukHgTnmv1OHNcW8JDwFIvCC1xS7QKe82yicbdT0ssM0B3nljfOLgOPNdDApOTTdkcDj18kMqufn1sZo9W3bZZSXjR9lrq3orxPHP4rGXiMFuQDg544U9peo9VaWbRnWNrr7aLi4R0zJoSwyOzjA7zkr7r0//g+LhpayPsunNo81j6VwllNBJJG1zu/HIlem6/4OS1atZA/WW0u73J9K7epzJIZBEe9u9nHzL1mC47X4dSVGja3ieGxXBKGOq99Vi7nxta9ifhB3ezCa0bLrxUU1VGHRyjG6WkcCv0N2M2S86c2U6UsOoqF9Fc6C1QU9TTv86J7W4wfmwvHonwRdV6HxFaNvmqo6eKRr4oN4PaccCHb3ZjkAun6gyL1VMJLi1wBJ5nqjiuTx/i1ficYOtbToeh7LcMo8Orz7pWujHjmuZbFf342p/wA/Kv8A3OkXThzC5jsV/fjamf8A/PKv/c6RedWx7OaWdHTSOGERFSW5ksERFACIiXAwFOl/SYf2jP7QUFOlH5zD+0Z/aCmO5WXss6rH5g+RTVuN7QwdYch2qW+34Q9q7aaPD2ZJFHfZ8Ie1Okb8Ie1LoizJIo9I34Q9qb7PhD2pdCzKlc11Hn3erc/DH9kLpO+z4QXNtRZN9rD2dIP7IWrimnE6/B1/el5GPHJERc09GEREJCIiAIiIAiIgHzIiICo5j5Vy/YXxbtDPfr66f7OBdQHMfKuX7CvM2h/z+un+zgWRbFZbo6eiIqS3LBERQAiJhAERDwQBFTIxkFCQEBVETnxHFAETvPcgIJwCEsyLhUPMKRDhjLSM8uCieYUoHM9tX74bOv57Wr/bBdNHJcz20jNw2dfz2tX+2C6YOSPYqv8AI/cERMgqC4UZJY4mOkleGsY0uc48gBzJUljKK31Oub+7T1Oxws1DI03SpHASP5inae08AXdwIHarRi5OyKVJxpxc5vRGb2cWE3q4O15c6d4jY10Vpjk96w8HTY7C7s9S6gxw3eRVqGCGnhZBCxrWRtDWtbwAA5BXwRhdajTVKCR5DF4h4qq6j93kW45Bu+aefcqhwErvkCrGerxPagA6R3yBZTWLVS8Zi/aBTfJ1fNPsUajGYsfwgV1/moCIfwHVKpG/q+aVc978yjHjdCAiH+Vd1TyUKh3GHh+sH2FXQR0hBPYrdTjMPL0g+woCUjuqTgqokwPNKS43SApAjAyQgLcTzu+aeax8Xp5/2hWTjPV59qxkf6RP+0KlEMvIiKxUIiIAiIgCIiAIiIAiIgCIiAIiIAiIgCIiAIiIAiIgCIiAIiIAiIgCIiAIiIArIAdXwtIBB3gQfkV5Wm/vhB8/2KGSj3PpaYNOIWcu5GU1NujMLOXcpvBLScnkjWZaOJ5KpYttpqbj5FnP4KeK03S+gj5fBCm2Pn1jzVAzEvnHkgLVTS0u4zyEfpGe9HwgrjqSl3SOgi+iFSqZ1G4P6xn9oKb4yGnBKAi2lpt0eQi+iFRtJSjJ6CLn8EK41g3RxKNYMnj2oC2KWl3/ANHj+iFCppqbcb5CPzx70K8GDfPFW6ph3WYPv2oCTqOlAJFPH9ELWdbaJh1PbmOt5ZR3Wi69FUtbjB7WO72ntC2pzTjOSqAHHIqs4KaszJSqzozU4OzRxa0XOoqnTW65UxpLpRncqac9h+E3vaewrJLaNb6DGpGNutoqG0V6pAegqMdV47Y5AObT7QtEtV4dV1FRabjSPoLtQkNq6OTm09j2n37DzDh9uQuVWoypOz2PXYPF08ZC8dHzRk0RFhNkLVtouhabXdg8R8ZNHcqKUVlrrmcH0tS3zXA8908nDtBW0qjhkEFSnYrKKkrM4JoHWtTqzbzbaK90zqLUNl0jcKO6Urh5sgrabEjT2teBkFd8Xz1tZo9R2TwgbDrjRNG2puNs0lX1NfQMaBJdaVtVTtdCHfDDXOczPDeABIC7jpjUtm1hYaHU2n6xtTb7jC2aCQDBwebXA8WuByC08QQQeIV5aox0280kzKIg48kWMzGWsV/NkbKBTdL0pB87GMLK/l47/wBnf/qLVEWeNaUY2Rp1MBQqzc5rVm1/l27/ANm//qJ+Xjh/9nf/AKi1RE7+oY/0zDf8mZvepDeqdsBpOi3XB2d7OVhkQEHkcrFKUpu7NulRhQjlgtAiLn+vNear01rPS1htWm4pLVeKswVlynnaA07pIZHGDvF3DJLgB3ZVOaXV2LykoRc3sjoHrWag1pcoom04ghc1jAxvA5OOC4RLfttFPtUpdKR6g0xc7W6CetrImWqWnlpYcEQtMvSOBc5+6PNHV3iOWF69Dau2gjaHcdC65q7NdHw22K5eMWqkfCyic9xHi8u85xe44y13VyBnAWelmWz3NWv3Nb/JG9nb4ncXa2uuQwwQEn1FSdra6MAHi8HH1FcLvmvtVaa2p2DTNwvGnZqLUFW6mpbNC0+6TYA0l1XvF3FjffNDMAe+WS03rvVl32n37R1403Fa7dbqSKooZHztknqA4kGRwYS1rTjqjOe8A8FZV6l1Z73t7tWY5YXCq6cNrfN2OwDXF1zkU9N/X96w1dVy1tZJVzhrZJjvEN5cBj+5co2o6v2g6IqqW/0FXY5LJ43TUnuU6ne+ur3yyBu7FJvANec9Vu67JWB03th1pdtrcukKmjt7qXx2rpJbYyB4r7bTxBvRVk7icGKbJ3Oq0cMAkg4JyrvLe/MuoUMLK8I2Z28Ll+xXeF32pbxGDruq5f8AwdIvZtO2g6r0bd9LUNk01DVUN5vVFb664zzsEcEc07Iy1jAd90h3sg4DQASTngeSaS2qXHTm2vU2z2z2ds0N119cPdGqma4Ni/5PpHRsjPIuPEnngYWOKcoKcebt9PyZqjSkm+Wp9OBxPJTXMbRq3aBbNp9HovVdZZbhBdqSorIYLdTPjlt0cfmule5x32uOG72G9ZwXTlR3sm+ZkhNTvbkERFBcIiIAqjvVE7EAye9U4959qqinMyrjF8inHvPtTj3n2qqJmZGSPQpx7z7U4959qqiZmMkeg+c+1PWiKLslRS2CIiFgiIgCIiAIiIAiIgCIiAqOY+Vcv2FeZtD/AJ/XT/ZwLqA5j5Vy/YV5m0P+f10/2cCyLYrLdHT0RFSW5Y1jaVqC+6Y0ZcbzpqjjqrjBHmFkjC8A9rtwEF+Oe6Dkrkd925atoNBW+40uo7C+7Tz1zZKhtone9zIGtIBow8Pjd1utl2G8O9du1Npq1ats1RYb1HM6lqRhxhmdFI09ha9vFpHeFqVXsH2b1drttskoK9otk008dQyvlbUyumx0vSyg70gcGtBB5gBTSklJqXgYasZyTUHrY5W7b7tZuljk1dZKPT8FttloorpWRVEEjpKkynD2MId1O8Eg9y9F8206osVlvDrPXW+hrGakutO01VPUXCR0MEcThuxB4Ibl5yQQ1vDA4rrMOxzZ/RWCr09R2QMo62ljo5IzK470bOLATnOAVgLZsA05U24s1lUy3C5m7Vl1NVQPfRgGp3A+EBriTHuxsBBJyQe9ZaTgouMl/M1/oY5wqZEovW32X3ua9pbbtqe+0VtiqaC3x3DUVNRVFoYxrsPa925O5wzya7j6gsHXbR9odz1PpvWtTd7bb9NGqv8AHFQMkkhc5lKxjWuqXb2Hjea53m9UO9a6lZdklptGrLNeqVlPFbtNUElHZ6MRkyQmTIe50hJ3hgnAxw5qtRsK2ZVN8rb/AFFjkmqK4VAkikqXmBvTsDZtyPO63fAGcDjhUkk5xlH+akKFV03GT1OFXXbttA1BprVNqiudLLW0dDTXCiqqOimoCwvnazcy5xL24Od4YyFuVbtO2lRX2q03caa01l/stwr4oJaPpoaepYKWOeJpiD+LsOLOtnjgjC32g2BbNLbDUU0Vrq52VNO2le6orZJXdE14e1gLjwAc0YHYs7Ps90228VOqKKgZHe5ZZKqOpkLntbUOiEYeWZGRhrcjhnHYrVXGUYqC1W/xv9NCkaNdSk5PTX6fk5rfduV3k0vVX/T9ZaqWPpaShp6ienfU71XIPKNZEwgyOacgNBHFYeLWsG0/ZE3VGsb3fKa4U9fXWuhptO1VRbZLjWRndjcI439IDyyxzi0cSV0G1bC9Hx6EpNEXqN9UymrDcjU0rnUsgqy/f6VhacsOe4qNw8HbZbcIqCL3PudM61z1NTTS01zmikbLPu9K/eB4l26OKmKp6uX/AJ1LShUlaz/c5LqKo15S2u61+odV3a3XzRdjoaqnbDWSRwSTyEF7powd2bh1SHgjJXRK2p1xHtqsMk+p5fc+7adq5YLTG3o4IpGiIh8na9+84jJ4AdnNbNctiugLvLa5rrb6urfamMijMtY93TsactbPx8qAQD1ls1Zpqz199pNR1VIH19DTy0sEmSN2OQtLxj17oVYvLC177/f8r4ESozm1bRafb8P4nz1sb1Vf49pOn7JVVuq6i4XWlrnaijvFTJJTtmja50b6drnFjW5AHkwG4X0weYWqaW2XaO0dd6m+WWjqjWVLSwPqap8whYTksiDidxuewLayOKmclK3kZaNN007u92c120fp+zv+e1q/2wXSxyXNNtH6fs7/AJ7Wr/bBdLCxPYyr237geSoAVXlxKxLaq5aku8mltKAPqogDW1ZaTFQsPLJ5GQ9jefacDmim9ETJqCzSdkiUou2oroNLaaIbUOANZVkZZSRHmfW89gXVLPpy06btdJaLbSsZDC7G85oLpHEEuc49pJ4kqmldL23SltbQW9hLndaaZ/F8z+1zislUgkwjJ9IPsK6eHoqmrvc8vxDHPFSyx9lfPxZU01MBkwR/RCmKWnI9BH9EIY+HWJUwzgOsfatk5xbZSU4b6CP6IVG01Pvu8hHy+CFdY0gc1EM67hvHkEBZqKamzF5CP0g96FcfS0obwp4vohRqWcYuJ9IFcewbvE4QFPFaYtHkI/ohRZSUuP0eP6IVwMGPORjOHNAWhS0u/wDo8f0Qoz0tNmLyEfpPgjuKvBgL/OUKhnGLj+s/uKAq+lpd0+Rj+iEFLS4GYWfRU3s6p4oI+A4oCEdNTAcII+fwQvBH6efH8IVko2YbzWNi9PP+0KlEMvIiKxUIiIAiIgCIiAIiIAiIgCIiAIiIAiIgCIiAIiIAiIgCIiAIiIAiIgCIiAIiIArTf3wg+f7FdVpv74QfP9ihkoyD9/dOAOSN6QNHAclV7uqRunl3KjX4a3qu5dyqWKMLxnlzVQZOl+ZGO4O6p59yb3leR5ICFSZN1nD9Yz+0FccZC0jA5KFS47rOqfSM/tBTe7LCN13sQFG9JgcAjek48BzVWP6o6p9iNkPHqHn3ICI3+kzgclGpMm43+WFMHyud08u5W6qTda3qnzwgLp6TDsAepVaJAOYVHPO6eqUbISPMd7EBRgfggEcCta1loSi1XFHVNeKO6UoJpK2MdeP+KfhMPaCtmY7GeB59yiXE824+VVlFTVmXp1Z0ZKcHZnF4a65W6uNi1RStpLgCRG9voalo98xx+xZP1LoGp9OWbU9s9zL1SdNE57d1wO6+N2RhzXDiCuYXq337QMh92OmudkLsRXGOMukpx2CdoHL+OOHfhcytQlT1WqPUYPiMMV6s9JfU96KEE0VTE2eCRkkTwHNex2Wkeoqa1zoHLNRV8dr8IC1XCZr3x0+iLlI5sbC5xArKYkADmfUuU0O1PVOhIbjtH0doiKHSuor3VQ3C23SrMDbRVsPGp6oO4yYAFzQODjnmSuvXHP8AjIWPu/Iq5Hnj/rlMvBcdkd6uuzjVGhauqonN1PeaipmO+4DxOaXeIzu8H4GO7ParRladpbW+dzTmpvWHJ/YsU21bavV6CpNaR7MLZCTTzVtZFPdt2OOBnmmN+71i4dYZxwW9yaquVz0NQat0fZRXz3ajp6ykpquXxcNZMwPBlcfNwDx9a49ddmG3Kktds0JRN07qDR9nc5nRVt3moqiuibjoY5yyCTLG8cgHrYGeGQus3dmv5tPup7XYNPtqRSQNbRzVshp5SWkTQF4jyxg4Brw0kjm0K0ksjlHrp/PgZKbkmr321/by1NWdt0NPszq9b1Wlampr6GaakkobfIJo3zR8yyXl0f8AGW+yXq6TaSgv1ms/jldVUkVRDSGTcaXSNDgC/sAzxK59pLZLqO07MdSaXqfcy31moXVMsVuo53y0Vu6VuBEyRzWuc3PEndHPktlvdBtLodBGxaHjszbvT2qnpqSprKh7YxUNY1ryQGEhoAJaePHmFEklKS8rfDUrDPeMntrf7Gmv26axhqJNJSaFoH6y91Y7ZFQx3AmjJfG6TfM2MjDGOJGM5AHat+0NruPWGjzqeegdRzUslRTV9K13SGKop3uZKxpHnDLCW94IXKxsk19XaAFjueidMe68NyjuL5G6jqekrJvfzGrFO18T88gGOBHDgugbI9BXbZtpa3aXnZSThxqa6uqGVDiWVU0zpDGwFuXsAdu9ISCd3O7xV20lKz8vgv3JhKpmjfb/AN/Y1yDwhI6nR9+1OdLzUE9tvJstFS3CYRdPIS1sb5DjybSXDPMgLJUG0rXt90NFqbTOkLLcKvpJxMWXbFEI4xkvZLu5OeWCBxBWOv2x29XC1X/ha6utn1VFqW2wzyOEMvRPje2KY7h3Q4swSA7Ge1azNsr20U2mqm3WWn0ywalvdRdr9aY7pNS08VO5jGMpaeZsDjukMBeejbkuIACu1Tkmr22K1JVIystjs2g9X0+utJ2/VNNTugbWx7xid7xwJDgD2jIOD2qOrNIDVFZYqzx/xf3Er/Hd3c3ul6pG76l69JUVXbtN0FBX2igtc9PC2N1HQzumghA5NY9zWlw9ZaFl1gnbNpyf0M0YuUMs+a1NUotFVVBetUaipLk2Ov1CGCGYwg+KtY0iMY98ASStW2XbNdo2gbbVUFy1hp+6zVJ6eSuFqkZVVNUXAvmne6Ql+RwAGA0YAwAAupnkmB28UjJxv4llBI5xqHZnqvVOo6Ce/wCsKSo09b7lBdoqIUIbVNnhcHsYJgcdHvtBIxkjIythdpKpZrSv1tSXGNlRV22KgZFJFvMYWOJ3zg8efJbNgDsVTxRycsvhe3v0+hHdx18ftqcpvezLaPdNpMOuqXW1ikpaSJsdJQ19rkm8RJBEskJDwGveCRvYJA4ZwSvPadhl5tWpqavj1bTustqr6262ym8VPjQqakkuE82fKRhx4NwDjAzwXXgMIkJOFrESoRldy5mq6u0VPrChsdPcLnHDUWq7UV1kkii6krqeZsm4Bnq727j1ZXD9HbD7JrPahqrWsV+vFDVad2gV8/QR3Kp8WlLqGlDcxB4YDkkk4y4YB5BfTQXMtibALztSx/l3Vf7nSK0JZdut/p+BVipOKf8ANCxsz2Ya+0Pf7jddRavs17bdJXy1NT7mvZXS8T0bTKXkBjM4DQABxxhdUUiOCionNytfkWhTVO9giIqFwiIgCdi1vaNrq27NdF3TW92oquspbVCZpIKQMM0gHvW77mtyfWQPWtag2zVdHdLdQ612War0nS3ao8TpbhcZKGandUEEticaaolcwkA4LmgcOavCnKeyKSnGHtM6Sig57Q/cLgHc8Z4qW8ME7wwOarlsWTTKosRZtVWa/XK6Wq2VXS1FmmFPWN3SNyQjOBnnw7RwWVa9rxljg4d4KizIzJ7Mlkd6Lm207bDV7MN6qrNl+qLxbGmJvuhb5aAQ9I84DN2aoZJnJAzu49a2vS2pLjfrc+svekbnpedkpYKO5z0r5XNHvwaeWRmD/Kz6lZRKqrHM4vczyLAN1paX60fobcmFcy3+6RkIAiMW+GYBznOXDsxjtUZtbWuHXUOz90FR4/UWw3VkuG9D0IkLMZzneyO7GO1QouVnHn9t/oSpxbavt/PubCihHNFLno5GPx8E5U1Ba99giIhIREQBERAEREAREQFRzHyrl+wrzNof8/rp/s4F1Acx8q4LoTaLbdnN317Y9TaZ1q2ep1jX18D6PR91rYJqeSOHckZNBTvjcDunk7sKyrYxTai02d5Rcy/xg9F/5PbQP9QL5/5RU/xg9F/5PbQP9QL7/wCUVGm2T30DpyLmP+MHov8Aye2gf6gX3/yif4wei/8AJ7aB/qBff/KKMrHfQOnIuY/4wei/8ntoH+oF9/8AKJ/jB6L/AMntoH+oF9/8omVjvoHTkXMf8YPRf+T20D/UC+/+UT/GD0X/AJPbQP8AUC+/+UTKx30DpyLmP+MHov8Aye2gf6gX3/yif4wei/8AJ7aB/qBff/KJlY76B05FzH/GD0X/AJPbQP8AUC+/+UT/ABg9F/5PbQP9QL7/AOUSzHfQOnKhz2Fcy/xg9F/5PbQP9QL7/wCUT/GD0X/k9tA/1Avn/lEs0O9gzpvW71X5VzH/ABg9F/5PbQP9QL7/AOUVf8YPRf8Ak9tA/wBQL5/5RWV7jvILW5PbP+n7Ov57Wv8A2oXSXOaxpe9wa0DJJ5ALgG0Pa1p3Vd40JS2qw6zY+k1bb6yZ9bpC60cTIWSAucZJ6djOA7M5PYu+2bQ951g5tdqaOa2WQgOjtxJbU1HcZvgD+Jz78cldRc/ViY6lenSvUm7LT3+R4bdS3rXFWaDT5NNbWZbVXNzeB72w959fILqmndOWjS9sjtFopWwwsJc483SPPN7jzJJ4kleyjo6a300dHRQMggiaGsjY3DWgdgCvcewZXQo0FS15nm8Zj54t5do9Cas1G/mIDl0g+wq43e7QoVBJMXVPCQfYVnNAuSb+4e9VG/ujiBw7VSRxDT1TwVQ7gOqeXcgKM393mFQb/SO5cgqxvO7xaefcqNeeld1TyCAt1BfvRftArkhkLCMBQqXHMXVPpArkjjuHqlAAZcKjTLjsUg8gZ3T7FFsnDzHexAUbv9I75FGcyZi4D0n9xUmu8qeqeXco1D8GLgfSf3FATeX7hwFIB+BjHJUkf1D1Sqh2AOqeXcgKRb+7xxzWNi9PP+0KyTH9XzT7FjYvTz/tCpRDLyIisVCIiAIiIAiIgCIiAIiIAiIgCIiAIiIAiIgCIiAIiIAiIgCIiAIiIAiIgCIiAKy0/wDKEOezP2K8rLQHXCJruRB+xQyUZNzmBvnj2oHsx57faoOpoMZ6JqqKaDHomqpYRuZk9dvtQPb0vnDl3qEdNTnPkWjiqingEmBE3kgFS9m4zrj0jO3+MFcc9m757farFTTw7rPJN9Iz7Qrjqan3T5JqAm17A0Avb7VRr2ceu3n3qLaan3R5Jqo2mpuJ6JvNASEjN85e32qFS9hazD2+e3tQU1NvnyTVGop4AGeSbjfCAvvezd85vtQSMx57faoOpqfHGJqClpyPRNQE2vZjz28+9U32b/nt9qgylpsHETeaeLU+/jom5QFZ3s3W9dvnt7fWFWXonsLHljmkYIOOKtVFNTbrfJN89v2hXPFqbtiag8jnN92YuoJJbroGaGkkdl8ttkOKadx5lv8ABu+Th6lrtJfIZKx1quFPJbrjGcPpajg4+tp5OHrC7R4rTdkTVidQaQ0/qalNNd7eyUjO5KOrJH/JcOIWlWwqk80dzsYPis6SUK+q+Z823242+3+EZYX3CvpaRr9F3JrTPM2ME+O0vAFxGVv41Jpv/KS0/wBOi/EvBrnYdS1FRTV1/wBKUetqKha5kD54/wA/pY3EFzW4IEjeAyAQTjkStctWynYRe43SW7Qdme6J25NE6F7JYX/BkYSHMd6iAVqSThpJWO1Sqd7eVFppm6/lJpv/ACjtP9Oi/Eg1Lpv/ACktH9Pi/Eta/cL2O/5u7P8AVu/EofuFbHP83Vn+rd+JVbM1p+BtP5Sab/yktH9Pi/EqflJpv/KS0f0+L8S1f9wrY5/m5s31bvxJ+4Vsc/zc2b6t34lCtYj1/A2j8pNN/wCUlo/p8X4k/KTTf+Ulo/p8X4lq/wC4Vsc/zc2b6t34k/cK2Of5ubN9W78SnQev4G0flHpv/KS0f0+L8SflHpv/ACktH9Pi/EtW/cK2N/5ubP8AVu/Eq/uFbHP83Nm+rd+JQso9fwNo/KPTf+Ulo/p8X4k/KPTX+Ulo/p8P4lq/7hWxz/NzZvq3fiT9wrY5/m5s31bvxI7ch6/gbR+Umm/8pLR/T4vxJ+Umm/8AKS0f0+L8S1b9wrY3/m5s/wBW78SfuFbG/wDNzZ/q3fiU6dB/c8Dafyk03/lJaP6fF+JPyk03/lJaP6fF+Jat+4Vsb/zc2f6t34k/cK2N/wCbmz/Vu/Enqj+54G0/lJpv/KS0f0+L8SflJpv/ACktH9Pi/EtW/cK2N/5ubP8AVu/En7hWxv8Azc2f6t34kuh/c8DaRqTTQI/9JLR/T4vxLQNh1RT1dy2oVFJURTwv13VlskTw9rvzOk5EcCsv+4Vsc/zc2b6t34lsWmdJaa0bQyWvStkpLVRySundDTM3WukcAHPPeTgcfUFDtyGWbacjLoiKpkYREQBERAcn8KmnqKvYHq+mpel6WSiLWGJm88HI4gYOSPkWj6305qXRW07RtftK11fdZ6GqKxscDaynp4/c67YPRSyCCNpexzS4DPAHPevo6SOOVjo5Y2SMcMFr2hwPzFRmp4ZwGzwxytB3g2RgcAew4PasvevKkYatLvGfIep4dKvteqKu5Uk7tr7b65tlqAx/ui13SN8XFPJjLYMe9BDcZyFktY6rttg0xtj0ld5Zob/W6pgqqShETzJPA91JiWPAwWZa7j2YX1N7n0Bqm1z7fSuqmDDJ3QtMrR6nYyPaqT2y3VE/jU1vpZJw3dEr4GOeB3bxGcepZIVfVtblYinSlT1vr+f5ofHd/ssWnLXtKpdHWmjtl7rbhbp7lLBRuE3uU/c6aQ9HuuezGcgOyt22QWes03f77W7Jr9o69skooG+4NjtslptLZN53l3EktEu7gHdAyAMr6SFHRCV04oqfpXt6N8nRN3nM+CTjJHqPBRpKCgoGujoKGmpGOOS2nhbG0/KGgZWONVJ3Kxw+Wyvsci26/lDW7G2y3+2QU1zfXUZqKajlM0cZ6ZvBrsZI9eFzPwnKvT2oNZassV20npuKqttkD6S6X+kkr5qlz4nubHb4BwjcHc5GkHewTnC+rpY4Z2bk8LJG5B3XtBHsKtT0FBVTMqKu30s8sfo5JYGvcz+SSMj5lTNd3ZZ0N2nvY+R7DT7K7tftMVG2KjgraZ+g42wuukD5ad0rZWcwQR0gx1c8R2LFVv7pdNp+Ca0R3EXRmiJ2UMsoeZmW/wB15OjzjDiRTY4Z3t1fZctqtc7GxTWuikYwYaySnY4D5ARwV4wwHDuhj3g3cDiwZDfg/J6lljO1muSa+Lb+5jjh3GT13s/HRJfDQ+a/B/03ZLfr6C46c1npiVstsca+3aesctFFO84w+pLnFplae3G8ePFfS6sUtvtlCXuoLfS0xkOXmCFke8fXugZV9UnK/IyUaXdKwREWMzhERAEREAREQBERTYBMDuRFAGB3JgdyIgsMDuTA7kRBYYHcmB3IiEDA7kwO5EQDA7kwO5EQDA7kwO5EQDA7kwO5MhYyt1BRUta200rJbhc5G70dDSN6SYjsc4Dgxv8AGdhvrTwJsrXMngAEnAA4klYmO5V19rH2jR9G24VLeEk7+rTQ8cHed2n1BZ60bN71fy2r1pV+K0vMWukfzH/ayDn8jeHrK6JbrParXA2it1BDTwsGGsjaGj+rmVtUsLKavPQ5WK4pSo+rS9Z/L9zU9N7OLdZamC93mpF1vAf1amUDdgB5tibyaPXzPet3kc0MwHD2q1PTQYjzEPSNUn00G76Nq6EIKCtFHn61epiJZ6juy4HsDQN5vtRj2Y84c+9W2U8GB5Jqqymgx6NvNXMJIOZv+e32qFQ9uYusPSDt9RRtPB0h8m1QqIIcxeSb6QfYUBeke3cd1hy71UPZu+cOXeoSQQ7h8k1VEEO6PJDkgETm7vnDn3qoc3pHdYch2qEVPDu+iaqinh6Q+THIICk72Zj6w88dqnI5pYRvD2q1PTw5j8k3zwpSU0G4fJNQF0PZjzh7VRr2Y88e1QFLT49E1UZTQY9E1ATD2dITvN9qt1Dml0PWHpB2+ooKen6Qjom8lCogg3ofJt9IPsKA9Ejm7hG8Paq7zQ3zhy71bkp4A0no28FXxeHHoxyQCJzd3zh7VjovTz/tCvfFTwbuRE3mvBF6ec/9oVKIZeREVioREQBERAEREAREQBERAEREAREQBERAEREAREQBERAEREAREQBERAEREAREQBW2tHuhDx7HfYrittP/AChD8jvsUMlbmQewlp4lGN6gO8eSo/f3Tg9iqzf3BjHJVLFI288OPNN3y3nHkke/x4jmnX6X5kBCpad1nWPpGf2grj2dU5ceSt1IfuN4/rGf2grjuk3TyKANZwADjyVGx5z1nc+9Vb0mByVG9Lxxu80ADcS8CeShVNO4zrHO+FMb3S9nJW6nf3W5+GEBeezLSMniEY3qjrFHlwaTgFUZv7o4jkgDGYBw481Td8rnJ5IwyHON3mm8RKeXJARqGdVvW9+37QpvZ1T1irdQ526z+W37Qrjuk3Ty4oCrWYAAe5RYwkHL3c1VvS4HmqjOkweXNAV3Ov5x5LVdV7PtO6kkiramB9LcWuDGV1KejnaO7eHnD1HIW0+U3uOFbqshseT+saqzipKzMlKrOjJSg7M5PdNPa10nmSWD3et7Tnpqdu7UtH8ZnJ3zLz2692y7D8zqR0g86F43JGHuLTxXZnHnxWuag0HprUzekuFvayqHmVMB6OVp/lD+9alTCv8A0Z2cPxi2lde9fg0knGeKAklSrtDa5sYdLaKuC/UrTwgnIhqQPU/zHn5d35Vh4dSUDKwW26xVNorncG0twiMLn/yCerJ8rC4LTnGUN0dilVp11enJP6mXRM8M9hRY7szBE+dEAREQBantP1pPoTSU95oqaOorpZoqKiikOGOqJXYZveocSfkW2LSNsGk7nq/Rj6OyRRy3KgrKe50cUjg1sssLidwnsyCQCeGcZR3aIZjtD6t15DrWo2fbRJLPVV77aLtR1dshdCx0QcGSRuY4k5a5zeOeKx+r9d7RKzV2orDs5Fnig0dboq+5OuML5HVckjXSCGItcNzqNPWOeJCt6Rpta33XdZtS1Fs/rbE+hshtFHbJ6ylkqqlzpGySOzHK6JrcsAbl4JzxwvLqi17QdL6z1Re9K6Eqr/S67tNNTbsVZTQm2VTInRkziWRu8zDgSY989UjCzSytRfPn0vd2+Rqxc8srPS+nW1lf53NzdtIo4dlb9p1TSlkEdudXPh3s4LWkluflGFq+j9c7TKDU+nbNtKdZJINYUD6y3+50D4n0UrQ17qeTecekwx7euMcQeC9k2z6urNk82yCoo5G+MWOSnkuDHM8XbO4YLMb3SZy4nO7jAPFYPTdr2jaw1ZpO8az2fVWnodDW+aN0stbTTe6Na+NsbjTiKR2IiI8gybjusMtHFKcVmlm9xStOWWGRu/M2TXOrtayazoNnmz2a10txlt811qqy4wOmijhY4MDAxrgd5znDjngMleG27XrrWaGst5mttPFeqi5zW240wcXRxGmc9tRIztI6gcO4OCtaoodb2TXtu2p6e0HX3tk9pltFbaIaqliqoSZGvjlzLK2JwBaAQH5wcgHkvHs/2WampH24arggp2GmuddUMp3h7Yq2vmc50ec5duRlrScYJBwSFSLi0k+jv532+HzMs3Uc3l93lbf4/I89h2sbRpHWLWl+isrdJaku0drp6SGF7aykEsnRQyPkLt1+X4yABgFduXz/AGXR+0auptMbLr3oiWmtmmL1DcajUBrKd1NVQ083SxNhjbIZt9xDWnfY0DiclfQHyqZWdNdb/IvSvdp/xhERYzMEREARMogMPrC8VFg0vdb3RsjfNQ0ctRG2Ti0uawkA47OC5vBtV1nqeh0PYNIUdsi1FqfTVLqG4VlWxz6WgjkjYTiMEF+89zgBngAuha6tlZedG3q1W6DpqqroZ4YY94N3nuYQBkkAcT2rldq0TrrQ1s0FrOz6addq606RodO36yMqYoqgiKJnWge9wic5r95pBe0EcQVnpZcks/VfT8mtXc7rJ/NT0X3aBtf0np/UctUNL3+ptFF4/TV9vO5HIGuAkgkg3y5jgMkOzjgsjrLbLV2XXelLPZYKaosV0ZA+6VMgJfD4y0ml3TnAyGEnPeFhNH7Mam968r9bHZw3RFsqbPUWx9DU1UUtXWyyuBMsrYHyRNAAOCHknPEBY7S+yjX8mxnU1Fqe0Qx6te+OK1U4qWPDobe4NofKcml7GDOeW/xwqySik5LVa2+P7FHn2i9H8tv3Oo6D1rcdX37VkDmU/uXZbiLbRyRtIe97G+VLieB6xbjC3RaFsP0xfNK7ObbQ6po2U18n36q5xseHgVDzl3WHB3YMrfVFSydkZ6LlKClLmERFjuZRgdyIiAKE8zaeCWoeHFsTHPIaMkgDPAdpU0QHKNm+1TV+0DVmstP12mBp1lmbT+5gq2l8z2ytcRLK0HkSODRxwsNb9Y7cafamzRM140xqClttukr7yKK1S0z4iWnoIWPdI4b8hBPEcBhbjpnTV8tu1nWmpaui3LddoLeyjm6Rh6QxMcHjAORgkcwMrz7NdO6ksP5canv1rc+7Xq9VNZSwCVm/LSxxtZTR7wO6M7pxkjG9xwsyab05I1qkZOTV+ZiYNcbVNOan0tT65jsb6TV1Y6jjt1HA9tVb3bpcHOeXESgY62AFuevK3XMMVDR6Hit0ElTI/wAaudxy6noYmgHecwEFxcTgcRyK5hsyZrys16/WO03ZJqqK91ZdT01TJW22S3Wim44bE1lU6Qkjznhhce4LeddXbXRtdvqbTs4dfbbPLNT3uxy1FOytfCeEb4XulEJGWklrpAcOb2ghRKPqK2//AJoWpyzOWun8/nuMFbdsl/fswrtWRacOorvQVs1uZHawW09bKx2OlYSTuxHnnJxgrcdk+q7prrZrp3WV6pIKauu1H09RDBno4377mlrc8cDdC1bZRo6/WHRWoKWpsL7DDdqiomttiM0cht0Lm4bEXMcWZJ44a4tHeVmdlluv+iNlmldO3WwVEtwpIvFqqCCaJ3Qb0kjt9zi8NLQC3O6SetwB44tUcW7RXQw0e87xZm7JP6mIu21jUkG2WwbO6HSckNmuD6iKoutTwEsscTnhkI7cY4uK1K67d9WV2qbrTaXuWl6Wks16FmhtNwLjW3ctLBNJHICGxbu+cBwO9uHvXQta6avt02kaE1Bb6IzUNmqKt1ZJ0jWmJslO9jTgnJy4gcAVy6/7LdS223av2fWfZcy9O1denXSm1I2opY46Fsjo3EzF7xO18ZY7d6JjgcjJHFKbXTr8br7XL1nOLWXbS/hv97HXNpeu6nRGiZtQUdvbPcJHR09JTyO6rp5CGsDsdmStfsmvtY6avl90ntRntNXXWyy+79NWWuF0EU1ON5r4yxznEOD2EA54ghXtoekdR6l2fzaYtdvldc7H4nU0NTUSxtir5osO3WkOLm8W4Je0cT2rVqzTm0LaPqyr1ndNCVmmY6mjorEygrKyllqBTtndUTzvMMr4w3e3Yw0OLiDktHZVRtUlHda/sTmk0nK/L9zIXbWG26SyVOp6CLTlmtlrtjLg+S4QPl90CWl7mMIeOiDRwyc8SrTdq20TX1VTUuzGls9vfTacpL/cW3WF829JUML46Rm6W7p3R55zzHBeDapS7QNQaxg0tWbLdS3bQFtjimLbPXW6L3UmGPJzCepje2JuPNA6yyF2pdfaT1pcdb6O2bV14h1ZZKaklt0NVRwS2urgaWRibflDDEGuaCYnPI3TgHhmVl00srv77+8SnKzturfa/wAjo+zzWEevNH2zVUUAhFfCHujBzuPBIcAe0ZBWxrS9munYtmugbFpO611LHU00QjeTKA10z3Fxa0nnxOB3rc8nOCFSpHLJpGSjJygs25VET51QyhERAEUZpI4GGWeRsbGjJc44AHyrF019lvUnQaRtVVfH53TNTtxSsP8AGndhnzNJd6ks27IhtJXk7IyqxlVqK3U9QKKAS11W7g2mpW77ye444D51nqDZfqC6vEur74yGHGTQ27IafU6U8XfMAt2tumbHp2nhp7NbIKVvSDLmN6zuB4lx4lbMMLUnZvRHNxHFKFLSHrP5HP7Xs/1bqRrZtQ1rrJRO/wCq0rs1Dx/Gk95/o8fWug6f0nYNLUZpbFbYqVrzvSOaMvld8J7jxcfWTlZfBCcSMBb8KMIapHBr42tiFaT06EWR4VQ0756yNJ7CqDe6R3LkspqkZ2nEfWPnhSezqHLioVHSeT5ekarjw/dPJAVDMDziqNj7nnmqjpMdio3pOzHNAUDfKnieShUM4xcT6QfYVIb/AEp5clGo38xftB9hQE5GdR3WPJSDTujDjyUZN/cdy5KQ390cuSAjE3LfOPNAzyjuseQSLe3eGOaDpOldy5BAQnYd6Lre/CuPZ1fOKtz7+9F/LCuP6Td7EBVrOA6xUWx8PPcqjpN0clRvS496gAZ5V3WPJW6hvWiyf1g+wq4N/pXcuSt1G9vRZ/hB9hQFyVhMbusVUMIbweeSpJv7hUh0mBy5ICMQO75x5rHx+nqP2hWQj393hjmsdF6ef9oVKIZeREVioREQBERAEREAREQBERAEREAREQBERAEREAREQBERAEREAREQBERAEREAREQBW2k+Pw/P9iuKDQPH4cHv+xQyUe97uoeHYjJOqBunkqvI3D8iqwjcbx7FUsW438T1TzVQ7M3I8lVhGXZPagx0pOexAW6l2WM4Y8oz+0FcdIN09UqNSRuM4j0jP7QVx3mlARa/qg7pVGSc8tI49yuN80KjSOPHtQEA8dKeqeSt1Tssbw9+FdBHSnj2KFXjcb/LCAnI4brvUFRsnVHVPJSkwGn5EZjox8iAjG8YOGnmm95U9XsVYvffKmR0p5ckBaqJMtYN0+kb9quPf1fNKpUFu6ziPSM+0K48jd5oCLZOA6pVGScxunmVNuN0cUZjB49qAgJOuRunkrdU4FrMj9YFeHpCezCtVZAbH+0CAuPcN0nd5I1wGOqVJ2MHkjSABxHJAW43DiN0815bpZ7XeqZ1HdbdTVkD+Do54g9p+Yr2RkceI5qe83lvD2qGrqxMW4u6ObXXZJBR4n0he6u1EvAbTyPM9NxOMbjjlo9TSAsFWUetrAC69adNZA3/AKzbnb4x3lh4hdhqC0tZkj0je31q4eDTha9TCwn4HSocWxFLSXrLxOLUeoLRXkRwVbWS9sUoMbx6sFZA8AD2Hiug3vSGm9QtIu9mpp3YBEm5h4+Rw4rT6vZE6mJdpbVVZQgDhT1TRUQj24d/4lqSwlSPs6nVpcXoVNKl4v4mOReestO0OzEis0zFdom/rrZUN38d5jk3cfIC4rGjV9kjnbSXGoktdS87rYLjC+leT6hIBvfNkLXcJR9pHQhUhV1ptPyM161zO8bcaahuN1hsuhr/AH622GY010udCxhgpZWgOkYQeLi1pBOO9dKZIyRhfG5rxjILTlfKms59m1BqnVGodN7Y7rsr1w59Qx+n7nVQMiulUANydlHISZ2zNa1rXRZ3s484EJF3diK0pQStpqdr1FtjtlpbQCxaXvWo5a6j90XMoIgOgpf4R5dy4kDHNbpYL7btT2O36htE4mo7nTx1VPIOG8x4BGR2HB4jvXEdSbTLVJoW26W2n6rn2a3i82hk77qWRUkE7x51PG+XgHkceiwHYJwOCzuyC5bUo9BaLo6LQVkpLXHS9BUGtuE9JUxwMkcyGRkHQvy58TY5CHvacvIOFlcU4vTZ/kxU6rz2/l9CsHhD1Vwoa292nZFquus9BNNDLcIzFuEROIe4NJzjgV0u36osN1tFvvdJd6TxK7QR1NFJJK2Ppo5GhzC3eIySCOAXAtjmy++at0RXifajqe22ytulcyW2UjYGw9GZTvNDiwvAPfnKxmvaHZTpfV+q9P7VJ47ZarfpyhotEw1c7oYy2OFzdyiOQJKjpAwENy/O7wUJRUVffR/khznGTdtE2j6U91HMuFRRS0xhhp2Mf41JK0Ru3uznkY9a8t/1npjTtirdTXS80jbdbgPGZo5mvEZLg0A4PA5I4L5E1RDf67TeqaLUE1zjqJtPWBsjXyPZMAZSOPIh27jPatu2s6F0/bL1tI0jZbA2O11OlKG5zUbS4xOqGVXWmIJ4O3A7J7linpZbXv8AK/2Rfvv7jjyWX52/J9QW+vpLpRQ3ChlZLT1DBJG9jg4FpGRxCveta7s2l09NoOxy6UmpJbUaKLxd9I8PhI3RndIJB457VsQ5BXqxUZNIvSlnimwiIqGQKzWVBo6OorBA+boIny9Gzzn7rSd0es4wFeTkhKNU05tL0zqbQv7oFHK+K3NgknlEuGvh6PO+1/cRgrS6DwhnXyspqHTGyzVF4mntdLd5GwiNnQwVIc6He3j5zmjex3ELnerbNW2zXVy8Higiqm2naLcG3aB8ML9ynos5r2bwGG8BhuSOJW1SaLu1/wDCC1bFp3XV50pBRWO0QtitkUJbIxrHhoPSMPmgADCyRUZuLi9H9k7/AD2NaUqmWS5r7tW+RuUO3TSz9L+79TbrlT1xuBtIspjDq3x0HHQbo4E8Rx5Y4r3aR2pNv99k0vf9HXnS946DxqCluLGnp4c4L2Pbw4HgRzXPNT6Ktux26aN1oZbhcbVZ7tVVl+uU8bp5xJUwPj8bkDBgNa5wLjgBrQT2LcIdsdn1vqFtl2QNs2tXwUUk891pa9r7dRyZAjgfVRNkaHv6xLW5IABI4q9ovWOv2K56iajJ2ehldou09mg7lYrLS6Tu2oLlqGaWKlpbfuB3konSPJLuA6rSvfpHWV21GKl180LdtLinLdx1zkjxNn4JaftXDds18vNLrHZhcdp+rbRszmjuFxa+5UN3jkgjaaOQNHTVMUbQXcsFvbwKua0vulNR7ItQ2jTe3uPaFM+vtvSyUtzpJpqKM1DBgeLcWh3Hn61fu7Ja7kSrSUm3sj6Pp6+grGvdSV9NUCI7rzFM14Ye44PD51gHbRNN/lnS6Ihq2T1dXb5Lk2eGVj4WRsk3C1zgcB2excA1/pyr0ZetY2bZpb6ujbWaPjq6iGg3nPke2ZjXSNBJ8puOdxHHitS1PUbHnar1BPsZr6aot8OzipZO+1TvmiZIJ+Dd8E4nAxvNzvA8HAFa00qcFU5NExrylUcGrW+fkfZdNcLfWOe2jr6aodF57YZmvLPlAPD51addaF8FTJRVVPWSUjHOfDBOxzg4AndOD1ScY4r5IpJrDVWuwv8AB2rDV3gacq26kFvlfNIwGmd0YqRklk/Tbu60gPPdheukrdnE81lGxWuE1fFo26DVraOd0j4SKQBor25JiqemEnVfuvzvcMLM6WVyT5fv8tCsMU5xjJLdX+mnnqfVMN6ofE4auvqaegMrA4xVFQxpZnkCc4XgOuNLt1kzQRukJvclB7pNpg9ufFy8tDufHiOXdxXzlojSFm1lfmxaoopLjDT7P6eSOGaR+42TfHXxnzh381a2KUdgZtV2f6i1I2nbdbjoB1JR1VZJuy1MsNbMzcYXHrvbEGZAycYKpRgqmVy5pv4CeIkqkoJbNI+sERFQ3DW9f7QtK7MtNVWq9X3AUtDStJOBvPkd2MY0cXOPYFjq3aJWnS1i1ZpbQl51DT32lirGQ0hY2SCKRge0v3jjkcfMvRtRtNtuWhrzLcLfT1UlLQ1EsBljD+jf0ZG83PI+taDWXut0/wCCpp+ot5kbW1enLTbYN04cH1DI4iQewhrnO+ZWjG8JPmmreRik3mtsrHvsvhFW6/WD3XotAaj8amub7TRW4saZayoYOsY3Dq7g+EeC3PQOvqDXdHWvit1Za7jaqk0dxt1YAJqSXAIa7HA5aQQR3rStb670b4OezSxUlW61w1T2R2+0x11VHSwvqXN4ufNIQ2No4uc4nlnmpbDbpoOh07X36LanpnU951DdBLebnbrnDLTOr3sG5TRFrjgNY0BrT1iGk448Jsm5PpoY6c55opvdX/n0Mvc9tNntWoaq2Taeu8lqoKptFX3sRgUlLO443XZ4nGRkjgsjqja7onSetbFs8uFe6W/X+Ux09LA3eMYDS7fkPJoOOGea5Dtz11pTVEddpVmqamzaks1xZ0GkaqJjX6ikDg6NzYW+VnifjzmfOtw2sWajj1hs1vfuTTwXKuv7TWyxtBkLhSuG6544kDkOxWjFJwT5tJ+8x1qtSnCbjva6Ot1lbSW2lmrbhVR09PAwvllkOGsaOZJWh6Z28bPNVaMv20K110wsOn66WhnqpIiOlfGWgmNvMhznNDe/IW6VL7DeZa3T9RLR1r4g1tZROe17mNfxaJGZyARyzzXzadNV122VbWrNZYZYRDrt04jpYhvsp4n0z3GNgGDutaXYA96ogr5k+mnxRszzQs47HadEbVIdXXuTTtdpG96frTSCvp2XGIAVNMSB0jCOA4kcDx4qOuNqlJo67RWCi0zdtRXI0brjUU1tY0upqQOIMr8+sOwBxOCuXbLr9pSj2lu/c62gHUGlo7PJPqConuArIKCoGNwGc8IXk53oiRgZOOCzF417pHZvtiuustZ6horfY9TaapX2i4TSjoKt0ZeTBE/k+Rwe1zWNJc4PGAcqzgnUjHk0/wCe8wU68pU8z3udFm2oaVhsVo1E2WWaivHGF0bMuawNLnOI59UA5+RabNtTt20Ohdo652vVOiodVW6aezXkuEL5omAOMsLm9aNwa5ruPHDlrWx+H3HobTWatLaWi0hZZ7hOKj9Q6pLi3eb2eRLjgrB2HXejvCGvlVqGLaPpSJ8dnuFDo3TVHeKeSv8ALQlj6qeJr95r3YbiPHUaBnBJAn1U3ZePkvzcmc21r5ef7NWPlXY7sN2nQeExbr9qu61GpLTVyVEmlL5qhklXT10kZO5vAuy15x1Se3sX387X21rT5I1Xsq90YmnjVWKsEwLfhOY8ZHyLllr1npnUtr2YaItN8pW37Td3pKm90AkAmtsdM/MpqW84QQMDexvEgDOV9DU+qaS4zCPTlFX3svJDHW6ndJEXDsM3CJvzuCTeeClz1X4ZioUu6cknpvr4/g1i2bd9nNdI2muNyqbHUuO6YbpSvgO93AkYK3ahvFoukHjNsutHVxYzvwzteAPXg8PnUJtnmrdYx7l5sVlttO9uCbg1tbOP9BvVHzPWLh8DTZO9s81TLdYquoO86SgrH0jGu7wxhwfnyohQlPkVq8RpUNHJS8j1z6ntUc/ilO+WtqDwENLGZHE9g4cFkqDTuv745rmW2nslI79ZVHpJyPUwYAPyleOh2R7U9AxRRbOtqFHVUkbgBR3+0tl6vwRNEWOHykOWRO0XbXpokax2Ivu0DTg1elLrFVYb8J0NT0L/APRZvn5Vsxwat6zNGvxqT0oxt56mbteyTTkTmTahfU3+Zh3h4+/fiB7xF5nycMreKeKGnjEUMbY2N4BrWgABczoPCS2PSzsoNQakm0lXSO3G02qaKazvc/4LDVNY2T1bhcD2ZXSKCuoLnTMrbdWwVcEoDmSwSB7HDsII4FbUKcYKyRyK2Iq13epK56ffb3qVqpccw8Ocg+wq6CDwBVuoODDvEelH2FXMRcc7q5xx7lRsh+CVR00O90RlZv8Awd4ZUmuaG53hj5UBGJ/V8080a7yruHYEjewNwXt596B7BI47zcYHagIVDh5Lh+sarjpMt80q3O5h6PDmnyje1XXPZjzh7UBQPGOTvYjH5B4Hmq9LG1u857QBzJKjHLC9u8yRjgSeIOQlyLlGvHSngeSjUO60PD9YPsKmZGNeS5zQO8ngoTubmIkgeUH2FLklyR3Udw7ED8NGWnkj3M3SN5vtUg5uAN4e1AQZIceYVVrgZXY7gpMLSODgcqgI6V3yBAW5nZMWB78Kb34byKjORmLl54Vx/moCIk4eaVRshx5hVwcgqMOQgICQmRw3TwCt1DiXRdX9YPsKvD0ju7Ct1ON6L9oPsKAnI/qHqlN8gDqnkqyY3DyUhjdHyIC3E/q4DTzWOiOZ5/2hWTjxhYyL9IqP2rlKIZeREVioREQBERAEREAREQBERAEREAREQBERAEREAREQBERAEREAREQBERAEREAREQBWgGuroWkZBByCrqttANfBx7CoZKPa+mpt0+Qj5fBCMpabdA6CP6IUnsG6Tk8lVjMtBz2KpYttpabJ8hH9EIKam6XhBHy+CFNjOYz2qm55Xn2IC1VUtKWM8hH6RnvR8IK46kpQ0/m8f0QqVMY3Gcf1jP7QVx8fVPFARbS0u6PzeL6IVG0lNx8hHz+CFNrOqBko2Pn1u1AWvFKXf9BH9EKNVS03RtHQR+ePehXhGN/O8rdSzDGnJ88ICT6anwfIM5fBCq2mpw30DPohTe0Bp58kDeqOKAtRU9P1swM5/BQU1N0hxAzl8EKcTSN7j2oG+VJz2IC1PS0263yEfnt96O8KbqSlDf0eP6ISoZ1WdY+kb9qm9hLT1igICkpd0A08f0QqNpKTjinj5/BCuNZ1RxRkYGeJ5oC0KSl3/wBHj+iFGopqbdZ5CPzx70K8GZeeJUKhnVYM85AgJPpqctOYI/ohBTU+B5CP6IU3syMZIQR4aBkoC2ympscYI+fwQqCmp+kI8Xjx/JCuMZwOT2qIZ5Q9YoC3PS0263yEfnt96O9SfS0oYSKePh/FCrOwYZxPpG/apyNww8UBAUtKQPzePiPghUZR0mD+bx8/ghXGs6o63YjI8ZO8eaAh4pSh+PFo/oheS4Wi1VcBp6y3008T3AOZJE1wI9eV7Q3ymMngFCq5N/lBQ0noyU3F3TNMrtj+iZnOktlJUWeU5426d0DfoNO4fnCw1Vst1PSOEtq1RBXNA8y5UjS89w32YA9i6juA9qqRkYWJ0Kbd7WNunxHEw0zXXjqcYq7bragwLto1tYxp4vopmyDHfh3FeM6rtcTujrYqqgcOYqYHMA9WcLtrH00sj4WTRukZjfa1w3m55ZHYk1DS1DSypgjmGMYkYHfateWCX+sjfp8akn68F7jkNFc7ZVA+KV1NITxw14z7F6ZIYpeM0LHgct5oOPatwuuzfRVx689gpo5HvAMkIMbsZ72rEzbG7VDl1m1BeLfxyA2oEjf/ABgrDLC1Y6o3IcWw01aV17jClkZ5xtORg5COaCd4gHIxy7F7J9m2tqUk27VlBVM7GVdGQ4/6bXf/AMK8Eti2m0OTNpm21zAeHidw65+aRrQPasUqFSOrRswxmGqbTX0LkTQ1u41oaByAGFXGOCxktyv9Dwumg9QUuBx6OnbVf7BzyvNJrXT1McXGpnt3/eFJLS4+ta1Valu0bMXGS9VpmcRY2k1NpuvANBqC3VIPLoqpj/sKyDXtcAQ4EHuVLl8rJIioSR2IRYbjd4P3RvDkcKgjaOQ4nhntVQcqqlBFHNDgWuAIPYVGOKKIYhiZHwwdxoGfYpom2xDV90QlggmGJomv7t4ZwqNpqaMEMp4xnuaArmQiNsjLF62KBrclxAJPDiOzuWH1LpW2ao09cdN1gdBT3OB1PK+AAPDTzI7MrM9mUVWs2jJsmeGyWiksdtprZRA9FSwsha5wG84NGMnHbwXqEELXOcImAu4HDQM/L3q4iySm5O7KxpxhFRitEQ6KEcREwcMcB2J0MXVzGzqebw5fJ3KaKLsso87BFXHDKpyUE7FCARg8iomKMt3CwFo7OxTAyM4KtvnijBdJKxrW8y5wGEbJSvyKyQxStDZImPA5BzQVFlPBGAI4I2Dn1Wgce9Y6q1dpSiOKvUtrhPICSrjaSfVkq1Fq611Td63Ut1uHcaK11M7T/pMYR8+cKU3siHFbyMu6CJ7hI9jS8cnEDKluMyCWgkcieJC8MUurq797NAXmQHk+d0NO0fKJHh3/AIV7oNLbTq3GbXZbcwji6asdK9vytazH/iUxhU5IwzxGHg/Wkl7xgb5IaATzOOarhrGO4Na08SeQXrZsv1VKQbnrhkbHEDFDRiMjJ5AuLs+xZKHY1pvIkutxutxc3n01UWg/K1uAs6oVXyNafEsJH/a/kjUp7xYbeCKiupIwclzWkHPzBeVl+o7i5sFpsVfc3gbzOipTu/SdwC6pbdB6QtA/5P09RxO+EY953tKzcMLIG7kTWsb8FrQB/UsscG/9pGnPjNNf44X8zkdNYNod1GKfTdFbWP8AOfWzbzgP5LeftWRp9klxf0cl61bIwF+DFbqZkDcd28QXewhdPVupGBH/ACx9hWaOFprfU0qnFa89I2XuNTteyTZ5bJfG/wAm6asqufjNaDUy57w6TJHzLamUVFE0MjpomtHIBgGFewQhBIWeMIx2RoTrVKntybLbaWlPHoWfRCClpi4gwR/RUg054cFQNcZOZwrGOxaqKSlxGDTRnyjfehXPEqLspofoBRqI8dH1j6Rv2q50fe4+1AeWtslnudPJSXG10lTDKN17JoWva4HmCCOK5zcPBl2QyzPrdO6fm0pWPJeajTdXLbC95989sDmtk/0gQe1dR6L+Mfam5vcnIDkf7mu2PTRB0htcjvELMYpdS22Obh8ESwhjvndkr3af1FtVF6pbLrvZnboKaV5Hupa6/pYW4BwXscA5ue7JXTwwjtVmrja9sbXgEGQZHfwKhq6sFoz4o1Zo46GrtSXja3sEfqShbPJcaXaTp+ojmutNG6TqEFw6WERN7GO3QBwC61XbStomp7hfrdsfq9OyW3RFsoaqorLxTvmkvDpqUVLWsLHNEWYsdcg9Z3LgtmHg60tL4xaLRtH1VQ6Wq5Hvm0+yaKSmc15zJGHvYZGsdk8A7hngp6n8HLT94rZ6nTeqb7pOG4W+C1XSmtEkbY6+khZ0ccb99ri0iPLN5uDg81KfqqL5W+S5/wA1Iklrbx+pi9GbabnrC53ZsNloIaSl0xBeqdvRkvEzgd5jjyLcjgtX0jtv2kawvlCyOh09QWmi0fT6su0rqR8kku9LUMfBEN4bvVhaQ455lb3e/Bx05ca2Gr07qm/abYLSLHVxW6Vm5WUY5MfvtJBHwm4Kymgtg2kNns0Ulrqa6qZFp6DTXR1UgeH0sT5HNLuHFx6VwJ7RhVpxksud7J38XyMclNN5ebXuXM0ix7Qdr1PpH92HVkGlJNIyUM9zfbKSnkZWUkTWkxDpS4tlJwM9Uc1gNknhEa41pq3T8Fy0+LhZdVUxqAKawz0ps+Y2yR9JO9xbM1wdu5AHEA9q6HZ/B+tdkaLTVa31Hc9MMD4KbT1VNH4pBG/I3MtaHvAycBzivdofYo/RFxopRtK1XdbXaITT2u01c8YpqWPgGtO4wOkDWgNbvk4AVoOzWb+dfeXeaUWtmaj4TWi9W38WC86b0RbNeW+zvmkuWjK6oZFHdGvZusfh4LHmNxDgHAjIWjaI2h6Y2dWLVbNB6GuOkLrTX6z01w0ddY2to7aKp8cTpaNkeGtjkBLurwLwThd62gbKqXXNfb9QUWprxpu+2sOZS3K2StEjY3cHscx4cx7SO9q193g56auGnb5a9SaivV6u+oHU76u/VD2MrA6neH025uNDG9G4ZADePHOcqsXlvoTUTmlZ66HPfCZ1veK+w6+2f0tBRGOh09S3Glccte6d9Q1u649jeKu6y2s7WNkVJX2jWFHpi718un5b1Y5KKlkhjjlgeyOSmma55Lh5RmHjGcnhwW1VPgs6bu9FqWLU2uNUXit1VbIbVX1888bZhFE8OYY9xgaxwxzAXqk8HCx1lLcYtV6y1DqOrudE2zwVldJH0tDRB2/0UW6wDJcBlzgXHAyeCo6b7txi9Xb6v7NGRzzRSts381H7pmnXfbtr7ZjNUVm0ql07cKGr03NfaNtuppIX08sYB6GQuc7fBz5wAWvWfbxtQ1Vbr1ZXUcTjctMV9xprpBp+oo47PPHEHCORz3npd4PIa5pHFhK7pqXYfozV1XS1F+FVURUtoms3QF4DHwSNwSeGd4cwR2rxaT2HvsBkhvu0vVepqBttltVNQ3GeMQwU8g3XcI2NL3boa0OeSQB6yrxvnnm25fzqYYKTpxUva5no2B09/l2RaZn1dcKO43GaiZI+ogpzGHtPLIcSSe854roDaamMj/IR9nvQtf2d6KZs+0nR6Thv9fd4KHeZBPXFhlbHnqx5YACGjgOGVsTWZlfx7lKdzIy1PS0uY/IR+ePehTfSUm7+jRfQCTM60fH34U3sG7zUkEW0lJgfm0X0QqMo6XHGnjOP4oV0MGBxVGM4cUBaFJSb5xTRfRChUUtNvRfm8fpB70dxV9reuesVbqWnehwf1g+woCslJTbh/N4/ohSbS0xaPzeP6IUpGndPE+1Va07o4lAW2UlMB+jx/RC8EX6RUftCB/UslG0gc1jYv0io/aOUohl5ERWKhERAEREAREQBERAEREAREQBERAEREAREQBERAEREAREQBERAEREAREQBERAFZH74Q/IfsV5Wm/vhD8/2KGSjIPD9w4PDCqwP3By5I93VIDTyVWO6gy08u5VLEWb/AB5c1Tr9NjhyUmO4nqnn3Km95bzTyQFupMm4zh+sZ/aCuOMhac4xhQqnEMZw/WM/tBXHuG6eqfYgKNMm6OARpk48BzVWyHdHUd7FRshyeo7n3FAUG/0hJSoDnRjdaSd4Hgqg+VPVPLuXAto2lYNf+ENbtKX2932C1RabfVtprfc5aRpm6fd3ndGQSccEWslHrf5Jv7ESahFzfK3zaX3O/u4qo81fMs+2Ol8HOt1zpjVt9mudksHuZLZJ7pXMjfG6ueY2QTVEpDWxtfunpHng0knkpWXw0tPz2LVM1e3St0uWmaWCtL9K6kju9sfDK7cDpKprGmDdd5++wYBBG8mr1RL9X2tP3Ppdh4IPSH5F8yay277WbvsTqNbaOs2kPGH3OggpbhaNUsuFuqqaWZrX9HOyLeDxndcCwAZyCcLMXLb1W6Qq9Sil0HNcLzFqyi07JTx3Vz4X1M1HFJ0jHOYOjjaXbuN3iBvYBOFC9rLz0+Y5N9NWfQNR5jf5bftU3cQuM27bFtEraLU9krdnFsZq/TdTSs8SgvgdQSwznyczqmSNjmNABLwI3OAHVDjgLlF/8LXWer9Lajt2z+n0VVX/AE7dLXFNV2PVQuNtlp6lx6rahkO8JAWkOaWDAIOTlL9AtY5uR9eg4aEaQuC1W3Ks05e7/Y6fRktfqp1dbbVS0rboTTVFZURkjLnNHQxMwS9waTugkNJ4Kze/CX1Vo+0X2h1Xsva3VtiuVuonWyguYmpqyGtJEM8FQ9jCQC1wc1zGkFp58MxGSnfLrZ295EbytY7+POKhUZc1m60nrg8AubbOdqGp9Raxv2gtdaRo7HebNTU1a3xC4mtp5qabe3TvujjLXjdwW7uO4lcR2iXnSNX4SWt7PtErNpdTR2+02Z9tpdL2671kMBkbL0peKCGQMc4gefgnHBW3V0S9HZn1244CqDwGF837P9oW0nSmmLPoyi0jdLvfb9cax2nqbUtS6ilhtUQ3ulrXljpIzjIDejLyS0EDiR7ZPCDbUyWkag0VV0GobXdbra7jQsuRENPU0tKJ95rw3y8UkbmFriGkb3EAghN9v5t+S0YuXz+X/h9BNVPflcD0j4RWu7+/SFdetl9HZ7Prwz09om92OlqY6lkMkjRURCINYxwjOHNe88RkBY3YRt01tJsjodS7U9MXW7Xu43m8U0DNN0NTc96OCvniaJHthayHd3Nxu8RvBodwJIFlBtN9Cs/UaTPoyo5M/lt+1TfxbjvXI6ja1tRu0bRpvwedSR5kaGzXu4UNHGePPdZNJIPnYFV9V4T95bkW3QOmGnhk1VTc3N+UdHCCfkPzqoOt5w3iqbzWNLnkNaOZPBcnOzfa/eRjUG3SspiR122OzxUzc9wMpkICgzwdNOVTxLqXV2sb5Jz/ADi7yRsJ/kR7oQHQbjrPSNnLpbpqe10waOIkq2Aj5s5WlXTwh9kdM7o4dXxXCRrwDHQQSTuyP5IXvtuwfZHa3tmh0Lbpp2/rqkOmeflLyVtVNp+w2psJt1gt1JiQAdBSsZ9gQHPP8YGO5DOkdmWsL2DyLaHoAfnkIUfy72/3fDrFsdt1ujd23i7hrmj1tY05XXC4qjskID8wvC42MeFfq3wjdI1+yeqNg1de6B7rncNNyT0tPBTxvaA+om3sPIzyxkjvX6C7HdL6/wBF7P7Xp/aZr1+sNQQM/Oro6mZB0hIHVDWgAgcRvHieZW7boJ3sDOMZxxx3IeLslAW5zwZgcekb9quv3908uStVA4MOOAe37Vec4bp4H2ICjd4jsVI+kwc45qTXcM4PsUGSEAjo38z2IBuyGTJ3VCpja8MBY05eAchT6TL8bjvYqVBGI+H6wfYUJTa1Ri7ho/Td2yLnp621WefTUzX/AGhYWbZBs+lGI9LUNL66RpgI+hhbkcgId7d7SqOnB7oyxxNaPsyfxNCfsa0wDmkq7xTHs3LrUOA+ZziFYfseIG7S62vsDe4Oif8A2mErobckckJOcBY3hqT/ANTOuI4paKbOaT7Kb9DuupteVLuIaOnpo3c/kAUDs013EPJawtr8fwtvJJ+cOXSqg8I/2jftV1xIUejUuhdcVxS/2OWu0BtEYOrerJJ8tM9v/wDErR0ZtLYMNdY5f9J7V1fiQqAcFDwlNmRcYxS6fA5N+SW08cfELG7/APMvH9y1PapqLVWx7Qd32i6wobJHaLNB01QW1zg93EANaC3i4k8AvoY7xXyP/hEtiO0Pbls4pbHatY0en9H2jeuV56rn1FZOHNZDGGjDd0bxOSeZ5FUlg6fiXXGcRzS+B0DRk2ute6atesrFbLFParzSsq6aRteSHMc3I5N5/wB4Wcbpfag7P/JFjA/+Ncf/AOFap4EuyTaNsN2RQbOta6ipL7bqOQTWOri3myNpZBvdHIwjqlp5YJ5lfQuCeIKs8HS3+5X9YxC6P3I5O3SW053OjsTP/wAw8/3K63RW0t54zWSP5N9y6mw8x3Ku92YKj0Kn4/EfrOJ8PgcsfoLaL1c32yxAuAP5q93b/KVx2zHW848rrSiZ+xoC37XFdLqc7rf5bftVwvxzaVKwdNFJcXxT5r4HNWbJL3ICKrX9wZwx5CCJv9ppXoi2PUwaG1er7/U4HMztjz9BoXQg8n3hQbx7MK6w1Jcij4pi5f7miM2NaNzmqF2qT29NdKhzT/o7+P6l6hso2cwOY/8AI21zPDxh08AlcOfa7JW45OcYVuoz1OHvx/erKjTWyMMsZXn7U38Tx0dhslsj6O3WikpW90MLWD+oL3BgAwyNo+QKrs9yZd8FXUFHYwSnKW7uRaH5yeCkC7eIIVWOJHJA875y08u5WKlqo3sRgD9Y37VdeXlp4K3UuyIxg+kb9quPccEbpKAqC444cVFpfg9vFSDzu+YVSN2AeqRkoCmXl54cgoVJd5Lh+sH2FT3j0h6p5K3UkkRZH6wfYUBdfvhpwqjfwOSo95DTwVQ7gOqeI7kBRm+RnhzUQX9JlSjd1fNPPuVASH+aUBCo3vJcP1jftU3l+7nChUO9Fw/WN+1XHuO75pQAF+BwVGF+7yHNSa526OqfYqRuOD1COKAoC/ePBW6jfJiBH6wfYVcDyX+afYoVDjmLh+sH2FAXHl+Mjgq4eRzCo95DT1Spb3DzTy7kBCPfx2KoL94gjICpG7DeLTz7kD/KOHqQEKguzFgDjIOam7pME9yhUuOYuqfSN7Fce7qHDSPmQAb4HBUYZMH5VLfOODDy7lGN5xjcdnPcgHlN48AoT72Yc49J/cVcDzvnqlW6h3GHIPpP7igLkheAMYVcuGPkVJHdwJVd93DqH2ICEZfu8+0qo3+kfy7Eje4N8x3PuRrj0r+qeQSwITl+Y/5YU5OkLSAFGdwBi6p88Kcj8N813sQDMmOxUaZN3sVQ9xGd08u5UZIQMFjvYgKN3+kJ4ZwoVBeXRcP1g+wq6HZkOGnl3K3UE5h6p9IPsKAuSb5YcBVbv4HLkqSOww5BUg7qjqnl3ICMe+W54c1jIfT1H7QrJxuOMFp9ixkPp6j9o5SiGX0RFYqEREAREQBERAEREAREQBERAEREAREQBERAEREAREQBERAEREAREQBERAEREAVpv74Qn5fsV1WmAOuETTywfsUMlGSc5nY5vtVQ9mPOHtVs01Pz6FqCmp8ZETVUsSY5vHrN9qoHN6Xzhy71FlNBx8k3mggh6XPRN5IBUvZuM6w9Izt/jBXHPZunrj2qxU08BYzybfSM/tBXH00G6fJBATa9m6OuPajXs49cc+9QbTU+6PJNVG0tPx8k3mgJb7OlPWby71yjaDs11/cNo9FtJ2f6zslpqYLa61zQXO2vqmSMMm/vDckaQc8F1QU1N0mBE3ko1EEAjGIm+cEWklLp99CGrqz/AJzOM3Twd36k0vdG6q1mazVtyudJem3mKnaxlJVUjxJTNiiOfJMc3zCTnJ4rPUGiNrz7Pdhe9qlsiu1VHGy3vtlljipaYsOS57JC98hdyPWxgDGF0rxWn7YWp4rTfwLUJPnuHwXa+qs2sKiv1Hp+h1NqkUzhWWaztpKRk1O/pI5pId4mWQvALiXcRwGFnm7AKypuFdd7pq+CWtuWpqPU1SYaXcjEsNLHA6NoLiQ1xjLgSeGccV2XxWm7ImqvitP/AADVW1mnzX2dw9VJP/bRnEdqHg6Qa8m1HXnUNGH3uutVbHS1tC2ppC+jfvCOeInysb+RbwWHd4Meq7i/Vd5vm0mhnu+o6W2R04p7WIaO3S0TndEIog7Jiw7i0knOeOMAfQVRSwdG3ELfPb9qvGlpu2JqmPq3tzItdZWcVufg93S6Vlz1O7XEdNqaor7fd6OrgpR0NPWUrC3rRkneifkhzcg7pODnivNN4O991DFdbxrPXcFbqS83a2V1RVUtH0VNFT0W90UEURcS0HfcS4uJJcu5+K0/8C1PFaf+CaohFU725u5Oqaa/nP6mmWvZ6y27UL5tH91BILvbKS3Gl3MdH0Jcd7e7c73L1K1Ztn7LBtP1VtHddGzDVFPbqYU25joPFmvGd7329v8AzYW8+K0/8E1WammgDGgRN84KybgrRE/X1fh8jSNpWz286outl1hozU8Fk1Jp8zNppqin8YppopW7skUsYIJGDkYIIcAtGpvBnmfTUtbd9cOq73Pc7peLvWeLhrKqprKYU4EbM+TjjY1gaMk4bxOSu7CmgxxjCeLU5/VhQtE/ElNo5TbdibKK1bN7a7UYeNA1j6ou6HHjeYJIsc+r6XPzLM7G9ndfsr09WaTqL/Bc7ey6V1dbyIOjkhiqamSodHIckPIfK4Bwxwwt98Wpz+rani0HLox8isna9uZE252zcikskZDeu3z29vrUi5m75zfarUsMADR0TfPb9qm+mg3fRNUAuBzMcHN9qoHx/Cb7VBtPBujyTUbTwYOI280BLfZv432+1Wqt7d2PrD0g7VXxeDpD5JvJQqaaEtYOib54QHoc5mPOHtVQ9mPOHtVt1NTgHyTUFNAR6JqAm17DnrN9qoXN3/Ob7VBlLBg5ibzTxeHfwIWoBUPZus6w9I3t9auOewt85vtXnqIIQGeSbxkb9quvpoN30TUBNr2Bo67faqNfHjzm8+9RbS0+6PJNVGUtPjhE3mgJb7OkPXb7VCpezEfWHpB2p4rT9JjoW8lCopoAIwIm8ZAgPQ57S3z2+1A9mPPb7VbfTU4YT0TSqtpYN0ZhagJtezHnt596jvt6Q9ZuMd6iymp8eibzQU9P0hHQt5IBUOZux4I9I3t9am97MZ32+1WaiCENjAib6Rv2qb6anLcdE0oC4HswMvb7VRr2ces32qIpafd9C1UZS04z5JvNATD2b+N9vtXOPCNe1uxfU7t4cYIW8++ojH966IKWnD89E1cy8JmKNuxLUbWMaC91Ezl31kI/vQG+6YMcemrXGXjq0cI4n+IFlA5mPOb7Vj7PSQRWiihMLepTRtJ/0Qva2CDdA6MckBWN7MHL28+9N9nSHrDl3qDKanxxiagp4OlcOibwCAVL24j6w9I3t9auvezHnt9qsVNPBusHRN4yNH9am+mp93jE1AXGvZgddvtRsjMee3n3qApafdHkmqjKWnxwhagJB7N/z2+1QqXsxH1x6QdvyoKWn3+ELVCop4AIx0TeMg+woC/I9u6esPaqtezdHXb7VbfTU4YfJNVRTQYHkWoCbHxgee32qm+zpD1m8u9QbS0+PRNQQU/SFvRN5BAUqXs8lhw9I3t9auve0t4PHtXnqIIG9HiNvGRv2q6+mg3cdE1AXA9mB12+1UbIwjz2+1QFLT4HkmqjaWnx6JqAkHs3z12+1QqXsIiw9vpB2+ooKWnD/QtUKingBiHRN4yD7CgL7nN3Th7faqtewAddvtVt9NAGk9E3gqimpyMmFqAkx7APPb7U32b7sOHtUG0tPjPQtTxen3yOibyQFKl7PJdYekb2+tXXuaW4Dh7V56iCAdGBE3jIFddTU4HoWoCYewAdYe1GyMx57faoClp8Z6EKjaanI9E1ATD2b56zfarVS5pdFhw9IO31FVFLThx8i1Rnp4GmPETeMg+woC897d0kPb7VXpGY89vtVt9NBuOxE3kgpKfHGJvJATa9m75zfaqBzOkPEZx3qLKWn3eETVQU8HSO8k3OO5AJ3t3ousPPHarrnsx57farE1PADHiNvF4Vx1NABwhb7EBPfZjz2+1GvZg9dvPvUBS0+PRNVG0tPj0LUBMPZvnrt9qt1D2Zh6zfSd/qKClp98+Raoz09ODF5JvGT+4oC89zSDh7faqtewAdce1W308AaSImqopYCPRNQEmvZu8Ht9qB7Okd1hyHaoMpafHCFqCngMjvJN5DsQFJ3NLojvjzx2q697Mee32qxNTwNMfkm8XjsVw00AGehagJh7MDrt9qNezHnt9qh4rT/wAE1UbS05HoWoCYezfPXb7VbqHszD12+k7/AFFBS04ecQtUKimgDoh0TfSD7CgL8j2bh67faqh7MDrt9qtyU0AYfItVW0tPgeRbyQFWubukb7ePrWOiGJ5/2h/uXvZTU+OETV4IsdPPj+EP9ylEMvIiKxUIiIAiIgCIiAIiIAiIgCIiAIiIAiIgCIiAIiIAiIgCIiAIiIAiIgCIiAIiIArbBi4Q/IfsVxW2HNxh+R32KGSjIFnDO8UY07o655Kp3sHhwwqM39wYxyVSwYwjPXPNUDcy8+xGdJx4jmqAv6XGByQEalh3Gdb9Yz+0FcezqnrFWqkP3Gcf1jP7QV13S7p81AGR9UdYo2Pmd480b0mBy5KjTLx4DmUADPK+ceSt1LSGs4+/CuAv6U8ByUKne3Gn+M1AXHjqnB7EbHwGXFHh24TjjhBv8MY5ICjGA54nmqgdbGexUZv8cEc+5MOEnLsQFuoHVZg/rGfaFdeDunrHkrdQHhjTw9Iz+0Fcdv4OcckBRrDjzjyVWtOCd480G/ujGOSozfwQe9AV3TvHrHllWqhp3WZJ9IFdG/v9nLCtVO/uMJx6QIC7I07pIPYjI+A6x5JIHlrvkVRv4bjHJARY3OeseBQN65JPHGEZ0nHBHNMP6X5soCFQ0gM4/rGfaFcczqnieAVqp392Pl6Rn2hXX7+6eXJAGs4DDyjY8A9Y81RvS4Hm8kaZuPm80ADPKk7x5KFSw7rOt78KYL+lPLl3KFQH7rP5YQE5GEt85Sa07gG8VF++GkqTd/dHLkgKMZgeceaiGeUzkqrOkIzw5qgDzJlARqWjEZyfSN+1XHt6pG8VbqN/EfD9Y37Vcfv7p5ICrWdUYcVRkeB555qrd8tGCFFvS44Y5oAI/Kkhx5KFQ0gR8f1gUh0vSngOSjUb2I8/wg/vQE5GHcdxUgzA84qkm/uE8FUb5b2ckBSNmBneKju5mPH3qrH0mOJCiN/p3fIEBSoaQI+P6xv2q9gd6sVAfiPOPSN+1XyHepAYvUGo9P6VoPdPUd5pLZR9KyHp6mURs33uDWtyeGSSAFfq7va7dPS0tdXwwTVrzHTMkdgyvAyQ3vOFxbww9NWvWOzO06XvcJlobnqqy087WnB3XVkYyD2Fcyuuu7rpbWOj9lev6kVepdCXGsqqOUnL7taG0rnU9SO1z8N6KTGeuwn3ypGV3Z9UvyZJ08tPvF0fyPsEOaTgHiFgtcaUtWt9N1Gl76JDRVskBlEb913k5Wytwf5UY+ZfNuzTaH4RusLtp3WtLpbVlTZ77XNbXsrH2eK001C9+6ZYAyqdVb7G8QHMJJGCArWl9qe1PVG3G+eDvX6/gjp9LT1Ve/UVNC0T3KCVhMVC0FvRiaDf8pjJx0fDiVePrySXj8rfkrbV35H1ZR1FFJStdRzxywMbuB7HBzcN4cx8i81vv9mudvfeLfdKaooY3StfURvBY0xktkBP8UtcD8hXG/A+t1xtuwO1C5air7w+WSre2Ss3d6NvTPG6C0DI4dvHiuc7I7rtzp9hmoKfTWhtFVlkFdqbo6mr1FUQVDmGtqt4mJtI9oOc4G+c94SelRw6K5SOtPM972PrK3XKgutHFcLbVx1NNON6OWN2WvHeCvSPTOPqC+U9l1ftA1nb7Fs8seuZdHU1n0rFdHzUMEcstTUSOIAJlaR0LeOcAEnHEKzpPaLtb2v6l0Jpun2kN01FctNXKqus9spI3yVlVSXCWlEsPSghgd0W8QQcbwAVISUoKa5/a/4LKLlJx6b/AAv9D6vqTwjwf1jftU3tyw8TxXNNierdRaq0lNHqmrirbjZrtPapa2JgY2r6F4AlwOAyDxA7QV0uTeDCRhXaaZSMlJaFQzgMOPtVGRnHnnmqt390clFhlI4FvNCxRsflD1yo1LcCIZ/WD7CpDpekPJRqd7Eef4QfYUBclZlhwexVa3LR1jyVJOk3Dy5Krd/dHEICjG8POPNRDfLuyewKTOkxxxzURv8ATu4DkEBGpbjouP6xv2q49vV89ytVJd5LP8I37VdeH7vMICrWndA3yqNj4ee7mqgPDRxCizpCOY5oAGHfPWKhUNAMWTnyg+wqTel6Q5wo1Gcw5/hR9hQE5I+oespBnADeKjIJNx3EKTd/dHEICjGdXziotZ5Z3HsCkzfxzGFEb/TO4DzQgI1LeMXH9Y1XXtO75xVqozmLP8I1XH7+7zCAqGEtHXKo2Ph55VQH4GC1RYZCPe80ADMSeeVGdvouP6wfYVVol6QnqqM5dmLOM9IPsKAnKw7jsOVQw4B3zyVJOk3DxCkN/d5jkgIxt4eceaqG+Udk5OFGIPxnIwqgu6VwOPNCAhOMGL+WFcezq+c5W6jezFk+/CuP393mEBUNO6OueSo2Ph57uaqA/dHEclFnSkZy3mgKCPrnrFUnb6IZ/WD7CpDpd88lCo3h0Xf0g+woC5KzLD1lUM4DrFRk3yw8ApND90cQgKMb1eDiotZ5V/HuUmb5bzCi0uMz/kCApOzrRcTweFN7Tu+eVbnc4OiB7XhXHiTd5tQFQ0lo65VGR4HB7uaqA/A4jkos6QjILUAbH1z1ioVDBvRcf1g+wqbel3zndUKje3ov2g+woCcreoeKqGkDzzyCpLvbh4KuJMcN3kgEQOPOPNY2L09R+0csjFv7vMc1jYfT1H7RylEMvoiKxUIiIAiIgCIiAIiIAiIgCIiAIiIAiIgCIiAIiIAiIgCIiAIiIAiIgCIiAIiIArMZPujDw7D9ivK3H++EXyO+xQyUZFz8NPA8AqMf1BwPJSI6h9YRvBoGOxVLFtj+fVPNVDvK4weSlH2/KqcOm59iAhUuyxnD9Yz+0FN0nVPVKhUkbjOP6xn9oK87zSgINeMcj7EbJnPVPMqTPNVW9vyoC30hEpG6eShUuzGOB88K7kdKePYrdUQIxx9+EBN8mGnq9iNkBGQ08lV2N13yFVactBHcgIMfzw081Xf8oeB81VYcA/KU6vSf6KAt1D8sbw9+z+0FN8gAOWnko1G6GN/ls/tBTk80/IgKNeN3zTyVGSc+qeZU2eaPkVIzkE+tAU6TrnqnkrdS7LGcCOuFdHpT/JVuq8xn8sIC493VdwPIqjXjdGATwCk8jcd8hRpwB8gQEI5OfVPNN/yp6p81SjPP5VT9b8yAt1LiWxndPpG/aFN8gweqeSjVHDY/2jPtCuO5H5EBRr+AO6VRknA9U81Nvmj5EYQR86AgHnpT1TyUah2Ws4e/CuAjpT8ihU43Y8n34QEpHZaRgo1/UHVPJVeRjGVVpG7xKAhE/geB5oH9fkVWLAB4jmgI3+YQFuoccMwP1jftU3v6p6pVKgjDOP6xv2hTkI3TxQFGvAaMNKoyTIPVPNTaQGjj2I0jHPtQEA/yrhunkoVDiQzh+sH96uAjpDxHJQqSMR8f1gQE5H9R3A8lVrxujgeSS46N3yKrfMHyIC3G8HOAVUOHTHh2BVi5e1UBHTnj70ICNQ7Ij4frG/apvkLfe5UagtwziPSN+1XSB2oDA6n0tYNY0lLQ6itpqoaOtguELd9zN2eF4fG7LSM4c0HHI9qxuotl2gtW6usGu9Qachq79pfpvcutJc2SBswAkbwI3mnA4OyFuGAqdXvUJW1RN3axzC1eDzsrsmoGait1luDHwVLqynoXXWqdb6ac8elhpC8wxvBO8HNYCDxGCvfTbFtnFsobFQ0VhdELDc5bpQzeMymdtTMXGV75S7ffvl3WDiQcNB5BdA6veParNRgGM54dIPsKnp4C7MBovZ9pjQFDVWzS9JUU1HWVElS+CSqkmjY95y7o2vcRG0kk7rcD1K5YNCaW0vpqfSFktvi9qqX1UkkHSOdk1D3vm6xJI3nSPPPhngthJHLIVDjB4hQ1chaKxza++D9sw1BRWyiqbRXUhtNO6jpqi3XSpoqjxZ3F0D5YXtfJGTxLHEt9S1TUvgyaX1BtF03cmUDbbpnTGm32WhhtVZNQVVK8y73kpYHNe1pbgOw7ieeV3OMgngoD0rvlTLayRMG4SzLcxGn9LWDRliodOaZtsVDb6NzWRQszw45JJPFxJ4kniTzWZe8bpBBUJ+Uf7Rv2q7KeoVJFrbBr+A4FRidgHgeZVxvmhRi80/KUBEP8oTunkoVDiRFw/WD7CroPlCfUrdSRiL9oPsKAm93Ud1TyQPwB1SeClJ5jvkQEc8jkgIMlyPMPNA4dM7h2BSjI3efaVEEdM7j70ICFSc9Fw/WN+1Tkf1CN0qNTg9F+0b9quv8AMKAi2TgOqVSN/V5HmVcb5oUYvNPylAUEmXnqnkrdQcmHh+tH2FXB6U/IoVPOH9qPsKAnK/DHcCjX9UHdPJVkwWHiqtIDRxQEI5MjzCgcOldw7Aqxkbp49qoCDM7j2BAQqXZ6Lh+sapyPy05aVGpx5L9o1XZPMKAi2Qho6hUY34b5p5lXRyHyKkfm/OgICTDj1SoVBJMPD9YPsKug4lPyK1Ukb0X7QfYUBckd1HcFUP6o4HkknFhUmngEBbieN3keaBw6Z3DsClGRu/OVQEdM7+SEBbqCSYuGPKBTkeCw5aVGpIzF+0CuS+YUAbIN0dU8lGOTq+aeZU2+aqR+b86AiJOuRunkozuyYuH6wfYVcBHSkepQqDxi/aD7CgJSuAYeCqH8BwPJJCNwqoIwOPYgIRv6vI8yjXDpX8OwKsRG7z7SqNcOmf8AIEBCpJD4sD9YFJ8oLSCwqNScPi/aBXZPRlAUEnV808lSJ/V5Hmrg835lGLzEBQP6x4FW6h2XRcP1g+wq6PSO+RW6gjei/aD7CgJSu6h4FSD+A4FUlI3DxUgRjmgIRvGOAPErGw+nqP2h/uWUiILefaVjIv0io/auUohl5ERWKhERAEREAREQBERAEReS5XWgtEAqbjUCGNzgwEgnLj6ggPWioC1zWva7LXDIPqQkAZJwgKovPJXQNpH1cAfVNYCd2nG+5xHYMcyrsMnTRMl3Hs32h268YcMjOCO9ATRUBBGRyVUARQilinZ0sErJGZxvNORlTQBERAEREAREQBERAEREAREQBERAFYADrjC1wyCDkfMr6st/fCE/L9ihko9/ilKP1DPohBSU26PIR/RClIDuEgqTW9QcVUsWY6Wm4+Qj+iE8Upel/R4/ohXIgePFU3T03nHkgLVTS0oYzNPH6RnvR8IKb6Ok3f0aP6IValvVZk/rGf2gpvYd3mUBbbSUm6M00X0QjaSl4/m8fM+9CuNYd0cUZGRnj2lAWxS0u/nxaL6IVurpabox+bx+cPehXww754q3VMPRt4+/CAk6kptw+Qj5fBCNpaXdANPH9EKb2HdPHsRrOqOKAttpaUDjBHz+CE8VpekPkI+XwQpsjODl2eKbmZSc9iAs1FLS7jfzePz2+99YU30VIB+jRfRCVMZ3G8ffs+0K49p3TgoC2KOk3R+bRfRCNo6Q5/N4jx+AFcazqjijGEZ49qAt+J0m/jxaL6IVuppaYMYBAzzx71X9zL+at1TTuMGf1gQEnUtLunyEfL4IVRSUuP0eP6IUnM6ruPYUaw7o4oCDaSlA/R4+fwQoikpelP5vHy+CFdaw4OT2qO4el59iAtVNLTBrPzeP0jPejvU5KSlDD+bRfRCVLTux8f1jftCuOYd08UBBtHSbo/No/ohUjo6TBPi0fM+9CuCM4HWKpGw4PE8z2oC02kpd/wDRovoBUqKWmAZinj88e9Cu9H5TmVGpaQ1mD78ICr6anALugj4D4KNpqcgHoI+Iz5qlM0mNxz2KrGEMHWPmhARbS02D5BnPuURT0xfu9BHyzyUow4g8e1U3T0pAPvUBCopabdZ5Bnnt976wpvpabdPkI/oqlQ07sfW9+37VckaS08SgItpabdHkGfRRtLTY/R4+fwQpsaQ0cVRjCAeseaAtikpd8/m8f0VCppabdjHQR+kHvQr4ad89Yq3VNO7H1j6QIBJSUwYT4vHy+CFVlJTYz4vHx/ihSlaeicM9iq1pDBh3YgINpKXH6PH9EKIpaYyn83i80e9Cuxh27xPaohh6UnPvQgLVRS026z83j9I33o71N9HS4/RovohKhhwzj+sb9quOjJaRlAQbR0m6PzeP6IVGUtPg4gj5n3oVwMcG81SNpwePaUBDoKcvLfF48AfBChU0tNiPyEfnj3oV0A9KePIKNTnDP5Y/vQFX01MGE+Lx8vghVFNTYGYI+XwVKRhLHEuPJBH1R1igIMpqbHCCPn8EKjaam33DxePh/FCuRx4HnHmohp33YKAtVNLTYj8hH6RvvR3qb6Ok3f0aL6ISpBxHx/WN+1Tcw7vNARbR0mB+bRfQCoyjpMfo0XP4AVwMJaOKpHGQPO7SgLYo6TfP5tF9EK3U0lMBFiCP0g976ir4jw/moVQIEXH9YPsKAk+lptx35vHy+CEFLTFo8hH9EK5IDuO49iBpLRxQFqOlpt39Hj5/BCoKWmM7vzePkPehXYgd3n2lRaD07uPYEBZqaWlAj8hH6RvvR3q46kpA3hTR/RCVLT5Pj+sb9quOYQwjeKAgKWkIGaeL6IVGUVJj9Gj5/BCuBhAHHKNYQOZQFsUlLvn82i+iFCopaYGLEEfpB70dxV8MIfzVupaSYsn9YPsKAS0lLuH83j+iFVlJS4/R4/ohTkB3DxVWNIaOKAtRUlLu/o8fM+9Ci2kpemf+bx8h70K9EDu8+0qLQemfx7AgLVTS03k/IM9I33oU30dIG/o0f0QlSDmLrH0jVcezDfOJQEPFKTAzTRfQCNo6TH6NH9EKbWHdGSjWEDmUBbFJSb5xTRfRChPS0oMX5vH6Qe9HcVeawh5OTxUKkHMXH9YPsKAq+lptw/m8fL4IRtJS8/F4/ohTe3qO49iq1uGg57EBbZSUu7+jx/RCg2kpemf+bx8h70K8wEt+dQaw9M/rdgQFuopaYGLEDPSD3qm+kpd3Hi0X0QlS05i4/rArj2Hc84oCAo6TA/NovohG0dJx/No+fwQphh3R1uxGxkDGUBbFJS75/NovohQqKWmBiHi8fpPgjuKvhhDycqFQDmLj+sH2FAUkpKXcP5vHy+CFVtLS4H5vH9EKcjXbh4qrAcc0BaipKXd/R4+Z96FRtLTdM/8AN4uQ96FdiB3efaVFoPTP49gQFqopabei/N4/PHvQpvo6Td/RovohKgHei4+/CuPYS3mgIeKUmB+bRcvgBRjpKTH6NFx/iBXej4DBPJUjj6oOT29qAtijpN8/m0X0QoVFJSh0X5vH6Qe9HcVfbHh2d4qFQ070J3j6QfYUAkpKUMOKeP6IUhSU2B+bx8vghSlB3DxUgDgcexAWYqWmAyIIwQfgheGL08/7R39yyUQIbxPasbF6eo/au/uUohl5ERWKhERAEREAREQBERAPkWo3qvtNx1D7k3Kqjip6Kme5wecb0kgwPY3PtW3LE0Wnqam8ZmqmxVc9VMZXSPjGWg8mjPcFDJiYe06k8X0pPO2QTz29xpwSeDjnDSfUsjSWm/OiNRVahk3poiXRsibusJGerkZ4etH6To5aqtO/0dLXxBkkLG43Xjk4K9a7be6JzYqy8MqaeNu41vRYeR2bzs93qVSxrmnvdG26Qq6+O5SvdH0pja9rcNcDz5LK0V2uEF2twrpt+muVECwboAbM3i72g5+ZXYdMVEFtrbTHcgaWfe6Jro+swuOTxzxV656d90rLBbW1ZgnpgzoqhrclrgMEgesZQHiiutbVUdwuhucdJTulMVI6RuQGjgT6yV5bPeaypudZYxdJKhvignjqHQhj2OJwcDGCOSylw0vHVWukt1NVGndRua+N+7vAuHe3tVLfpyrp7w6811zFTK+m8Xc1sW4B1s8O4IDAafq6uw6QnvEtbLUbr3sZE9ow129jPAZU23GvkaHu1dWsLhktbQDA9Q4LM0mlHsoKuz1NcJKCYudEwNw+Mk559vsU2W3UkLGxR6mbusAa3eogTgd/FWRVmeREUkBERAEREAREQBERAEREAREQBRDAJmzA8W8lJFDF7Fw1DyMEDiMKoqXgYwFaRLE3Ljah7ewJ4w/e3sNyraJYXLkk73gAgcCHew5VfGZCMENVpEsLl3xmQcAGoKmQe9arSJYXLvjL85wFGSZ0jQCBwOVBEsC6al5BGBxQVLwMYCtIlgXRUvHYE8ZfnewOStIlhcnJM+QAHAw4Hh6jlT8ak7grKJYXLoqZAMYCCpeOwK0iWFy74y/OcBRkmfIACBwIKgiWFy6al5BGBxQVMgGMNVpO5LC5dFS8dgVPGJN7ew1W0SwuTfM6QNBA4EO+cKRqpDw3W4VpEsLl7xp/cFEVMjeQbzyraJYF3xh+c4aovnkkABA4HKgiWFy66oe5paQOKCpkAxgYxhWkSwuXW1D28gFTp3729gZxhW0SwuTfO94AIHAg+wqXjLz2BWkSwuXvGn/BCoKl47ArSJYXLvjD85wFGWYuaC4gBp3ic9ygrFw/QJ/5JSxFy3Jqa3AujdUsHYeBVBqi3AY8abyxyK0d/nH5VFLDMby3VFuaP0pvzgoNT24OLvGm8RjkVoyJYjMbw/U1teADVN4EHzT2KR1RbSMeNM9hWiolhmN6/Km3Yx4y36JVBqi2tGBVN9hWjIlhmN4/Ka27xd403iMciqSaktkm7mqb1SCMA8VpCJYZjeTqi2uBBqm8fUVUaptwGPGWewrRUSwzG9DVNtHKpb7CqflNbM7/AI03PyFaMiWGY3iTU1skDQ6paN1wcMA9ik7VFtcMeMtHzFaKiWGY3oaptoGPGmfRKoNT24f9ab7CtGRLDMbz+VFtznxpvsKpJqW2SBu9VN6rg4YBWjolhmN5dqi3OGPGW+wqo1RbgMeNMP8AolaKiWGY3luqLc0Y8aafmKDU9tDy/wAabk/xStGRLDMbw/U1tk3c1TRuuDuR7FI6ptxbg1LPYVoqJYZjehqm3Y/SWewp+VVu+Ms+iVoqJYZjevypt3xln0Sov1NbZN3NS3qu3hwK0dEsMxvJ1RbnAg1TMH+KVUaotwAAqmfRK0VEsMxvLdUW5ox4yz2FBqe2hxf403JHwStGRLDMbxJqW2SbuapvVcHDgVJ2qLa5uPGmfRK0VEsMxvQ1TbgMeMs9hT8qrd8ZZ9ErRUSwzG9flTbfjLPolRfqa2v3c1Teq7eHVK0dEsMxvTtUW5wI8ZYM+oqg1RbgMeNN5Y5FaMiWGY3kaotwHCqb7Cg1PbA4uFU3J/ilaMiWGY3iTU1seWk1Teqd7kVU6ptxGDUs+iVoyJYZjehqm2gY8ZZ7Cn5U2/P6Sz6JWiolhmN6/Km3Z/SWfRKi/U1teWk1LOqc+aVo6JYZjeTqi2uBaalvH1FVGqLaBgVTfYVoqJYZjeW6otrRjxpp/wBEoNT20PL/ABpvH1FaMiWGY3h+prY8tJqm9U5HAqp1RbnDBqWD5itGRLDMb0NU24DHjLPolUGp7aP+tN9hWjIlhmN5/Ki3A58ab7CqP1LbXuaTVN6pyOB58fvWjolhmN5dqi3OGPGWewqv5U274yz6JWiolhmN5bqi3NGPGWewpRXCgq5pG01QHvcS8g8PYtGWQ07+/MfyH7EsSnc3ZFQclVSAiIgCIiAIiIAiIgCx9bfLdQzGnmke+QDLmxMLy3uzjksgOawWnP32vf8A8Q3+ygMzTTx1cLKiHJZIN5pIwcK5hYu5/okfyr3R/oQ/ZD7EBOKSOZpdE8PAJaSO8diny5rV9H/vPW/tpPtWatH6I35SguUrL3b6OfxWR0j5RguEcZdu/Ljkvc3rtDgMgjIWHsX7+33+Uz+yvTcf0ml+UfagPb0sW+6LpG7zBvOHcO9QFXSuAc2dhBGQQea1Sq/5wXT/AOFWu0v6LD+zb9iA/9k=;" parent="1" vertex="1">
          <mxGeometry x="10" width="826.36" height="410" as="geometry" />
        </mxCell>
      </root>
    </mxGraphModel>
  </diagram>
</mxfile>
